<ttFont>
          <CharString index="0">
            -34 15 -105 callgsubr
            return
          </CharString>
          <CharString index="1">
            vlineto
            -106 callgsubr
          </CharString>
          <CharString index="2">
            -42 618 rmoveto
            -91 callgsubr
            139 -65 callsubr
            -130 hlineto
            -23 27 -16 return
          </CharString>
          <CharString index="3">
            -102 callsubr
            vlineto
            return
          </CharString>
          <CharString index="4">
            358 callsubr
            -48 -108 -39 callsubr
            hvcurveto
            -95 callsubr
            return
          </CharString>
          <CharString index="5">
            -22 -99 callsubr
            return
          </CharString>
          <CharString index="6">
            -87 callsubr
            -32 187 callgsubr
            -21 -4 -21 -3 -31 callsubr
            return
          </CharString>
          <CharString index="7">
            34 -15 -96 callsubr
            return
          </CharString>
          <CharString index="8">
            -32 callsubr
            549 return
          </CharString>
          <CharString index="9">
            -97 callsubr
            339 callsubr
            -9 53 hhcurveto
            return
          </CharString>
          <CharString index="10">
            -99 callgsubr
            33 4 28 10 21 18 return
          </CharString>
          <CharString index="11">
            33 -78 callsubr
            return
          </CharString>
          <CharString index="12">
            14 -101 callsubr
            return
          </CharString>
          <CharString index="13">
            -70 callgsubr
            -44 -62 callsubr
            34 -13 -16 27 hvcurveto
            return
          </CharString>
          <CharString index="14">
            -19 43 -83 callgsubr
          </CharString>
          <CharString index="15">
            vlineto
            -91 callsubr
          </CharString>
          <CharString index="16">
            -22 57 -93 callsubr
          </CharString>
          <CharString index="17">
            rmoveto
            -101 callgsubr
            return
          </CharString>
          <CharString index="18">
            29 hvcurveto
            -113 -106 callsubr
          </CharString>
          <CharString index="19">
            rmoveto
            436 -142 vlineto
            -42 5 -50 -10 hvcurveto
            77 -2 rlineto
            -331 vlineto
            -26 -32 -31 -16 -46 hhcurveto
            -66 -39 37 91 hvcurveto
            307 -138 vlineto
            -43 6 -50 -10 -1 hvcurveto
            74 -2 rlineto
            -245 vlineto
            -153 93 -54 87 69 43 31 32 36 vhcurveto
            18 -55 134 13 rlineto
            13 1 41 -31 1 vhcurveto
            return
          </CharString>
          <CharString index="20">
            12 16 -88 callgsubr
            return
          </CharString>
          <CharString index="21">
            rmoveto
            88 14 40 45 58 hhcurveto
            56 32 -42 -91 2 hvcurveto
            -208 -60 rmoveto
            309 54 hlineto
            111 1 -52 97 -129 hhcurveto
            -137 -99 -97 -189 -159 83 -84 135 110 77 57 38 12 -7 17 -10 7 hvcurveto
            -23 -29 -45 -31 -66 hhcurveto
            -109 -32 69 102 hvcurveto
            endchar
          </CharString>
          <CharString index="22">
            hhcurveto
            -25 -24 2 5 -21 hvcurveto
            7 21 4 26 278 callsubr
            return
          </CharString>
          <CharString index="23">
            -68 callsubr
            rrcurveto
            -179 127 callsubr
            74 52 45 78 60 -32 447 callsubr
            return
          </CharString>
          <CharString index="24">
            249 rmoveto
            -31 -27 -42 -26 -66 -73 callgsubr
            180 hlineto
            return
          </CharString>
          <CharString index="25">
            106 callgsubr
            -30 5 -167 -52 callsubr
            return
          </CharString>
          <CharString index="26">
            -43 -32 -11 -15 -10 hvcurveto
            -74 callsubr
            return
          </CharString>
          <CharString index="27">
            rmoveto
            -100 callsubr
            return
          </CharString>
          <CharString index="28">
            -199 -116 -143 -226 2 hvcurveto
            -214 1 104 -129 176 hhcurveto
            204 113 143 224 hvcurveto
            240 -2 -124 105 -159 hhcurveto
            -15 -70 rmoveto
            130 1 61 -110 -181 vvcurveto
            -176 -64 -104 -130 -2 vhcurveto
            -127 1 -60 109 178 vvcurveto
            193 callsubr
            return
          </CharString>
          <CharString index="29">
            -17 22 vhcurveto
            return
          </CharString>
          <CharString index="30">
            -87 -49 31 49 27 15 26 21 24 hvcurveto
            27 -6 32 -1 36 -1 rrcurveto
            99 -4 65 -4 -47 vvcurveto
            -51 -61 -43 -98 vhcurveto
            -11 601 rmoveto
            59 1 29 -51 -68 vvcurveto
            -71 -33 -48 -56 vhcurveto
            -54 -1 -32 45 73 vvcurveto
            70 30 49 57 1 vhcurveto
            110 40 rmoveto
            17 -30 -36 8 -37 hhcurveto
            -121 -72 -88 -106 2 hvcurveto
            1 -65 29 -52 49 -28 rrcurveto
            -29 -33 -21 -34 -35 vvcurveto
            -21 6 -15 12 -11 vhcurveto
            -37 -31 -28 -42 -49 vvcurveto
            -75 67 -59 131 145 102 78 121 94 -68 27 -139 5 vhcurveto
            -72 2 -34 1 -1 15 -1 7 6 16 13 18 rrcurveto
            -3 16 16 -2 18 hhcurveto
            114 70 77 109 5 hvcurveto
            2 46 -11 37 -19 27 30 -1 38 0 13 7 16 12 -5 46 -11 14 rrcurveto
            endchar
          </CharString>
          <CharString index="31">
            rmoveto
            246 callsubr
            -430 vlineto
            -326 493 rlineto
            -122 -74 callgsubr
            176 -4 callgsubr
            -72 6 rlineto
            459 vlineto
            346 -523 rlineto
            26 23 5 8 18 hvcurveto
            609 171 callsubr
            endchar
          </CharString>
          <CharString index="32">
            -101 callsubr
            rrcurveto
            69 10 33 106 77 hhcurveto
            7 49 callsubr
          </CharString>
          <CharString index="33">
            205 callsubr
            48 15 16 6 8 9 vhcurveto
            17 15 11 37 54 vvcurveto
            return
          </CharString>
          <CharString index="34">
            529 -90 callsubr
            return
          </CharString>
          <CharString index="35">
            21 -25 13 -27 -26 vvcurveto
            return
          </CharString>
          <CharString index="36">
            -107 callgsubr
            81 -202 hlineto
            -34 -17 -49 -13 -35 -4 -23 37 -38 20 -35 10 rrcurveto
            40 26 28 41 57 vvcurveto
            87 -70 58 -94 -55 -49 -19 -39 -49 vhcurveto
            5 -25 28 -47 20 -18 rrcurveto
            42 45 46 22 44 hhcurveto
            32 22 -13 -31 -36 -33 -58 -121 -31 hvcurveto
            5 -23 24 -45 19 -16 rrcurveto
            12 23 26 1 13 hhcurveto
            52 28 -35 -42 -44 -29 -33 -63 -96 -63 78 122 -58 hvcurveto
            -17 -4 -26 -13 -10 -13 rrcurveto
            -133 52 105 -129 142 hhcurveto
            102 50 69 81 hvcurveto
            4 0 4 4 vvcurveto
            15 hlineto
            30 29 4 6 22 hvcurveto
            -210 vlineto
            -22 57 -19 43 -26 callsubr
            return
          </CharString>
          <CharString index="37">
            hhcurveto
            -40 -48 24 66 65 46 40 69 39 30 -7 -18 26 hvcurveto
            21 47 rlineto
            32 -25 -53 23 -66 14 callsubr
            return
          </CharString>
          <CharString index="38">
            -49 callgsubr
            72 -6 rlineto
            return
          </CharString>
          <CharString index="39">
            56 callgsubr
            57 383 callsubr
            -18 -36 -104 -69 12 callgsubr
            return
          </CharString>
          <CharString index="40">
            hlineto
            -101 callgsubr
            return
          </CharString>
          <CharString index="41">
            -3 6 -46 -1 -10 rlinecurve
            return
          </CharString>
          <CharString index="42">
            vlineto
            -101 callgsubr
            return
          </CharString>
          <CharString index="43">
            hhcurveto
            -100 -84 -59 -107 24 callsubr
            return
          </CharString>
          <CharString index="44">
            -2 -44 -66 callsubr
            return
          </CharString>
          <CharString index="45">
            27 65 71 52 39 72 42 return
          </CharString>
          <CharString index="46">
            rmoveto
            452 vlineto
            -178 148 callsubr
            -3 vhcurveto
            44 -5 rlineto
            -375 313 callsubr
            return
          </CharString>
          <CharString index="47">
            14 -75 callsubr
          </CharString>
          <CharString index="48">
            15 callgsubr
            -3 -14 -6 -11 vhcurveto
            return
          </CharString>
          <CharString index="49">
            -8 80 -163 -21 rlineto
            -13 -1 -36 28 -3 vhcurveto
            48 -5 rlineto
            -371 132 callgsubr
            219 hlineto
            44 -4 46 10 -1 hvcurveto
            -83 6 rlineto
            299 vlineto
            38 30 36 28 34 hhcurveto
            24 14 -13 -61 hvcurveto
            21 -2 17 1 13 10 rrcurveto
            13 12 14 32 35 vvcurveto
            53 -36 20 -33 return
          </CharString>
          <CharString index="50">
            -22 56 -93 callsubr
          </CharString>
          <CharString index="51">
            105 25 -87 callgsubr
            return
          </CharString>
          <CharString index="52">
            349 callsubr
            10 20 -23 38 -44 43 -43 40 rrcurveto
            23 27 12 34 37 vvcurveto
            40 -15 35 -38 -37 -61 -34 -48 -14 5 -34 411 callsubr
            -31 -5 -28 279 callgsubr
            117 32 18 -4 -2 17 hvcurveto
            12 -2 31 33 16 vvcurveto
            endchar
          </CharString>
          <CharString index="53">
            rmoveto
            -84 callgsubr
            return
          </CharString>
          <CharString index="54">
            rmoveto
            33 16 -24 -33 -41 -23 -38 -40 -30 hvcurveto
            -26 19 -25 33 42 vvcurveto
            42 28 30 37 vhcurveto
            466 -40 rmoveto
            -23 callgsubr
            return
          </CharString>
          <CharString index="55">
            -133 rcurveline
            6 -13 11 -14 21 -10 rrcurveto
            return
          </CharString>
          <CharString index="56">
            rmoveto
            210 callsubr
            74 -6 -143 -263 -147 265 rlineto
            1 hlineto
            37 145 callgsubr
            -221 hlineto
            -44 5 -48 -10 1 hvcurveto
            61 -6 rlineto
            0 vlineto
            194 -339 rlineto
            -219 vlineto
            -36 -63 callsubr
            214 315 callsubr
            219 hlineto
            191 339 23 3 44 4 -6 45 1 10 rlinecurve
            endchar
          </CharString>
          <CharString index="57">
            hhcurveto
            -57 -28 33 35 53 74 33 72 311 callgsubr
            -23 5 callgsubr
            36 32 32 25 446 callsubr
            -14 -14 -26 -14 callgsubr
            return
          </CharString>
          <CharString index="58">
            102 callsubr
            -20 33 -37 -38 -61 -33 -48 -15 5 -22 411 callsubr
            -31 -6 -28 hhcurveto
            -85 -75 35 83 103 81 39 109 hvcurveto
            41 14 -4 17 hhcurveto
            12 3 32 31 23 vvcurveto
            return
          </CharString>
          <CharString index="59">
            88 callgsubr
            131 -6 rlineto
            -146 vlineto
            -25 -27 -52 -17 -54 hhcurveto
            -153 -58 107 174 172 58 119 145 107 43 -44 -96 hvcurveto
            56 30 30 45 67 -69 63 -155 -217 -109 -156 -214 2 hvcurveto
            -215 1 100 -128 189 hhcurveto
            109 101 40 59 39 hvcurveto
            167 4 vlineto
            27 2 44 4 -6 45 1 10 rlinecurve
            endchar
          </CharString>
          <CharString index="60">
            -16 callsubr
            21 29 45 34 19 -17 -26 16 vhcurveto
            10 440 callsubr
            -6 -27 70 -91 hhcurveto
            return
          </CharString>
          <CharString index="61">
            -71 callgsubr
            -144 99 callsubr
            432 360 callgsubr
            -8 3 -9 4 -10 vhcurveto
            -27 -31 -39 -16 -39 -70 callsubr
            50 46 16 30 40 hvcurveto
            -23 23 27 -18 19 hhcurveto
            15 16 4 8 8 hvcurveto
            -32 callgsubr
          </CharString>
          <CharString index="62">
            hlineto
            -84 callgsubr
            return
          </CharString>
          <CharString index="63">
            hlineto
            -34 15 -34 17 -33 callgsubr
            return
          </CharString>
          <CharString index="64">
            -15 rrcurveto
            -40 12 -36 209 callgsubr
            13 -16 -22 -25 -14 268 callsubr
            10 -17 9 -7 rrcurveto
            return
          </CharString>
          <CharString index="65">
            -4 47 10 -1 hvcurveto
            return
          </CharString>
          <CharString index="66">
            rmoveto
            -233 -6 rlineto
            558 1 vlineto
            50 145 callgsubr
            -228 hlineto
            210 callsubr
            71 127 callgsubr
            483 163 hlineto
            39 -47 -4 -10 -1 vhcurveto
            endchar
          </CharString>
          <CharString index="67">
            -115 -1 -110 -61 -125 vvcurveto
            -114 94 -41 102 -44 vhcurveto
            87 -38 63 -28 -73 vvcurveto
            -69 -56 -50 -93 -86 -46 43 91 -6 vhcurveto
            -61 -27 -34 -43 -86 110 -39 100 159 97 97 127 103 -65 39 -120 52 hvcurveto
            return
          </CharString>
          <CharString index="68">
            -131 125 -111 86 -61 return
          </CharString>
          <CharString index="69">
            vlineto
            -35 -2 -45 -3 6 -45 -1 -10 rlinecurve
            210 -16 callgsubr
            return
          </CharString>
          <CharString index="70">
            -245 -8 rlineto
            242 vlineto
            185 -11 5 29 0 35 -6 25 rlinecurve
            -184 -18 rlineto
            return
          </CharString>
          <CharString index="71" raw="1">
            7c1dc40b   
          </CharString>
          <CharString index="72">
            -89 callgsubr
            240 12 callsubr
            return
          </CharString>
          <CharString index="73">
            -1 -92 84 -38 79 -30 rrcurveto
            63 -25 43 -17 -47 vvcurveto
            -47 -45 -20 -49 1 vhcurveto
            -70 -39 39 59 -9 hvcurveto
            -36 -35 -22 -43 -1 hvcurveto
            -69 89 -30 79 -1 vhcurveto
            128 -1 74 77 1 90 rrcurveto
            88 -69 31 -81 33 vhcurveto
            return
          </CharString>
          <CharString index="74">
            23 callgsubr
            -31 -17 rrcurveto
            -37 152 callsubr
            return
          </CharString>
          <CharString index="75">
            56 -19 44 vhcurveto
            return
          </CharString>
          <CharString index="76">
            -16 11 -12 194 callsubr
            return
          </CharString>
          <CharString index="77">
            -100 callgsubr
            291 vlineto
            54 38 42 30 42 hhcurveto
            return
          </CharString>
          <CharString index="78">
            76 callgsubr
            -135 hlineto
            -136 54 -125 148 return
          </CharString>
          <CharString index="79">
            vlineto
            -35 -51 callgsubr
            return
          </CharString>
          <CharString index="80">
            21 504 63 -88 callsubr
            return
          </CharString>
          <CharString index="81">
            vhcurveto
            549 return
          </CharString>
          <CharString index="82">
            vvcurveto
            -37 45 -68 40 -31 -21 callgsubr
            return
          </CharString>
          <CharString index="83">
            36 211 callgsubr
            -36 -34 -29 -29 -34 -35 29 -28 34 hvcurveto
            return
          </CharString>
          <CharString index="84">
            hhcurveto
            -41 -50 24 74 81 59 39 79 return
          </CharString>
          <CharString index="85">
            -8 callsubr
            -100 -84 -59 -107 -96 82 -91 113 412 callsubr
            hvcurveto
            -113 vlineto
            -22 -32 callsubr
            284 vlineto
            return
          </CharString>
          <CharString index="86">
            -15 214 callsubr
            46 -55 18 return
          </CharString>
          <CharString index="87">
            124 callgsubr
            1 92 rrcurveto
            94 -73 73 -96 -76 -54 -44 -62 202 callsubr
            -11 10 -34 317 callgsubr
            -78 -63 -57 -133 -19 vhcurveto
            -114 13 94 -115 137 hhcurveto
            return
          </CharString>
          <CharString index="88">
            rmoveto
            -8 13 -11 13 -15 8 -137 -86 rcurveline
            -137 86 -16 -9 -8 -9 return
          </CharString>
          <CharString index="89">
            46 92 39 34 hhcurveto
            22 12 -12 -22 -52 -63 -52 -94 -81 74 callgsubr
            return
          </CharString>
          <CharString index="90">
            -44 -40 -63 -34 -50 -23 callsubr
            45 304 callsubr
            return
          </CharString>
          <CharString index="91">
            -6 callgsubr
            68 27 55 79 callsubr
            return
          </CharString>
          <CharString index="92">
            hlineto
            23 404 callgsubr
            -2 -12 vhcurveto
            return
          </CharString>
          <CharString index="93">
            24 11 128 callgsubr
            return
          </CharString>
          <CharString index="94">
            156 callsubr
            -29 -43 callsubr
            58 366 callgsubr
            return
          </CharString>
          <CharString index="95">
            -25 24 -31 28 -28 callgsubr
            return
          </CharString>
          <CharString index="96">
            hlineto
            -34 14 235 callsubr
            return
          </CharString>
          <CharString index="97">
            73 callgsubr
            44 vhcurveto
            250 vlineto
            54 410 callgsubr
            36 356 callgsubr
            50 36 72 365 callsubr
          </CharString>
          <CharString index="98">
            248 -39 callgsubr
            return
          </CharString>
          <CharString index="99">
            -117 hlineto
            96 callsubr
            return
          </CharString>
          <CharString index="100">
            -45 97 callgsubr
            return
          </CharString>
          <CharString index="101">
            vvcurveto
            -104 75 -99 128 56 182 callsubr
            vhcurveto
            -108 -106 callsubr
          </CharString>
          <CharString index="102">
            1 -43 453 callsubr
            return
          </CharString>
          <CharString index="103">
            hmoveto
            -100 callsubr
            return
          </CharString>
          <CharString index="104">
            -116 hlineto
            21 -36 -47 17 -51 -64 callsubr
            51 338 callgsubr
            366 callsubr
            283 vlineto
            33 43 45 41 48 7 rrcurveto
            -9 -20 -5 -23 -26 vvcurveto
            454 callgsubr
            vhcurveto
            107 callsubr
          </CharString>
          <CharString index="105">
            rmoveto
            646 vlineto
            -178 -20 347 callgsubr
            -569 -38 callsubr
            return
          </CharString>
          <CharString index="106">
            -35 19 -57 87 -37 vhcurveto
            7 5 17 20 4 10 rrcurveto
            -12 165 callsubr
            return
          </CharString>
          <CharString index="107">
            241 rmoveto
            -35 callgsubr
            return
          </CharString>
          <CharString index="108">
            -70 callgsubr
            166 callgsubr
            return
          </CharString>
          <CharString index="109">
            66 callgsubr
            7 return
          </CharString>
          <CharString index="110">
            -108 -131 125 return
          </CharString>
          <CharString index="111">
            214 rmoveto
            -29 -27 -43 -23 -61 hhcurveto
            -68 -48 28 44 -26 hvcurveto
            107 26 38 65 50 vvcurveto
            61 -1 return
          </CharString>
          <CharString index="112">
            rmoveto
            -21 callsubr
            return
          </CharString>
          <CharString index="113">
            rmoveto
            -75 callgsubr
            301 102 rmoveto
            177 -80 callgsubr
            -671 149 callsubr
            251 282 callsubr
            16 16 -5 -10 10 hvcurveto
            48 46 rlineto
            29 -29 -42 17 -44 hhcurveto
            -55 -43 -24 -23 -30 hvcurveto
            endchar
          </CharString>
          <CharString index="114">
            hlineto
            2 callgsubr
            return
          </CharString>
          <CharString index="115">
            94 callsubr
            134 callsubr
            vhcurveto
            endchar
          </CharString>
          <CharString index="116">
            hlineto
            -19 callgsubr
            return
          </CharString>
          <CharString index="117">
            -107 callgsubr
            302 -70 -118 hlineto
            -82 -52 -44 -73 -98 89 -69 55 hvcurveto
            377 callsubr
            13 334 callgsubr
            -14 -25 2 6 -17 hvcurveto
            27 -13 -32 48 -27 hhcurveto
            -27 -41 -27 -38 -41 return
          </CharString>
          <CharString index="118">
            rrcurveto
            -195 -106 callsubr
          </CharString>
          <CharString index="119">
            hmoveto
            -101 callgsubr
            return
          </CharString>
          <CharString index="120">
            220 callgsubr
            36 29 -21 -42 -55 -50 -57 -50 -33 hvcurveto
            13 -25 24 -31 28 8 callsubr
          </CharString>
          <CharString index="121">
            hhcurveto
            -84 29 callgsubr
            return
          </CharString>
          <CharString index="122">
            rmoveto
            -15 -56 -46 -18 -16 383 callgsubr
            49 303 callgsubr
            return
          </CharString>
          <CharString index="123">
            35 callsubr
            4 -9 return
          </CharString>
          <CharString index="124">
            1 -43 10 callgsubr
            return
          </CharString>
          <CharString index="125">
            -48 -108 -95 80 -91 116 return
          </CharString>
          <CharString index="126">
            58 callsubr
            722 -13 callgsubr
            -91 387 callgsubr
            -6 0 -6 1 -5 hvcurveto
            -62 -29 -60 -38 -63 hhcurveto
            -40 -48 24 66 65 46 40 69 39 30 -7 -18 27 hvcurveto
            20 47 rlineto
            32 -25 -53 23 -65 hhcurveto
            -85 -89 18 callsubr
            72 49 34 42 39 hvcurveto
            -54 33 60 -38 79 hhcurveto
            56 182 callsubr
            hvcurveto
            -108 -106 callsubr
          </CharString>
          <CharString index="127">
            rmoveto
            -36 -34 -48 -30 -52 hhcurveto
            -49 37 callgsubr
            return
          </CharString>
          <CharString index="128">
            -47 411 callgsubr
            15 -12 20 -40 51 -39 42 rrcurveto
            10 hlineto
            139 81 77 78 return
          </CharString>
          <CharString index="129">
            rmoveto
            196 -197 hlineto
            -43 -35 -16 -34 -11 vhcurveto
            7 -26 25 -45 17 -13 rrcurveto
            69 25 52 50 84 vvcurveto
            192 130 -65 callsubr
            -627 -107 callgsubr
            100 -210 hlineto
            -127 67 -55 51 -32 vhcurveto
            86 -54 137 -81 -32 vvcurveto
            -20 -31 -23 -36 -19 vhcurveto
            15 -25 27 -33 24 -16 rrcurveto
            39 40 35 38 69 vvcurveto
            100 -106 42 -107 67 vhcurveto
            -87 52 -16 23 69 vvcurveto
            endchar
          </CharString>
          <CharString index="130">
            -107 callgsubr
            308 -70 -118 hlineto
            -81 -53 -44 -73 -98 89 -69 56 hvcurveto
            377 callsubr
            12 334 callgsubr
            -13 -26 2 6 -16 hvcurveto
            27 -14 -32 48 -27 hhcurveto
            -26 -42 -27 -38 -41 55 -30 57 -16 hvcurveto
            35 -55 32 -81 41 callgsubr
            16 -3 18 -7 19 hvcurveto
            -3 25 29 -3 29 hhcurveto
            return
          </CharString>
          <CharString index="131">
            -96 81 -91 114 return
          </CharString>
          <CharString index="132">
            hhcurveto
            -10 -4 -22 -25 -5 -18 rrcurveto
            29 -27 37 -33 -45 vvcurveto
            -37 -25 -18 -34 -86 -70 112 74 -28 vhcurveto
            return
          </CharString>
          <CharString index="133">
            hlineto
            -44 90 callsubr
            49 14 17 269 callgsubr
            return
          </CharString>
          <CharString index="134">
            rmoveto
            21 10 11 14 6 13 -167 133 rcurveline
            -30 -5 -34 -35 -10 -21 rrcurveto
            endchar
          </CharString>
          <CharString index="135">
            112 callgsubr
            -12 45 -25 29 -5 rrcurveto
            return
          </CharString>
          <CharString index="136">
            -32 -39 -42 -21 -51 hhcurveto
            -115 -33 90 101 111 42 78 81 67 25 -56 -46 1 hvcurveto
            32 -3 43 15 55 vvcurveto
            65 -63 41 -91 return
          </CharString>
          <CharString index="137">
            264 callgsubr
            31 hhcurveto
            39 -1 37 -2 35 -4 rrcurveto
            -195 -92 callsubr
          </CharString>
          <CharString index="138">
            3 30 23 12 393 callsubr
            -66 246 callgsubr
            71 -305 81 callsubr
          </CharString>
          <CharString index="139">
            -43 415 529 rmoveto
            152 -45 callsubr
            -578 hlineto
            -34 15 180 callsubr
            421 callsubr
            106 83 51 56 47 hvcurveto
            -11 24 -23 27 -28 18 rrcurveto
            -41 -33 -62 26 callgsubr
            return
          </CharString>
          <CharString index="140">
            8 7 0 1 6 hvcurveto
            51 -62 62 -90 40 -77 25 11 43 444 callgsubr
            -87 86 -57 48 return
          </CharString>
          <CharString index="141">
            89 callgsubr
            32 0 30 hhcurveto
            39 -1 37 -2 36 -4 11 callsubr
          </CharString>
          <CharString index="142">
            22 -43 12 15 callgsubr
            -2 -14 -6 -11 vhcurveto
            return
          </CharString>
          <CharString index="143">
            rmoveto
            394 callsubr
            226 212 vlineto
            return
          </CharString>
          <CharString index="144">
            -17 8 -7 rrcurveto
            59 19 34 36 40 vvcurveto
            52 -40 36 return
          </CharString>
          <CharString index="145">
            381 callgsubr
            -85 -65 -52 -80 -58 40 -48 43 -28 vhcurveto
            -88 -53 -43 -43 -79 vvcurveto
            -102 74 -76 116 32 39 10 16 32 vhcurveto
            30 -47 24 -52 19 -43 411 callgsubr
            14 -16 29 -51 55 -40 34 rrcurveto
            23 22 14 28 28 vvcurveto
            34 -19 35 -31 -31 -59 264 callsubr
            -24 -3 -22 hhcurveto
            -59 -47 25 53 return
          </CharString>
          <CharString index="146">
            -44 -49 callgsubr
            65 -5 -221 -281 rlineto
            282 195 callgsubr
            220 hlineto
            44 -42 callsubr
            -80 6 rlineto
            182 vlineto
            37 45 203 -290 rlineto
            109 hlineto
            38 7 44 12 -6 hvcurveto
            return
          </CharString>
          <CharString index="147">
            322 callsubr
            107 75 callgsubr
            return
          </CharString>
          <CharString index="148">
            -216 219 529 rmoveto
            176 -80 callgsubr
            -405 -107 callgsubr
            129 -147 hlineto
            -81 callsubr
            237 -17 rmoveto
            -379 -233 8 -24 29 -39 15 -10 rlinecurve
            352 242 rlineto
            return
          </CharString>
          <CharString index="149">
            -58 105 161 callgsubr
            -106 -39 -23 hhcurveto
            -12 -15 10 33 57 47 15 99 hvcurveto
            55 15 -3 26 hhcurveto
            15 9 19 23 3 20 rrcurveto
            endchar
          </CharString>
          <CharString index="150">
            -10 -31 -38 hvcurveto
            -100 -156 -94 callsubr
            return
          </CharString>
          <CharString index="151">
            -2 -2 -15 hvcurveto
            -1 -17 10 -51 7 -14 rrcurveto
            176 callsubr
            -2 -5 18 hvcurveto
            57 -17 69 -66 32 return
          </CharString>
          <CharString index="152">
            72 callsubr
            -16 -46 60 -82 hhcurveto
            return
          </CharString>
          <CharString index="153">
            rmoveto
            193 -232 rlineto
            -27 -31 -37 -19 -33 101 callsubr
            return
          </CharString>
          <CharString index="154">
            -107 callgsubr
            126 -229 hlineto
            -43 -32 -11 -15 -10 hvcurveto
            151 callsubr
            return
          </CharString>
          <CharString index="155">
            -90 callsubr
            -125 hlineto
            91 -28 -92 185 -150 hhcurveto
            -82 -51 -55 -73 -58 32 -46 23 -20 hvcurveto
            13 3 17 9 10 8 rrcurveto
            -7 14 -9 29 27 vvcurveto
            56 35 20 41 92 56 -108 -82 31 vhcurveto
            -152 -38 callgsubr
          </CharString>
          <CharString index="156">
            -349 -58 callgsubr
          </CharString>
          <CharString index="157">
            hhcurveto
            153 303 callsubr
            -76 -64 -37 -75 44 callgsubr
            -171 vlineto
            -71 -3 -23 -17 -31 vvcurveto
            -56 80 -71 24 -9 vhcurveto
            449 callsubr
            9 hvcurveto
            18 12 13 56 3 35 rrcurveto
            return
          </CharString>
          <CharString index="158">
            115 688 rmoveto
            104 callsubr
            -34 -29 -21 rrcurveto
            -8 19 -18 8 5 vhcurveto
            48 20 58 80 279 callsubr
            return
          </CharString>
          <CharString index="159">
            -147 152 101 callgsubr
            41 123 callsubr
            -56 hhcurveto
            -94 return
          </CharString>
          <CharString index="160">
            31 -18 17 -35 142 callsubr
            return
          </CharString>
          <CharString index="161">
            305 callgsubr
            hvcurveto
            28 -46 20 -44 30 -57 112 callsubr
            39 -44 42 450 callsubr
            -14 35 -38 -38 -61 443 callsubr
            11 -16 vhcurveto
            -12 -21 -30 -5 -29 279 callgsubr
            118 31 18 -4 -2 18 hvcurveto
            12 -2 30 33 16 vvcurveto
            endchar
          </CharString>
          <CharString index="162">
            132 callsubr
            49 11 18 461 callsubr
            return
          </CharString>
          <CharString index="163">
            -67 hlineto
            2 -15 -16 1 -17 hhcurveto
            -159 -84 -89 -111 -85 49 -73 75 -33 hvcurveto
            -50 -22 -26 -45 -48 vvcurveto
            return
          </CharString>
          <CharString index="164">
            529 123 callgsubr
            -56 -15 197 callsubr
            return
          </CharString>
          <CharString index="165">
            vvcurveto
            44 -6 43 -7 32 vhcurveto
            return
          </CharString>
          <CharString index="166">
            hhcurveto
            -56 -29 32 35 55 76 31 61 14 hvcurveto
            -7 26 -25 32 -16 16 -26 -6 -26 -8 -25 -11 rrcurveto
            -31 7 -37 25 49 vvcurveto
            23 7 19 11 13 vhcurveto
            return
          </CharString>
          <CharString index="167">
            181 callgsubr
            -44 80 -91 44 return
          </CharString>
          <CharString index="168">
            374 callsubr
            34 -17 -45 60 358 callsubr
            -48 -108 -39 callsubr
            hvcurveto
            14 -87 callsubr
            -31 -31 28 callsubr
            69 9 38 110 return
          </CharString>
          <CharString index="169">
            -569 -26 869 rmoveto
            -64 -44 -59 -38 -72 hhcurveto
            -52 -38 20 45 -51 hvcurveto
            -11 -8 -15 -18 -7 -13 rrcurveto
            -70 57 76 -45 77 hhcurveto
            99 81 76 39 26 hvcurveto
            -11 29 -27 31 -29 16 rrcurveto
            -151 81 rmoveto
            -14 -53 -44 -16 -14 44 -52 15 14 51 47 13 12 -41 54 -16 hvcurveto
            endchar
          </CharString>
          <CharString index="170">
            rmoveto
            -30 -5 -34 -35 -10 -21 203 -109 rcurveline
            21 10 11 14 6 13 rrcurveto
            return
          </CharString>
          <CharString index="171">
            305 callsubr
            -27 -42 -26 return
          </CharString>
          <CharString index="172">
            124 callgsubr
            92 vvcurveto
            94 -72 73 -97 -23 -20 -4 -7 -18 vhcurveto
            return
          </CharString>
          <CharString index="173">
            hlineto
            74 callsubr
            return
          </CharString>
          <CharString index="174">
            -9 callsubr
            240 hmoveto
            34 return
          </CharString>
          <CharString index="175">
            17 57 -81 109 73 callgsubr
            44 vhcurveto
            249 337 callsubr
            60 60 hhcurveto
            35 356 callgsubr
            51 36 71 365 callsubr
          </CharString>
          <CharString index="176">
            -82 callgsubr
            240 6 callgsubr
            -651 hlineto
            -34 15 184 callsubr
            -37 413 callgsubr
            return
          </CharString>
          <CharString index="177">
            36 -54 callgsubr
            -214 -74 callgsubr
            return
          </CharString>
          <CharString index="178">
            224 callsubr
            11 19 -55 226 callgsubr
            28 10 21 return
          </CharString>
          <CharString index="179">
            3 -9 353 callsubr
            -70 -7 callsubr
            return
          </CharString>
          <CharString index="180">
            239 6 callgsubr
            return
          </CharString>
          <CharString index="181">
            -43 -69 callsubr
            return
          </CharString>
          <CharString index="182">
            16 vhcurveto
            -7 -22 -5 -21 -2 -16 return
          </CharString>
          <CharString index="183">
            -4 5 10 231 callsubr
            return
          </CharString>
          <CharString index="184">
            rmoveto
            -8 13 -11 13 -14 8 -137 -87 rcurveline
            -138 87 -15 -9 -8 -9 -9 192 callsubr
            -7 16 0 27 7 rlinecurve
            return
          </CharString>
          <CharString index="185">
            -34 -49 -30 -52 hhcurveto
            -48 131 callsubr
            345 -80 callgsubr
            return
          </CharString>
          <CharString index="186">
            5 vhcurveto
            -10 33 -18 26 -20 19 -20 202 callgsubr
            return
          </CharString>
          <CharString index="187">
            57 callgsubr
            -59 -107 return
          </CharString>
          <CharString index="188">
            hlineto
            -91 callsubr
          </CharString>
          <CharString index="189">
            306 callgsubr
            239 178 -54 callsubr
            return
          </CharString>
          <CharString index="190">
            210 callgsubr
            35 hlineto
            -1 35 -14 31 -17 23 rrcurveto
            return
          </CharString>
          <CharString index="191">
            -117 hlineto
            239 callgsubr
            -48 -108 -95 80 -91 return
          </CharString>
          <CharString index="192">
            vhcurveto
            71 -305 -58 callgsubr
          </CharString>
          <CharString index="193">
            vlineto
            35 -54 callgsubr
            return
          </CharString>
          <CharString index="194">
            hhcurveto
            -65 119 callgsubr
            return
          </CharString>
          <CharString index="195">
            -22 -56 -101 159 -190 return
          </CharString>
          <CharString index="196">
            1 callgsubr
            endchar
          </CharString>
          <CharString index="197">
            -32 -11 -15 -10 hvcurveto
            205 callsubr
            return
          </CharString>
          <CharString index="198">
            -107 callgsubr
            304 -79 -95 334 callsubr
            -43 28 -46 43 -39 hvcurveto
            195 callsubr
            return
          </CharString>
          <CharString index="199">
            -213 -109 -157 -212 2 hvcurveto
            -211 1 98 -132 194 hhcurveto
            131 96 66 45 10 -6 13 -9 6 hvcurveto
            return
          </CharString>
          <CharString index="200">
            -16 -1 -20 -9 -16 -11 rrcurveto
            -113 40 88 -140 125 hhcurveto
            76 40 52 64 33 return
          </CharString>
          <CharString index="201">
            -28 callgsubr
            -96 return
          </CharString>
          <CharString index="202">
            vhcurveto
            10 6 13 19 6 13 rrcurveto
            57 return
          </CharString>
          <CharString index="203">
            22 -36 -47 17 -52 hhcurveto
            return
          </CharString>
          <CharString index="204">
            9 8 9 21 4 14 rrcurveto
            -39 20 -19 31 33 455 callgsubr
            -129 vlineto
            -70 -3 -23 -18 -31 vvcurveto
            -56 78 -61 24 -9 vhcurveto
            -2 5 8 430 callgsubr
            12 40 3 34 rrcurveto
            return
          </CharString>
          <CharString index="205">
            rmoveto
            302 callsubr
            43 23 35 37 25 19 -16 -29 -45 -37 -33 -52 -15 vhcurveto
            69 420 rmoveto
            163 hlineto
            34 return
          </CharString>
          <CharString index="206">
            50 -55 90 callgsubr
            return
          </CharString>
          <CharString index="207">
            330 callgsubr
            -103 -69 392 callsubr
            -34 vhcurveto
            return
          </CharString>
          <CharString index="208">
            hhcurveto
            -70 -22 48 139 hvcurveto
            return
          </CharString>
          <CharString index="209">
            222 callsubr
            -45 41 rrcurveto
            25 27 15 34 37 vvcurveto
            41 return
          </CharString>
          <CharString index="210">
            24 10 49 37 10 20 return
          </CharString>
          <CharString index="211">
            -42 -26 -27 -42 -32 22 -30 36 -4 hvcurveto
            -8 -26 -18 return
          </CharString>
          <CharString index="212">
            -15 vhcurveto
            24 -20 -32 28 -26 hhcurveto
            return
          </CharString>
          <CharString index="213">
            hlineto
            -79 576 318 callsubr
            37 85 81 22 45 45 hvcurveto
            2 52 rmoveto
            -91 -50 -60 -117 -119 52 -56 87 87 51 58 120 118 -48 56 -88 hvcurveto
            418 -343 rmoveto
            42 return
          </CharString>
          <CharString index="214">
            -113 -27 callgsubr
          </CharString>
          <CharString index="215">
            80 callsubr
            -78 53 -74 81 -26 hvcurveto
            -116 -67 8 -24 29 -37 18 -12 rlinecurve
            246 166 rlineto
            403 callsubr
            return
          </CharString>
          <CharString index="216">
            vvcurveto
            -45 36 -34 57 35 204 callsubr
            return
          </CharString>
          <CharString index="217">
            -46 -18 -15 45 -55 18 17 186 callsubr
            -16 hvcurveto
            return
          </CharString>
          <CharString index="218">
            -5 -6 -2 -12 -13 vvcurveto
            -44 81 -91 44 14 return
          </CharString>
          <CharString index="219">
            103 callsubr
            -22 return
          </CharString>
          <CharString index="220">
            47 rrcurveto
            14 17 1 19 hhcurveto
            return
          </CharString>
          <CharString index="221">
            236 callgsubr
            -58 -34 343 callsubr
            -124 23 return
          </CharString>
          <CharString index="222">
            vlineto
            -22 57 -19 43 vhcurveto
            249 337 callsubr
            60 60 hhcurveto
            36 30 -21 -51 -76 -68 -68 -47 117 callgsubr
          </CharString>
          <CharString index="223">
            vvcurveto
            463 callsubr
            148 106 83 51 56 47 vhcurveto
            -11 24 -24 27 -27 18 rrcurveto
            -41 -33 367 callsubr
            75 46 117 23 23 -1 -3 19 hvcurveto
            11 6 22 21 3 21 rrcurveto
            endchar
          </CharString>
          <CharString index="224">
            257 callsubr
            31 0 31 hhcurveto
            39 -1 37 -2 36 -4 rrcurveto
            -195 -31 callgsubr
          </CharString>
          <CharString index="225">
            -48 -108 -131 return
          </CharString>
          <CharString index="226">
            129 callsubr
            -47 -50 -67 -34 13 -31 24 342 callgsubr
            return
          </CharString>
          <CharString index="227">
            -90 callsubr
            -619 -107 callgsubr
            380 return
          </CharString>
          <CharString index="228">
            7 callsubr
            -30 -18 -37 return
          </CharString>
          <CharString index="229">
            rmoveto
            16 51 46 11 18 -45 52 -15 -14 -53 -43 -17 -14 43 -53 17 hvcurveto
            return
          </CharString>
          <CharString index="230">
            35 -10 -14 19 239 callsubr
            return
          </CharString>
          <CharString index="231">
            22 9 16 rrcurveto
            return
          </CharString>
          <CharString index="232">
            vvcurveto
            44 -6 43 -8 32 vhcurveto
            364 84 callsubr
            116 43 33 12 17 28 hvcurveto
            -111 -31 callgsubr
          </CharString>
          <CharString index="233">
            61 10 -15 -20 -24 -17 -8 -22 85 callgsubr
            return
          </CharString>
          <CharString index="234">
            339 callgsubr
            150 hhcurveto
            return
          </CharString>
          <CharString index="235">
            -109 hlineto
            25 -36 return
          </CharString>
          <CharString index="236">
            1 -19 hhcurveto
            -153 -83 -90 -105 147 callsubr
            return
          </CharString>
          <CharString index="237">
            hhcurveto
            -56 86 callgsubr
            -24 31 -18 17 return
          </CharString>
          <CharString index="238">
            37 callgsubr
            100 188 rmoveto
            return
          </CharString>
          <CharString index="239">
            -14 214 callsubr
            352 callsubr
            return
          </CharString>
          <CharString index="240">
            -116 192 callgsubr
            return
          </CharString>
          <CharString index="241">
            -31 -38 -10 -33 -39 return
          </CharString>
          <CharString index="242">
            -261 214 62 -61 callsubr
            return
          </CharString>
          <CharString index="243">
            rmoveto
            -57 -38 -37 -55 -52 36 -35 55 56 39 36 55 1 hvcurveto
            52 1 -37 36 -56 hhcurveto
            -2 -47 rmoveto
            27 17 -16 -27 -27 -17 -17 -27 -26 -17 17 27 27 17 16 26 hvcurveto
            endchar
          </CharString>
          <CharString index="244">
            401 callsubr
            32 -47 65 -22 vhcurveto
            -25 -26 -16 -33 -41 vvcurveto
            -91 78 -62 106 return
          </CharString>
          <CharString index="245">
            -38 -101 -95 87 -131 56 -73 209 callsubr
            -32 43 -68 105 74 vvcurveto
            57 return
          </CharString>
          <CharString index="246">
            87 callgsubr
            -96 -21 vhcurveto
            return
          </CharString>
          <CharString index="247">
            hvcurveto
            126 172 callsubr
            return
          </CharString>
          <CharString index="248">
            -28 hvcurveto
            -25 20 -23 36 37 vvcurveto
            52 34 24 return
          </CharString>
          <CharString index="249">
            -7 -34 -11 -30 -15 rrcurveto
            -40 12 return
          </CharString>
          <CharString index="250">
            17 89 callgsubr
            return
          </CharString>
          <CharString index="251">
            vhcurveto
            11 8 12 17 3 15 rrcurveto
            return
          </CharString>
          <CharString index="252">
            hlineto
            2 -15 -16 1 -18 hhcurveto
            return
          </CharString>
          <CharString index="253">
            75 -57 44 -68 -75 -47 283 callgsubr
            vhcurveto
            237 callgsubr
            return
          </CharString>
          <CharString index="254">
            -138 104 -93 150 131 90 72 94 75 -57 44 -68 -75 return
          </CharString>
          <CharString index="255">
            -20 146 callgsubr
            return
          </CharString>
          <CharString index="256">
            221 callsubr
            -130 43 -110 102 -24 vhcurveto
            -147 -102 166 callsubr
            rlinecurve
            251 197 rlineto
            -164 vlineto
            -22 57 -19 43 vhcurveto
            return
          </CharString>
          <CharString index="257">
            -62 423 529 rmoveto
            116 -80 callgsubr
            -529 -11 callsubr
            315 -72 hlineto
            2 -20 -54 0 -20 hhcurveto
            -124 -34 -46 -47 -39 24 return
          </CharString>
          <CharString index="258">
            -5 -6 -2 -12 -13 vvcurveto
            -44 159 callsubr
            return
          </CharString>
          <CharString index="259">
            110 callgsubr
            10 3 10 5 8 6 rrcurveto
            return
          </CharString>
          <CharString index="260">
            -29 callgsubr
            endchar
          </CharString>
          <CharString index="261">
            67 callsubr
            -15 33 -17 22 vhcurveto
            return
          </CharString>
          <CharString index="262">
            vlineto
            126 hmoveto
            -47 hlineto
            -1 240 -17 2 -29 -2 -19 -4 rlinecurve
            -174 -245 2 -14 6 -11 9 -12 rlinecurve
            144 -76 hlineto
            79 5 rlineto
            71 47 vlineto
            endchar
          </CharString>
          <CharString index="263">
            130 callsubr
            -35 -7 -34 -11 return
          </CharString>
          <CharString index="264">
            -144 -100 rcurveline
            166 callsubr
            253 198 rcurveline
            -163 vlineto
            -22 56 -19 return
          </CharString>
          <CharString index="265">
            95 40 callsubr
            return
          </CharString>
          <CharString index="266">
            80 -91 44 15 259 callsubr
            186 callgsubr
            return
          </CharString>
          <CharString index="267">
            -2 5 445 callgsubr
            15 2 6 8 hvcurveto
            return
          </CharString>
          <CharString index="268">
            16 51 46 10 280 callgsubr
            -17 return
          </CharString>
          <CharString index="269">
            3 173 callsubr
            return
          </CharString>
          <CharString index="270">
            420 rmoveto
            302 callgsubr
            return
          </CharString>
          <CharString index="271">
            hhcurveto
            134 callsubr
            hvcurveto
            return
          </CharString>
          <CharString index="272">
            10 -34 26 41 vvcurveto
            35 return
          </CharString>
          <CharString index="273">
            251 callsubr
            -11 return
          </CharString>
          <CharString index="274">
            16 14 46 40 vvcurveto
            return
          </CharString>
          <CharString index="275">
            875 rmoveto
            -29 -7 -22 -22 -35 -54 -25 57 -61 hhcurveto
            -53 -40 -46 -71 -12 hvcurveto
            33 -12 rlineto
            25 8 21 21 26 45 29 -52 69 hhcurveto
            65 34 45 75 11 hvcurveto
            return
          </CharString>
          <CharString index="276">
            71 vvcurveto
            39 -16 34 -23 26 vhcurveto
            180 hlineto
            245 callsubr
            -651 hlineto
            -34 15 394 callgsubr
            return
          </CharString>
          <CharString index="277">
            rmoveto
            -17 18 -39 52 68 vvcurveto
            52 20 37 43 47 24 -40 -31 11 vhcurveto
            42 16 rlineto
            63 -4 -42 70 -87 hhcurveto
            -76 -47 -54 -74 -105 74 -79 37 -23 hvcurveto
            endchar
          </CharString>
          <CharString index="278">
            vlineto
            36 -54 callgsubr
            return
          </CharString>
          <CharString index="279">
            30 68 80 1 92 rrcurveto
            94 -73 73 -96 return
          </CharString>
          <CharString index="280">
            30 225 callgsubr
            return
          </CharString>
          <CharString index="281">
            268 callgsubr
            56 -19 return
          </CharString>
          <CharString index="282">
            5 -166 -133 rcurveline
            6 -13 return
          </CharString>
          <CharString index="283">
            3 18 25 2 22 hhcurveto
            24 18 return
          </CharString>
          <CharString index="284">
            hhcurveto
            -22 -22 2 2 -20 hvcurveto
            16 -18 -22 10 -26 171 callgsubr
            46 12 99 hvcurveto
            53 18 -3 14 hhcurveto
            16 28 34 21 hvcurveto
            104 return
          </CharString>
          <CharString index="285">
            -17 rrcurveto
            21 -24 100 callsubr
            return
          </CharString>
          <CharString index="286">
            -107 callgsubr
            147 437 callgsubr
            return
          </CharString>
          <CharString index="287">
            -105 callgsubr
            326 -88 hlineto
            167 callgsubr
            -133 -101 -79 -124 return
          </CharString>
          <CharString index="288">
            -32 -38 -10 -32 -38 return
          </CharString>
          <CharString index="289">
            40 18 24 34 return
          </CharString>
          <CharString index="290">
            hhcurveto
            -55 -29 31 39 64 76 22 61 13 hvcurveto
            -7 27 -19 33 -16 16 -24 -12 -38 -16 -22 -4 rrcurveto
            -29 2 -39 23 52 vvcurveto
            21 7 23 12 15 vhcurveto
            return
          </CharString>
          <CharString index="291">
            394 callgsubr
            -70 return
          </CharString>
          <CharString index="292">
            6 204 callgsubr
            return
          </CharString>
          <CharString index="293">
            54 252 callgsubr
            return
          </CharString>
          <CharString index="294">
            vvcurveto
            -70 45 -52 67 -21 vhcurveto
            -136 -69 249 callgsubr
            306 177 rlineto
            -119 -106 callsubr
          </CharString>
          <CharString index="295">
            -101 301 callgsubr
            209 callsubr
            -31 43 -69 104 return
          </CharString>
          <CharString index="296">
            196 634 -196 hlineto
            236 -185 rmoveto
            196 185 -196 hlineto
            return
          </CharString>
          <CharString index="297">
            53 -72 -71 38 hvcurveto
            48 -51 -63 38 -48 hhcurveto
            -51 -56 -27 -22 -23 hvcurveto
            9 -27 return
          </CharString>
          <CharString index="298">
            -48 68 -29 144 callsubr
            return
          </CharString>
          <CharString index="299">
            -16 rlinecurve
            136 -124 28 return
          </CharString>
          <CharString index="300">
            179 63 105 127 vhcurveto
            return
          </CharString>
          <CharString index="301">
            44 -25 29 -5 return
          </CharString>
          <CharString index="302">
            -35 -28 -23 -40 -49 vvcurveto
            -147 188 -80 140 -35 vhcurveto
            312 callgsubr
            return
          </CharString>
          <CharString index="303">
            rmoveto
            -27 7 -16 0 -28 -7 -136 -124 rcurveline
            9 -16 8 -9 15 -9 138 87 rcurveline
            456 callgsubr
            endchar
          </CharString>
          <CharString index="304">
            52 149 hvcurveto
            return
          </CharString>
          <CharString index="305">
            -168 233 130 145 24 1 45 3 -6 45 1 10 rlinecurve
            -171 hlineto
            -44 4 447 callgsubr
            58 -6 -158 -183 rlineto
            return
          </CharString>
          <CharString index="306">
            -142 hlineto
            -44 -32 -11 458 callgsubr
            76 -91 49 14 17 6 7 8 vhcurveto
            17 16 13 37 53 vvcurveto
            215 return
          </CharString>
          <CharString index="307">
            rmoveto
            23 -6 15 0 21 6 26 208 rcurveline
            -39 7 -35 -3 -31 -10 rrcurveto
            return
          </CharString>
          <CharString index="308">
            -18 -21 3 -12 hhcurveto
            -59 -33 88 callsubr
            232 -23 hvcurveto
            return
          </CharString>
          <CharString index="309">
            -35 18 -57 87 -37 vhcurveto
            7 5 18 20 3 10 rrcurveto
            return
          </CharString>
          <CharString index="310">
            408 callsubr
            105 74 379 callgsubr
            return
          </CharString>
          <CharString index="311">
            34 14 446 callgsubr
            10 -3 23 -6 4 rrcurveto
            -9 return
          </CharString>
          <CharString index="312">
            -5 -6 -2 -12 -13 252 callsubr
            return
          </CharString>
          <CharString index="313">
            -10 -4 -21 -30 -5 336 callsubr
            return
          </CharString>
          <CharString index="314">
            53 91 callgsubr
            return
          </CharString>
          <CharString index="315">
            16 186 callsubr
            -15 return
          </CharString>
          <CharString index="316">
            hvcurveto
            13 3 30 23 11 14 rrcurveto
            return
          </CharString>
          <CharString index="317">
            -43 4 -48 -10 1 hvcurveto
            return
          </CharString>
          <CharString index="318">
            vvcurveto
            56 -47 97 -75 vhcurveto
            -57 -105 -39 -23 hhcurveto
            -13 1 callgsubr
            return
          </CharString>
          <CharString index="319">
            352 callgsubr
            51 hvcurveto
            46 87 39 34 hhcurveto
            22 12 -12 -22 -52 -58 390 callgsubr
            return
          </CharString>
          <CharString index="320">
            -29 -72 -36 -83 -17 hvcurveto
            -100 14 69 -121 154 hhcurveto
            54 41 16 17 29 hvcurveto
            -77 -106 callsubr
          </CharString>
          <CharString index="321">
            -56 -46 -18 -15 return
          </CharString>
          <CharString index="322">
            49 -80 86 -105 53 -51 25 callgsubr
            return
          </CharString>
          <CharString index="323">
            282 callgsubr
            -63 -29 -31 -74 -21 vhcurveto
            -24 1 -24 0 -24 1 rrcurveto
            652 191 -90 callsubr
            return
          </CharString>
          <CharString index="324">
            hhcurveto
            -127 -96 -38 -101 -94 86 -130 56 -72 434 callgsubr
            103 73 vvcurveto
            57 44 28 111 return
          </CharString>
          <CharString index="325">
            464 callgsubr
            54 callgsubr
            -92 return
          </CharString>
          <CharString index="326">
            -5 60 callsubr
            15 259 callsubr
            16 return
          </CharString>
          <CharString index="327">
            105 -37 62 33 4 28 10 21 18 rrcurveto
            return
          </CharString>
          <CharString index="328">
            -107 callgsubr
            89 -103 hlineto
            return
          </CharString>
          <CharString index="329">
            112 callsubr
            38 -43 42 return
          </CharString>
          <CharString index="330">
            vlineto
            372 callsubr
            return
          </CharString>
          <CharString index="331">
            338 callsubr
            54 412 callgsubr
            return
          </CharString>
          <CharString index="332">
            25 50 69 81 28 64 hvcurveto
            return
          </CharString>
          <CharString index="333">
            73 -23 323 callgsubr
            return
          </CharString>
          <CharString index="334">
            -50 -68 vvcurveto
            -145 132 -90 219 -44 vhcurveto
            8 15 11 28 4 18 rrcurveto
            -212 45 -65 68 88 vvcurveto
            110 104 44 return
          </CharString>
          <CharString index="335">
            69 -126 154 hhcurveto
            53 40 16 16 29 hvcurveto
            return
          </CharString>
          <CharString index="336">
            99 79 vvcurveto
            62 41 23 return
          </CharString>
          <CharString index="337">
            8 11 13 8 13 rlinecurve
            return
          </CharString>
          <CharString index="338">
            -3 10 hhcurveto
            11 return
          </CharString>
          <CharString index="339">
            -21 -40 vvcurveto
            -36 45 -69 40 -31 vhcurveto
            -3 5 10 -4 438 callgsubr
            53 4 47 rrcurveto
            14 return
          </CharString>
          <CharString index="340">
            rmoveto
            -8 vlineto
            -177 -187 51 -42 244 207 5 17 0 18 -5 18 rlinecurve
            -244 207 -47 -42 rlineto
            endchar
          </CharString>
          <CharString index="341">
            7 -21 37 -47 18 301 callsubr
            131 -107 12 7 return
          </CharString>
          <CharString index="342">
            -34 18 -21 vhcurveto
            return
          </CharString>
          <CharString index="343">
            vvcurveto
            -44 35 -34 58 34 34 14 20 14 vhcurveto
            2 10 361 callsubr
            return
          </CharString>
          <CharString index="344">
            -144 -100 rcurveline
            7 -24 31 -37 18 -11 252 197 rcurveline
            -162 -92 callsubr
          </CharString>
          <CharString index="345">
            33 68 32 10 26 17 20 hvcurveto
            return
          </CharString>
          <CharString index="346">
            hvcurveto
            13 51 rlineto
            36 -29 -55 22 return
          </CharString>
          <CharString index="347">
            42 12 19 33 return
          </CharString>
          <CharString index="348">
            -52 callgsubr
            56 hlineto
            -8 -15 -5 -18 -20 vvcurveto
            -55 33 -49 62 -27 vhcurveto
            -27 -25 -11 -30 -36 vvcurveto
            return
          </CharString>
          <CharString index="349">
            3 189 386 rmoveto
            34 38 31 18 43 hhcurveto
            89 39 -78 -110 -96 -27 -98 -99 -49 -41 23 20 -24 hvcurveto
            return
          </CharString>
          <CharString index="350">
            -105 53 -51 17 6 33 -14 callsubr
            return
          </CharString>
          <CharString index="351">
            5 callsubr
            16 54 return
          </CharString>
          <CharString index="352">
            240 -4 callsubr
            return
          </CharString>
          <CharString index="353">
            -44 -69 callsubr
            return
          </CharString>
          <CharString index="354">
            14 27 30 21 hvcurveto
            119 return
          </CharString>
          <CharString index="355">
            hhcurveto
            -60 -51 464 callsubr
            return
          </CharString>
          <CharString index="356">
            42 304 callgsubr
            return
          </CharString>
          <CharString index="357">
            -21 -18 -3 -5 -17 vhcurveto
            return
          </CharString>
          <CharString index="358">
            8 -24 30 -37 18 return
          </CharString>
          <CharString index="359">
            vvcurveto
            -44 76 -91 return
          </CharString>
          <CharString index="360">
            2 157 -28 5 -36 -4 -24 -9 rlinecurve
            2 -149 -144 12 -9 -20 9 -43 13 -20 rlinecurve
            132 12 return
          </CharString>
          <CharString index="361">
            -103 hlineto
            -148 55 -121 134 227 callgsubr
            vhcurveto
            19 callgsubr
            258 vlineto
            return
          </CharString>
          <CharString index="362">
            58 callsubr
            363 84 callsubr
            return
          </CharString>
          <CharString index="363">
            -29 -33 -1 vhcurveto
            -20 12 -15 35 -1 vhcurveto
            23 2 12 30 39 hhcurveto
            26 15 -14 -22 -53 -66 -14 -30 hvcurveto
            return
          </CharString>
          <CharString index="364">
            159 callgsubr
            7 vhcurveto
            143 callsubr
            return
          </CharString>
          <CharString index="365">
            hlineto
            23 -45 13 -47 -35 vvcurveto
            -15 -2 -13 -6 -10 vhcurveto
            3 return
          </CharString>
          <CharString index="366">
            16 4 8 8 vhcurveto
            return
          </CharString>
          <CharString index="367">
            223 callgsubr
            46 12 99 hvcurveto
            47 24 -3 14 hhcurveto
            15 29 34 21 hvcurveto
            return
          </CharString>
          <CharString index="368">
            -35 -64 -28 -64 hhcurveto
            -82 -41 35 60 77 71 32 92 hvcurveto
            25 19 -3 10 hhcurveto
            20 27 34 20 hvcurveto
            return
          </CharString>
          <CharString index="369">
            vlineto
            73 callsubr
            return
          </CharString>
          <CharString index="370">
            vvcurveto
            41 23 20 29 43 13 -38 -53 vhcurveto
            return
          </CharString>
          <CharString index="371">
            -33 -38 -13 7 -18 9 -13 vhcurveto
            -9 -20 return
          </CharString>
          <CharString index="372">
            hvcurveto
            -8 -10 -4 -13 -17 vvcurveto
            -32 18 -39 return
          </CharString>
          <CharString index="373">
            vlineto
            245 callgsubr
            return
          </CharString>
          <CharString index="374">
            -69 50 -48 226 callsubr
            return
          </CharString>
          <CharString index="375">
            -14 -27 323 callsubr
            return
          </CharString>
          <CharString index="376">
            18 350 callsubr
            return
          </CharString>
          <CharString index="377">
            18 -32 -42 15 -52 hhcurveto
            return
          </CharString>
          <CharString index="378">
            54 449 callgsubr
            55 return
          </CharString>
          <CharString index="379">
            hlineto
            22 -43 12 15 callgsubr
            -3 -14 -5 -11 vhcurveto
            4 -10 406 callsubr
            return
          </CharString>
          <CharString index="380">
            8 7 10 21 3 15 rrcurveto
            -41 22 -41 32 56 vvcurveto
            35 16 20 32 44 15 -39 -74 1 vhcurveto
            return
          </CharString>
          <CharString index="381">
            hhcurveto
            -61 -62 -22 -22 -26 hvcurveto
            10 -33 29 -39 14 -15 rrcurveto
            29 33 49 28 41 hhcurveto
            50 21 -39 return
          </CharString>
          <CharString index="382">
            -141 84 -83 116 114 63 81 120 vhcurveto
            return
          </CharString>
          <CharString index="383">
            hlineto
            297 callgsubr
            return
          </CharString>
          <CharString index="384">
            -28 -38 -40 53 -30 56 -16 hvcurveto
            return
          </CharString>
          <CharString index="385">
            29 vvcurveto
            34 -8 53 -12 42 vhcurveto
            return
          </CharString>
          <CharString index="386">
            67 vvcurveto
            42 -28 28 -40 vhcurveto
            return
          </CharString>
          <CharString index="387">
            rrcurveto
            1 14 17 0 19 hhcurveto
            return
          </CharString>
          <CharString index="388">
            -5 181 callgsubr
            -44 return
          </CharString>
          <CharString index="389">
            vlineto
            53 410 callgsubr
            return
          </CharString>
          <CharString index="390">
            rlinecurve
            160 121 return
          </CharString>
          <CharString index="391">
            -40 -63 -34 -49 hhcurveto
            return
          </CharString>
          <CharString index="392">
            313 callsubr
            -73 6 rlineto
            return
          </CharString>
          <CharString index="393">
            -9 -15 -4 -18 -22 vvcurveto
            -56 31 -47 66 -22 vhcurveto
            -25 -26 -16 -33 -41 vvcurveto
            -91 78 -62 106 return
          </CharString>
          <CharString index="394">
            176 callgsubr
            6 9 -3 11 hhcurveto
            10 12 3 7 9 hvcurveto
            14 12 16 return
          </CharString>
          <CharString index="395">
            20 -5 18 16 vvcurveto
            23 13 15 98 vhcurveto
            31 54 -2 23 hhcurveto
            14 27 32 21 hvcurveto
            endchar
          </CharString>
          <CharString index="396">
            hvcurveto
            10 230 callgsubr
            endchar
          </CharString>
          <CharString index="397">
            7 5 17 20 4 10 rrcurveto
            -12 172 callgsubr
            30 -24 -59 return
          </CharString>
          <CharString index="398">
            vvcurveto
            73 31 60 74 47 22 -23 -15 14 vhcurveto
            26 19 rlineto
            46 -12 -41 50 -75 hhcurveto
            -81 return
          </CharString>
          <CharString index="399">
            -2 -27 hhcurveto
            -30 -29 3 5 -25 hvcurveto
            7 22 454 callsubr
            return
          </CharString>
          <CharString index="400">
            -8 rrcurveto
            -2 6 7 430 callgsubr
            13 56 3 35 rrcurveto
            return
          </CharString>
          <CharString index="401">
            -59 -118 -119 52 -56 87 87 51 58 121 117 -48 56 -88 hvcurveto
            endchar
          </CharString>
          <CharString index="402">
            529 rmoveto
            153 -80 callgsubr
            return
          </CharString>
          <CharString index="403">
            18 -34 223 callgsubr
            return
          </CharString>
          <CharString index="404">
            -20 -8 -18 hvcurveto
            3 -23 21 -57 6 -9 rrcurveto
            8 return
          </CharString>
          <CharString index="405">
            277 callsubr
            35 -54 32 -82 return
          </CharString>
          <CharString index="406">
            4 27 422 callgsubr
            57 -10 53 hhcurveto
            return
          </CharString>
          <CharString index="407">
            -101 -71 281 callgsubr
            return
          </CharString>
          <CharString index="408">
            -12 283 callsubr
            return
          </CharString>
          <CharString index="409">
            -9 18 -6 21 21 vvcurveto
            return
          </CharString>
          <CharString index="410">
            vlineto
            126 -82 46 -81 return
          </CharString>
          <CharString index="411">
            34 340 callgsubr
            return
          </CharString>
          <CharString index="412">
            248 rmoveto
            -30 return
          </CharString>
          <CharString index="413">
            -85 hlineto
            72 callsubr
            -17 -45 60 -82 hhcurveto
            return
          </CharString>
          <CharString index="414">
            34 17 24 28 18 16 -10 -24 -27 -29 -25 -41 -13 vhcurveto
            -5 12 -4 14 15 vvcurveto
            return
          </CharString>
          <CharString index="415">
            -86 -48 -108 -133 127 -110 84 -60 hvcurveto
            14 12 16 124 callsubr
            return
          </CharString>
          <CharString index="416">
            hhcurveto
            55 41 19 24 34 hvcurveto
            -109 -31 callgsubr
          </CharString>
          <CharString index="417">
            29 -21 -42 -55 return
          </CharString>
          <CharString index="418">
            -2 5 8 -1 7 hhcurveto
            14 14 2 6 8 hvcurveto
            19 12 13 56 2 35 rrcurveto
            return
          </CharString>
          <CharString index="419">
            451 callgsubr
            112 248 callgsubr
            return
          </CharString>
          <CharString index="420">
            -28 callsubr
            211 -16 callgsubr
            return
          </CharString>
          <CharString index="421">
            hhcurveto
            74 51 44 78 60 -31 56 -28 32 hvcurveto
            return
          </CharString>
          <CharString index="422">
            hlineto
            44 -42 callsubr
            -72 6 rlineto
            -1 return
          </CharString>
          <CharString index="423">
            -94 -100 -55 -124 -113 85 -87 120 return
          </CharString>
          <CharString index="424">
            -85 callgsubr
            vlineto
            return
          </CharString>
          <CharString index="425">
            rmoveto
            42 22 -43 -80 -85 -24 -40 -41 -40 -26 return
          </CharString>
          <CharString index="426">
            66 91 vvcurveto
            57 31 42 54 return
          </CharString>
          <CharString index="427">
            -96 88 -132 55 return
          </CharString>
          <CharString index="428">
            -25 -2 -2 -15 hvcurveto
            return
          </CharString>
          <CharString index="429">
            rrcurveto
            108 10 23 return
          </CharString>
          <CharString index="430">
            -18 vhcurveto
            3 -10 return
          </CharString>
          <CharString index="431">
            -3 -53 hvcurveto
            -65 return
          </CharString>
          <CharString index="432">
            rmoveto
            26 18 -16 -27 -27 -18 -17 -26 -27 -17 17 27 27 17 16 27 hvcurveto
            return
          </CharString>
          <CharString index="433">
            -13 callgsubr
            -91 387 callgsubr
            -12 1 -12 2 return
          </CharString>
          <CharString index="434">
            25 10 24 20 28 hhcurveto
            50 -1 32 -52 77 -2 72 -1 38 44 13 75 return
          </CharString>
          <CharString index="435">
            371 callgsubr
            -75 278 callgsubr
            return
          </CharString>
          <CharString index="436">
            32 68 32 10 26 18 20 hvcurveto
            return
          </CharString>
          <CharString index="437">
            -101 146 305 callgsubr
            return
          </CharString>
          <CharString index="438">
            rmoveto
            -16 -28 -31 -9 -28 hhcurveto
            -45 return
          </CharString>
          <CharString index="439">
            rmoveto
            14 27 31 21 hvcurveto
            119 return
          </CharString>
          <CharString index="440">
            385 callgsubr
            -69 return
          </CharString>
          <CharString index="441">
            hlineto
            -130 -27 -51 -47 return
          </CharString>
          <CharString index="442">
            -52 74 -64 29 -1 rrcurveto
            return
          </CharString>
          <CharString index="443">
            -17 rrcurveto
            21 -24 return
          </CharString>
          <CharString index="444">
            vlineto
            54 37 57 return
          </CharString>
          <CharString index="445">
            48 -80 86 -105 return
          </CharString>
          <CharString index="446">
            rrcurveto
            -20 41 57 return
          </CharString>
          <CharString index="447">
            -55 -23 -45 -102 -70 75 128 -81 hvcurveto
            -12 -5 -31 -21 -5 -10 rrcurveto
            return
          </CharString>
          <CharString index="448">
            hvcurveto
            -12 -4 -31 -22 -5 -9 rrcurveto
            -87 38 121 -166 163 hhcurveto
            return
          </CharString>
          <CharString index="449">
            338 rmoveto
            -106 -49 -25 -36 -63 -29 73 86 vhcurveto
            163 177 vlineto
            return
          </CharString>
          <CharString index="450">
            88 callsubr
            232 -23 hvcurveto
            12 19 13 35 4 27 return
          </CharString>
          <CharString index="451">
            5 -23 114 callgsubr
            18 -39 return
          </CharString>
          <CharString index="452">
            53 4 46 280 callsubr
            return
          </CharString>
          <CharString index="453">
            hlineto
            372 callsubr
            return
          </CharString>
          <CharString index="454">
            119 callgsubr
            122 206 vlineto
            return
          </CharString>
          <CharString index="455">
            -21 vhcurveto
            88 -196 hlineto
            3 -56 -91 1 return
          </CharString>
          <CharString index="456">
            28 -46 20 -45 30 -56 24 10 49 37 return
          </CharString>
          <CharString index="457">
            -45 53 -15 -14 -53 return
          </CharString>
          <CharString index="458">
            rmoveto
            386 callgsubr
            return
          </CharString>
          <CharString index="459">
            45 -55 18 17 54 return
          </CharString>
          <CharString index="460">
            -10 1 -11 hhcurveto
            return
          </CharString>
          <CharString index="461">
            -56 -21 -19 -31 hvcurveto
            9 -31 28 -51 7 -8 rrcurveto
            12 16 53 34 return
          </CharString>
          <CharString index="462">
            -8 -29 -23 -22 -34 1 -55 1 -23 57 -61 1 -53 1 -41 -45 return
          </CharString>
          <CharString index="463">
            vhcurveto
            -7 -22 -5 -21 -2 -16 10 -11 45 -25 29 -5 rrcurveto
            68 9 return
          </CharString>
          <CharString index="464">
            -11 rrcurveto
            -179 368 callsubr
            45 78 60 return
          </CharString>
          <CharString index="465">
            -82 hhcurveto
            -75 -85 return
          </CharString>
          <CharString index="466">
            -17 451 callsubr
            67 20 52 hhcurveto
            return
          </CharString>
          <CharString index="467">
            -275 hlineto
            -43 -36 -55 -26 -53 hhcurveto
            -52 -44 25 50 69 81 return
          </CharString>
          <CharString index="468">
            -3 23 -6 4 rrcurveto
            -9 -11 -19 -13 -24 hhcurveto
            -25 -19 16 33 return
          </CharString>
          <CharString index="469">
            hlineto
            -35 15 -32 17 -22 vhcurveto
            106 hlineto
            -17 -18 -14 -31 -33 vvcurveto
            return
          </CharString>
          <CharString index="470">
            -229 396 callgsubr
            return
          </CharString>
          <CharString index="471">
            -56 callsubr
            179 hlineto
            return
          </CharString>
          <CharString index="472">
            80 105 vvcurveto
            104 -73 72 -95 -55 154 callgsubr
          </CharString>
          <CharString index="473">
            hvcurveto
            402 callgsubr
            return
          </CharString>
          <CharString index="474">
            -62 -55 -95 hhcurveto
            -74 -71 36 88 92 return
          </CharString>
          <CharString index="475">
            127 callsubr
            75 51 return
          </CharString>
          <CharString index="476">
            420 rmoveto
            424 callsubr
            return
          </CharString>
          <CharString index="477">
            -229 hlineto
            -44 -31 -11 -15 -11 hvcurveto
            return
          </CharString>
          <CharString index="478">
            -107 callgsubr
            326 return
          </CharString>
          <CharString index="479">
            239 12 callsubr
            return
          </CharString>
          <CharString index="480">
            hhcurveto
            119 303 callsubr
            return
          </CharString>
          <CharString index="481">
            hhcurveto
            -69 -44 -43 -50 -27 hvcurveto
            return
          </CharString>
          <CharString index="482">
            hmoveto
            -72 callsubr
            return
          </CharString>
          <CharString index="483">
            6 34 24 10 19 -54 48 return
          </CharString>
          <CharString index="484">
            40 90 39 35 hhcurveto
            21 return
          </CharString>
          <CharString index="485">
            -31 -16 -22 -19 3 -27 return
          </CharString>
          <CharString index="486">
            vvcurveto
            -89 78 -70 135 return
          </CharString>
          <CharString index="487">
            hhcurveto
            28 19 -7 -24 -40 return
          </CharString>
          <CharString index="488">
            -32 18 -39 17 -29 return
          </CharString>
          <CharString index="489">
            -104 15 71 -125 return
          </CharString>
          <CharString index="490">
            194 callgsubr
            -31 return
          </CharString>
          <CharString index="491">
            -52 hvcurveto
            -66 -4 -38 return
          </CharString>
          <CharString index="492">
            -57 -50 -33 hvcurveto
            return
          </CharString>
          <CharString index="493">
            rrcurveto
            -50 38 -11 return
          </CharString>
          <CharString index="494">
            29 29 vvcurveto
            45 return
          </CharString>
          <CharString index="495">
            441 callgsubr
            -60 42 -54 69 -25 vhcurveto
            -18 return
          </CharString>
          <CharString index="496">
            -45 30 -57 rlinecurve
            222 callsubr
            return
          </CharString>
          <CharString index="497">
            338 callsubr
            53 -51 17 376 callsubr
            return
          </CharString>
          <CharString index="498">
            64 -39 42 -67 28 vhcurveto
            45 30 31 46 85 vvcurveto
            endchar
          </CharString>
          <CharString index="499">
            159 125 return
          </CharString>
          <CharString index="500">
            14 rrcurveto
            -34 47 return
          </CharString>
          <CharString index="501">
            2 -36 -46 17 callsubr
            return
          </CharString>
          <CharString index="502">
            -96 callsubr
            -637 -107 callgsubr
            return
          </CharString>
          <CharString index="503">
            rmoveto
            -355 -627 rlineto
            89 hlineto
            355 627 rlineto
            return
          </CharString>
          <CharString index="504">
            282 callgsubr
            -70 -37 413 callgsubr
            return
          </CharString>
          <CharString index="505">
            hlineto
            88 -35 -105 188 -153 hhcurveto
            -48 -77 -20 -8 return
          </CharString>
          <CharString index="506">
            hvcurveto
            -157 -76 -31 -16 -18 -18 4 -27 rlinecurve
            -52 5 return
          </CharString>
          <CharString index="507">
            -171 43 299 rmoveto
            -78 312 78 vlineto
            endchar
          </CharString>
          <CharString index="508">
            hlineto
            -9 -15 -4 -18 -22 vvcurveto
            -56 return
          </CharString>
          <CharString index="509">
            -112 vlineto
            -21 55 -21 45 vhcurveto
            return
          </CharString>
          <CharString index="510">
            -112 vlineto
            -22 -32 callsubr
            return
          </CharString>
          <CharString index="511">
            441 callsubr
            -3 return
          </CharString>
          <CharString index="512">
            hhcurveto
            -31 1 -30 0 -26 -1 rrcurveto
            return
          </CharString>
          <CharString index="513">
            -20 5 -23 182 callgsubr
            return
          </CharString>
          <CharString index="514">
            -31 -36 379 callsubr
            return
          </CharString>
          <CharString index="515">
            14 rrcurveto
            -32 43 -68 return
          </CharString>
          <CharString index="516">
            0 30 hhcurveto
            40 -1 return
          </CharString>
          <CharString index="517">
            -31 -85 -18 hvcurveto
            -101 return
          </CharString>
          <CharString index="518">
            12 -16 vhcurveto
            -12 -21 return
          </CharString>
          <CharString index="519">
            52 338 callgsubr
            return
          </CharString>
          <CharString index="520">
            25 -36 -48 22 return
          </CharString>
          <CharString index="521">
            13 21 12 33 5 27 -125 23 -144 50 return
          </CharString>
          <CharString index="522">
            529 rmoveto
            161 -80 callgsubr
            return
          </CharString>
          <CharString index="523">
            -43 -32 -11 -15 -10 hvcurveto
            -5 -6 -2 -12 -13 vvcurveto
            return
          </CharString>
          <CharString index="524">
            305 callsubr
            -26 -42 -26 -66 460 callgsubr
            return
          </CharString>
          <CharString index="525">
            188 rmoveto
            344 -45 callsubr
            return
          </CharString>
          <CharString index="526">
            rmoveto
            -71 397 71 vlineto
            return
          </CharString>
          <CharString index="527">
            42 33 260 callgsubr
            return
          </CharString>
          <CharString index="528">
            463 callsubr
            147 return
          </CharString>
          <CharString index="529">
            2 -8 353 callsubr
            return
          </CharString>
          <CharString index="530">
            hhcurveto
            -126 -97 -38 -101 return
          </CharString>
          <CharString index="531">
            413 callsubr
            -55 hhcurveto
            return
          </CharString>
          <CharString index="532">
            rmoveto
            43 24 -26 -35 -51 return
          </CharString>
          <CharString index="533">
            -102 86 -127 return
          </CharString>
          <CharString index="534">
            -1 8 hhcurveto
            13 return
          </CharString>
          <CharString index="535">
            21 7 49 35 return
          </CharString>
          <CharString index="536">
            hhcurveto
            -84 -90 -47 -110 -93 76 -91 119 return
          </CharString>
          <CharString index="537">
            336 -73 callsubr
            return
          </CharString>
          <CharString index="538">
            -1 -8 -9 0 -8 hhcurveto
            -90 -36 45 56 56 return
          </CharString>
          <CharString index="539">
            41 40 -31 32 -41 -40 -32 -32 -40 -41 32 return
          </CharString>
          <CharString index="540">
            6 -21 37 -46 19 301 callsubr
            return
          </CharString>
          <CharString index="541">
            rrcurveto
            94 hlineto
            -28 -18 -17 -27 -47 vvcurveto
            -83 86 return
          </CharString>
          <CharString index="542">
            hhcurveto
            47 35 -21 -35 41 hvcurveto
            -236 -150 return
          </CharString>
          <CharString index="543">
            hhcurveto
            -49 -46 29 71 78 59 40 70 46 37 return
          </CharString>
          <CharString index="544">
            23 hvcurveto
            15 5 14 5 15 6 rrcurveto
            52 -12 return
          </CharString>
          <CharString index="545">
            20 26 hhcurveto
            44 -2 29 -52 69 -1 65 -1 return
          </CharString>
          <CharString index="546">
            14 -12 29 -1 7 7 18 18 20 48 10 return
          </CharString>
          <CharString index="547">
            3 11 5 8 6 rrcurveto
            33 return
          </CharString>
          <CharString index="548">
            -44 -45 -2 324 callsubr
            return
          </CharString>
          <CharString index="549">
            rmoveto
            -283 -65 283 hlineto
            return
          </CharString>
          <CharString index="550">
            -34 -48 -14 6 -34 return
          </CharString>
          <CharString index="551">
            -44 -50 -28 hvcurveto
            34 return
          </CharString>
          <CharString index="552">
            1 hvcurveto
            73 -6 rlineto
            return
          </CharString>
          <CharString index="553">
            12 -16 -22 -25 return
          </CharString>
          <CharString index="554">
            55 -28 33 hvcurveto
            return
          </CharString>
          <CharString index="555" raw="1">
            f72a1bd5 0b  
          </CharString>
          <CharString index="556">
            -2 6 445 callgsubr
            14 2 6 return
          </CharString>
          <CharString index="557">
            -44 40 rrcurveto
            23 27 12 34 37 vvcurveto
            40 return
          </CharString>
          <CharString index="558">
            hvcurveto
            3 -23 21 421 callgsubr
            return
          </CharString>
          <CharString index="559">
            145 -13 9 20 -9 43 -13 20 rlinecurve
            return
          </CharString>
          <CharString index="560">
            10 callgsubr
            226 return
          </CharString>
          <CharString index="561">
            4 25 278 callsubr
            return
          </CharString>
          <CharString index="562">
            109 rmoveto
            302 callsubr
            43 return
          </CharString>
          <CharString index="563">
            25 26 -18 19 -26 -25 -19 -19 -26 vhcurveto
            return
          </CharString>
          <CharString index="564">
            226 callsubr
            4 14 rrcurveto
            return
          </CharString>
          <CharString index="565">
            rcurveline
            -15 1 rlineto
            1 -8 -8 1 -8 hhcurveto
            return
          </CharString>
          <CharString index="566">
            -43 -25 -23 -30 vhcurveto
            endchar
          </CharString>
          <CharString index="567">
            239 hmoveto
            34 return
          </CharString>
          <CharString index="568">
            -48 56 -16 hvcurveto
            return
          </CharString>
          <CharString index="569">
            51 45 78 60 return
          </CharString>
          <CharString index="570">
            -126 103 -98 return
          </CharString>
          <CharString index="571">
            19 52 -36 hvcurveto
            return
          </CharString>
        <CharString name=".notdef">
          185 166 hmoveto
          422 701 -422 hlineto
          73 -68 rmoveto
          277 -565 -277 hlineto
          endchar
        </CharString>
        <CharString name="A">
          72 226 281 -96 callgsubr
        </CharString>
        <CharString name="AE">
          320 305 359 rmoveto
          124 261 6 -1 rlineto
          -260 vlineto
          353 -288 rmoveto
          -248 -8 rlineto
          242 vlineto
          185 -10 5 28 0 36 -6 25 rlinecurve
          -184 -18 rlineto
          255 vlineto
          228 -4 9 -116 rlineto
          10 -1 47 -4 39 vvcurveto
          148 vlineto
          -441 -1 -303 -621 -39 -63 callsubr
          191 hlineto
          44 -42 callsubr
          -78 6 112 236 rlineto
          159 -238 hlineto
          245 callgsubr
          493 153 hlineto
          40 -47 -5 -10 -1 vhcurveto
          endchar
        </CharString>
        <CharString name="Aacute">
          72 485 840 rmoveto
          -11 21 -33 28 callgsubr
          -55 -450 -96 callgsubr
        </CharString>
        <CharString name="Abreve">
          72 452 895 rmoveto
          -28 -12 -26 -52 -87 hhcurveto
          -79 -37 53 28 -11 hvcurveto
          -35 -19 rlineto
          -66 8 50 -73 103 hhcurveto
          101 51 73 66 9 hvcurveto
          -261 -596 -96 callgsubr
        </CharString>
        <CharString name="Acircumflex">
          72 324 808 rmoveto
          137 -86 15 43 callgsubr
          39 -441 -96 callgsubr
        </CharString>
        <CharString name="Adieresis">
          72 411 753 rmoveto
          37 27 28 35 34 -27 29 -37 -34 -28 -29 -34 -35 28 -28 34 hvcurveto
          -179 hmoveto
          35 27 28 35 34 -27 29 -35 -36 -29 -29 -34 -35 29 -28 36 hvcurveto
          -6 -472 -96 callgsubr
        </CharString>
        <CharString name="Agrave">
          72 255 898 63 callsubr
          -196 -484 -96 callgsubr
        </CharString>
        <CharString name="Amacron">
          72 466 826 442 callsubr
          -240 -480 -96 callgsubr
        </CharString>
        <CharString name="Aogonek">
          72 226 281 rmoveto
          81 276 77 -276 rlineto
          175 -218 rmoveto
          -190 619 -33 3 -20 1 -34 -4 rlinecurve
          -192 -621 -39 -63 callsubr
          191 hlineto
          44 -42 callsubr
          -79 6 rlineto
          0 vlineto
          46 158 rlineto
          192 hlineto
          44 -160 rlineto
          0 -18 callgsubr
          154 hlineto
          -33 -23 -24 -34 -43 236 callsubr
          36 18 26 34 18 hvcurveto
          42 1 -4 46 -1 10 rrcurveto
          endchar
        </CharString>
        <CharString name="Aring">
          72 328 861 325 callsubr
          -2 -132 rmoveto
          56 38 36 55 1 hvcurveto
          52 1 -36 36 -56 hhcurveto
          -57 -39 -37 -55 -52 37 -35 55 hvcurveto
          -100 -448 -96 callgsubr
        </CharString>
        <CharString name="Atilde">
          72 465 168 callsubr
          -271 -585 -96 callgsubr
        </CharString>
        <CharString name="B">
          5 221 63 rmoveto
          261 vlineto
          41 1 rlineto
          118 1 61 -36 -97 vvcurveto
          -80 -45 -52 -119 1 vhcurveto
          -12 565 rmoveto
          83 6 61 -33 -92 vvcurveto
          -80 -42 -49 -117 vhcurveto
          -29 246 hlineto
          -144 58 rmoveto
          -34 -1 -47 -10 445 callsubr
          -558 vlineto
          -38 -4 -28 -2 -7 -21 -1 -35 rlinecurve
          260 hlineto
          158 90 77 128 -1 hvcurveto
          93 -68 50 -82 12 vhcurveto
          76 28 43 56 77 vvcurveto
          80 -58 82 -163 vhcurveto
          endchar
        </CharString>
        <CharString name="C">
          17 357 697 rmoveto
          92 callsubr
          24 callgsubr
          hvcurveto
          endchar
        </CharString>
        <CharString name="CR">
          -301 endchar
        </CharString>
        <CharString name="Cacute">
          17 357 697 rmoveto
          92 callsubr
          24 callgsubr
          hvcurveto
          143 143 rmoveto
          -10 21 -34 28 callgsubr
          endchar
        </CharString>
        <CharString name="Ccaron">
          17 509 863 -19 callsubr
          -8 267 callgsubr
          26 7 rlinecurve
          167 -614 rmoveto
          24 callgsubr
          92 callsubr
          endchar
        </CharString>
        <CharString name="Ccedilla">
          17 288 -83 rmoveto
          126 callsubr
          36 hhcurveto
          59 39 35 48 37 -23 35 -60 hvcurveto
          7 31 rlineto
          118 8 84 60 42 vvcurveto
          10 -6 13 -9 6 vhcurveto
          24 callgsubr
          -213 -109 -157 -212 2 hvcurveto
          1 -202 90 -130 178 -10 rrcurveto
          endchar
        </CharString>
        <CharString name="D">
          125 219 64 rmoveto
          556 14 callgsubr
          -557 31 callgsubr
        </CharString>
        <CharString name="Dcaron">
          125 478 863 rmoveto
          -9 13 -10 14 -15 8 -137 -87 rcurveline
          -138 87 -15 -9 -8 -9 -9 -17 rlinecurve
          136 -123 29 -7 15 0 27 7 rlinecurve
          -125 -676 rmoveto
          556 14 callgsubr
          -557 31 callgsubr
        </CharString>
        <CharString name="Dcroat">
          141 219 64 rmoveto
          242 156 62 -156 252 14 callgsubr
          -251 -55 -62 55 -244 31 callgsubr
        </CharString>
        <CharString name="E">
          -81 callgsubr
          endchar
        </CharString>
        <CharString name="Eacute">
          -81 callgsubr
          255 475 rmoveto
          -10 21 -34 28 callgsubr
          endchar
        </CharString>
        <CharString name="Ecaron">
          -4 484 863 -19 callsubr
          -9 -16 rlinecurve
          137 -124 28 -6 15 -1 27 7 rlinecurve
          115 -668 47 callgsubr
        </CharString>
        <CharString name="Ecircumflex">
          -4 315 809 rmoveto
          137 -87 14 43 callgsubr
          288 -651 47 callgsubr
        </CharString>
        <CharString name="Edieresis">
          -81 callgsubr
          2 388 rmoveto
          35 27 28 35 34 -27 29 -35 -36 -28 -29 -34 -35 28 -28 36 hvcurveto
          179 hmoveto
          37 211 callgsubr
          -37 -34 -28 -29 -34 -35 28 -28 34 hvcurveto
          endchar
        </CharString>
        <CharString name="Edotaccent">
          -81 callgsubr
          99 396 122 callgsubr
          endchar
        </CharString>
        <CharString name="Egrave">
          -81 callgsubr
          154 363 27 callsubr
        </CharString>
        <CharString name="Emacron">
          -81 callgsubr
          -47 461 214 callgsubr
        </CharString>
        <CharString name="Eogonek">
          -4 530 398 callgsubr
          137 callgsubr
          vlineto
          228 -3 9 -117 rlineto
          10 -1 47 -4 40 vvcurveto
          147 -432 vlineto
          17 callgsubr
          rlineto
          -44 -3 5 -46 -10 vvcurveto
          406 hlineto
          -32 -23 -24 -34 -42 vvcurveto
          -44 35 -34 58 34 34 13 20 14 vhcurveto
          2 11 361 callsubr
          36 17 25 34 18 hvcurveto
          endchar
        </CharString>
        <CharString name="Eth">
          141 219 64 rmoveto
          242 156 62 -156 252 14 callgsubr
          -251 -55 -62 55 -244 31 callgsubr
        </CharString>
        <CharString name="Euro">
          -30 373 212 rmoveto
          60 -184 vlineto
          -1 11 0 11 12 vvcurveto
          17 185 61 -179 vlineto
          109 16 52 68 73 hhcurveto
          61 36 -48 -68 hvcurveto
          46 31 24 45 64 -63 49 -97 -139 -89 -95 -148 -25 hvcurveto
          -62 -61 56 hlineto
          -1 -9 0 -9 -9 -8 0 -8 -8 vvcurveto
          -55 -60 61 hlineto
          -137 23 79 -91 132 hhcurveto
          93 84 45 53 13 -5 9 -8 5 hvcurveto
          -23 -29 -46 -33 -63 hhcurveto
          -87 -52 61 98 -20 hvcurveto
          endchar
        </CharString>
        <CharString name="F">
          -46 507 682 rmoveto
          -425 hlineto
          -44 4 -47 -10 1 hvcurveto
          72 127 callgsubr
          231 hlineto
          44 -42 callsubr
          -90 6 rlineto
          249 vlineto
          184 -10 6 28 -1 36 -6 25 rlinecurve
          -183 -18 rlineto
          247 vlineto
          220 -5 9 -112 rlineto
          10 -1 47 -4 40 vvcurveto
          endchar
        </CharString>
        <CharString name="G">
          93 397 312 -48 callsubr
        </CharString>
        <CharString name="Gbreve">
          93 474 895 rmoveto
          -28 -12 -26 -52 -87 hhcurveto
          -78 -37 53 28 -12 hvcurveto
          -35 -19 rlineto
          -66 9 49 -73 103 hhcurveto
          102 50 73 66 9 hvcurveto
          -112 -565 -48 callsubr
        </CharString>
        <CharString name="H">
          177 631 63 rmoveto
          558 86 callsubr
          -213 66 callsubr
          -250 -306 252 195 callgsubr
          213 hlineto
          44 -42 callsubr
          -73 6 rlineto
          245 306 -247 vlineto
          -35 -2 -45 -66 callsubr
          214 103 callgsubr
        </CharString>
        <CharString name="I">
          -234 221 63 rmoveto
          -1 558 hlineto
          70 callsubr
          213 hlineto
          44 -42 callsubr
          endchar
        </CharString>
        <CharString name="Iacute">
          -234 329 840 rmoveto
          -11 21 -34 35 -30 175 callsubr
          10 -14 21 -10 rrcurveto
          131 -108 rmoveto
          44 3 -6 46 1 10 rrcurveto
          -214 -74 callgsubr
          213 315 callsubr
          558 hlineto
          endchar
        </CharString>
        <CharString name="Icircumflex">
          -234 256 623 rmoveto
          44 3 -6 46 1 10 rrcurveto
          -214 -74 callgsubr
          213 315 callsubr
          558 hlineto
          -15 259 rmoveto
          -26 7 -16 0 -28 -7 -137 -124 rcurveline
          9 -16 8 -9 16 -9 137 86 rcurveline
          263 callgsubr
          endchar
        </CharString>
        <CharString name="Idieresis">
          -234 138 816 rmoveto
          34 -28 29 -35 -35 -29 -29 -34 -35 29 -28 35 35 28 28 35 vhcurveto
          118 -193 rmoveto
          44 3 -6 46 1 10 rrcurveto
          -214 -74 callgsubr
          213 315 callsubr
          558 hlineto
          35 258 rmoveto
          -34 -29 -29 -34 -35 29 -28 34 37 27 28 35 34 -27 29 -37 hvcurveto
          endchar
        </CharString>
        <CharString name="Idotaccent">
          -234 172 761 328 callgsubr
          49 -698 rmoveto
          -1 558 hlineto
          70 callsubr
          213 hlineto
          44 -42 callsubr
          endchar
        </CharString>
        <CharString name="Igrave">
          -234 99 898 63 callsubr
          -45 -702 rmoveto
          -1 558 hlineto
          70 callsubr
          213 hlineto
          44 -42 callsubr
          endchar
        </CharString>
        <CharString name="Imacron">
          -234 256 623 rmoveto
          44 3 -6 46 1 10 rrcurveto
          -214 -74 callgsubr
          213 315 callsubr
          558 hlineto
          -193 205 214 callgsubr
        </CharString>
        <CharString name="Iogonek">
          -234 288 18 rmoveto
          7 15 -1 18 -1 6 -72 6 rcurveline
          -1 558 hlineto
          70 callsubr
          164 hlineto
          -29 -23 -22 -32 -40 109 callsubr
          -11 -20 -12 -23 hhcurveto
          -26 -19 15 33 41 24 27 44 20 hvcurveto
          endchar
        </CharString>
        <CharString name="J">
          -190 137 682 88 callgsubr
          76 -6 rlineto
          1 -491 hlineto
          -94 -17 -24 -28 -35 -14 27 41 -1 vhcurveto
          -52 1 -19 -31 -36 vvcurveto
          -40 39 -35 58 108 66 85 114 vhcurveto
          485 vlineto
          33 2 45 3 -6 46 1 10 rlinecurve
          endchar
        </CharString>
        <CharString name="K">
          57 415 682 rmoveto
          39 callsubr
          -63 6 343 callgsubr
          endchar
        </CharString>
        <CharString name="L">
          -22 453 69 -41 callsubr
        </CharString>
        <CharString name="Lacute">
          -22 377 840 rmoveto
          -10 21 -34 28 callgsubr
          280 -662 -41 callsubr
        </CharString>
        <CharString name="Lcaron">
          31 408 535 rmoveto
          49 49 26 79 -3 76 -11 29 -85 7 -18 -20 14 -46 3 -99 -21 -52 rrcurveto
          -7 39 -20 7 4 vhcurveto
          45 -466 -41 callsubr
        </CharString>
        <CharString name="Lslash">
          -19 456 69 rmoveto
          -233 -6 rlineto
          243 vlineto
          146 115 -40 49 -106 -83 rlineto
          234 1 vlineto
          50 145 callgsubr
          -228 hlineto
          210 callsubr
          71 -6 rlineto
          -315 vlineto
          -98 -77 40 -49 58 46 rlineto
          -163 -18 callgsubr
          483 163 hlineto
          39 -47 -4 -10 -1 vhcurveto
          endchar
        </CharString>
        <CharString name="M">
          290 776 64 rmoveto
          -42 555 70 6 rlineto
          10 1 4 48 -44 hhcurveto
          -161 hlineto
          -165 -420 -187 420 rlineto
          -151 hlineto
          210 callsubr
          69 -6 -39 -558 -42 -63 callsubr
          195 -4 callgsubr
          -78 6 33 479 194 -432 17 -4 22 3 17 5 rlinecurve
          183 447 36 -500 -33 -63 callsubr
          211 103 callgsubr
        </CharString>
        <CharString name="N">
          121 496 682 -76 callsubr
        </CharString>
        <CharString name="NULL">
          -569 endchar
        </CharString>
        <CharString name="Nacute">
          121 508 840 rmoveto
          -11 21 -33 28 callgsubr
          192 -49 -76 callsubr
        </CharString>
        <CharString name="Ncaron">
          121 517 863 -19 callsubr
          -9 -16 rlinecurve
          137 -124 28 -6 15 -1 27 7 rlinecurve
          113 -57 -76 callsubr
        </CharString>
        <CharString name="Ntilde">
          121 488 168 callsubr
          -24 -184 -76 callsubr
        </CharString>
        <CharString name="O">
          102 350 697 rmoveto
          -79 callsubr
          endchar
        </CharString>
        <CharString name="OE">
          340 874 398 callgsubr
          -248 -8 rlineto
          242 vlineto
          185 -10 5 28 -1 36 -5 25 rlinecurve
          -184 -18 rlineto
          255 vlineto
          227 -4 10 -116 rlineto
          10 -1 46 -4 39 vvcurveto
          148 -395 vlineto
          10 -32 -35 5 -37 hhcurveto
          -214 -106 -157 -213 2 hvcurveto
          -207 1 109 -136 176 hhcurveto
          40 35 5 10 33 hvcurveto
          -285 343 rmoveto
          169 51 116 143 1 vhcurveto
          51 37 -13 -22 28 hvcurveto
          -498 vlineto
          -29 -27 -39 -14 -51 -1 rrcurveto
          -152 1 -39 114 174 vvcurveto
          endchar
        </CharString>
        <CharString name="Oacute">
          102 350 697 rmoveto
          -79 callsubr
          170 213 rmoveto
          -10 21 -34 418 callgsubr
          21 -10 rrcurveto
          endchar
        </CharString>
        <CharString name="Ocircumflex">
          102 345 808 71 callgsubr
          124 -667 rmoveto
          -127 1 -60 109 178 vvcurveto
          193 callsubr
          130 1 61 -110 -181 vvcurveto
          -176 -64 -104 -130 -2 vhcurveto
          18 642 168 callgsubr
          endchar
        </CharString>
        <CharString name="Odieresis">
          102 350 697 rmoveto
          -79 callsubr
          -83 126 153 callsubr
        </CharString>
        <CharString name="Ograve">
          102 335 627 rmoveto
          130 1 61 -110 -181 vvcurveto
          -176 -64 -104 -130 -2 vhcurveto
          -127 1 -60 109 178 vvcurveto
          193 callsubr
          15 70 168 callgsubr
          55 31 27 callsubr
        </CharString>
        <CharString name="Ohungarumlaut">
          102 634 806 -82 callsubr
          24 109 -82 callsubr
          98 hmoveto
          -79 callsubr
          endchar
        </CharString>
        <CharString name="Omacron">
          102 350 697 rmoveto
          -79 callsubr
          -132 199 214 callgsubr
        </CharString>
        <CharString name="Oslash">
          125 492 526 rmoveto
          23 -48 11 -64 -77 vvcurveto
          -176 -64 -104 -130 -2 vhcurveto
          -38 -32 10 19 -26 hvcurveto
          -50 58 rmoveto
          -28 49 -13 68 84 vvcurveto
          179 63 105 127 45 37 -13 -25 29 vhcurveto
          130 82 rmoveto
          -64 32 -23 -39 rlineto
          22 -41 -47 11 -51 hhcurveto
          -199 -116 -143 -226 2 hvcurveto
          1 -122 34 -95 62 -58 -21 -36 rcurveline
          64 -35 17 29 rlineto
          -17 36 41 -9 47 hhcurveto
          204 113 143 224 hvcurveto
          -1 124 -34 88 -54 56 rrcurveto
          endchar
        </CharString>
        <CharString name="Otilde">
          102 350 697 rmoveto
          -79 callsubr
          -125 125 rmoveto
          25 8 21 21 25 45 30 -52 69 hhcurveto
          65 33 45 75 11 hvcurveto
          -31 9 rlineto
          -29 -7 -23 -22 -34 -55 -24 57 -61 hhcurveto
          -53 -41 -46 -71 -11 hvcurveto
          endchar
        </CharString>
        <CharString name="P">
          7 282 628 rmoveto
          108 5 56 -53 -99 vvcurveto
          -105 -65 -58 -119 vhcurveto
          -12 -16 0 -14 hhcurveto
          308 vlineto
          -144 57 rmoveto
          -28 -7 -32 -24 445 callsubr
          -560 -18 callgsubr
          222 hlineto
          44 -42 callsubr
          -82 6 rlineto
          199 vlineto
          17 20 0 16 hhcurveto
          172 111 76 152 116 -88 77 -167 hvcurveto
          endchar
        </CharString>
        <CharString name="Q">
          107 145 343 rmoveto
          193 callsubr
          130 1 61 -110 -181 vvcurveto
          -176 -64 -104 -130 -2 vhcurveto
          -127 1 -60 109 178 vvcurveto
          485 -389 rmoveto
          -11 -17 -22 -5 -12 hhcurveto
          -38 -81 21 31 -77 hvcurveto
          163 28 89 135 199 vvcurveto
          240 -2 -124 105 -159 hhcurveto
          -199 -116 -143 -226 2 hvcurveto
          1 -190 82 -122 141 -26 rrcurveto
          -49 81 131 -82 85 hhcurveto
          45 35 27 35 18 -3 9 -5 6 hvcurveto
          endchar
        </CharString>
        <CharString name="R">
          40 220 626 -77 callgsubr
        </CharString>
        <CharString name="Racute">
          40 449 840 rmoveto
          -10 21 -34 28 callgsubr
          -25 -105 -77 callgsubr
        </CharString>
        <CharString name="Rcaron">
          40 458 863 rmoveto
          -8 13 -11 13 -15 8 -137 -86 rcurveline
          -137 86 -15 -9 -8 -9 -9 267 callgsubr
          27 7 rlinecurve
          -105 -113 -77 callgsubr
        </CharString>
        <CharString name="S">
          -50 279 697 rmoveto
          -40 callsubr
          11 callgsubr
          endchar
        </CharString>
        <CharString name="Sacute">
          -50 279 697 rmoveto
          -40 callsubr
          11 callgsubr
          154 143 rmoveto
          -10 21 -34 28 callgsubr
          endchar
        </CharString>
        <CharString name="Scaron">
          -50 442 863 -19 callsubr
          -8 267 callgsubr
          26 7 rlinecurve
          -2 -336 rmoveto
          11 callgsubr
          -40 callsubr
          endchar
        </CharString>
        <CharString name="T">
          54 20 682 -42 callgsubr
        </CharString>
        <CharString name="Tcaron">
          54 486 863 77 callsubr
          -333 -57 -42 callgsubr
        </CharString>
        <CharString name="Thorn">
          23 270 501 rmoveto
          111 58 -50 -97 -99 -66 -54 -123 hvcurveto
          -9 -10 0 -11 hhcurveto
          300 vlineto
          56 vmoveto
          64 vlineto
          36 145 callgsubr
          -214 hlineto
          210 callsubr
          72 127 callgsubr
          213 315 callsubr
          82 hlineto
          15 19 0 12 hhcurveto
          172 111 71 144 119 -90 78 -171 hvcurveto
          endchar
        </CharString>
        <CharString name="U">
          91 468 682 42 callgsubr
        </CharString>
        <CharString name="Uacute">
          91 468 682 -90 callgsubr
          -152 158 106 callgsubr
          -30 175 callsubr
          10 -14 21 -10 rrcurveto
          endchar
        </CharString>
        <CharString name="Ucircumflex">
          91 334 808 71 callgsubr
          271 -40 42 callgsubr
        </CharString>
        <CharString name="Udieresis">
          91 468 682 -90 callgsubr
          -405 71 153 callsubr
        </CharString>
        <CharString name="Ugrave">
          91 468 682 -90 callgsubr
          -252 46 27 callsubr
        </CharString>
        <CharString name="Uhungarumlaut">
          91 623 806 -82 callsubr
          24 109 -82 callsubr
          227 -15 42 callgsubr
        </CharString>
        <CharString name="Umacron">
          91 468 682 -90 callgsubr
          -453 144 214 callgsubr
        </CharString>
        <CharString name="Uogonek">
          91 468 682 96 callgsubr
          1 -364 rlineto
          -142 -63 -58 -101 -103 -43 64 145 vhcurveto
          1 357 35 -54 callgsubr
          -213 66 callsubr
          -347 vlineto
          -205 84 -82 151 vhcurveto
          1 hlineto
          -31 -23 -22 -33 -40 109 callsubr
          -12 -19 -12 -23 hhcurveto
          -26 -19 16 32 40 23 27 42 19 hvcurveto
          112 29 54 94 159 vvcurveto
          345 86 callsubr
          endchar
        </CharString>
        <CharString name="Uring">
          91 468 682 -90 callgsubr
          -307 226 136 callsubr
        </CharString>
        <CharString name="V">
          65 455 682 rmoveto
          -42 3 -47 -10 1 hvcurveto
          76 -6 -163 -488 -151 490 36 2 459 callgsubr
          -44 5 -47 -10 1 hvcurveto
          60 -6 206 -619 rlineto
          83 hlineto
          217 621 23 2 45 4 -6 45 1 10 rlinecurve
          endchar
        </CharString>
        <CharString name="W">
          392 793 682 96 callgsubr
          -146 -490 -142 487 rlineto
          -74 hlineto
          -159 -485 -130 490 34 2 44 4 -6 45 1 10 rlinecurve
          -208 hlineto
          -43 5 -47 -10 1 hvcurveto
          56 -6 184 -619 rlineto
          90 hlineto
          148 432 138 -432 rlineto
          89 hlineto
          197 621 18 2 44 5 -9 44 1 10 rlinecurve
          endchar
        </CharString>
        <CharString name="X">
          95 583 63 rmoveto
          -194 287 186 272 rlineto
          2 hlineto
          31 -54 callgsubr
          -198 hlineto
          -44 4 -48 -10 1 hvcurveto
          75 -6 -135 -211 -145 213 33 3 44 3 -6 46 1 10 rlinecurve
          -226 hlineto
          210 callsubr
          67 -6 196 -290 -185 -268 -35 -2 -45 -66 callsubr
          202 -4 callgsubr
          -75 6 rlineto
          -1 hlineto
          135 210 143 -212 rlineto
          -2 hlineto
          -31 -2 -43 -3 5 -46 -1 -10 rlinecurve
          227 hlineto
          44 -42 callsubr
          endchar
        </CharString>
        <CharString name="Y">
          50 439 683 -51 callsubr
        </CharString>
        <CharString name="Yacute">
          50 483 840 -82 callsubr
          159 -48 -51 callsubr
        </CharString>
        <CharString name="Ydieresis">
          50 410 753 rmoveto
          -24 callsubr
          -180 hmoveto
          35 211 callgsubr
          -35 -35 -29 -29 -34 -35 29 -28 35 hvcurveto
          209 -70 -51 callsubr
        </CharString>
        <CharString name="Z">
          -1 460 78 -44 callgsubr
        </CharString>
        <CharString name="Zacute">
          -1 462 840 rmoveto
          -10 21 -34 28 callgsubr
          202 -653 -44 callgsubr
        </CharString>
        <CharString name="Zcaron">
          -1 471 863 77 callsubr
          122 -661 -44 callgsubr
        </CharString>
        <CharString name="Zdotaccent">
          -1 306 761 122 callgsubr
          154 -683 -44 callgsubr
        </CharString>
        <CharString name="a">
          -55 333 93 -98 callgsubr
        </CharString>
        <CharString name="aacute">
          -55 402 654 -82 callsubr
          134 -452 -98 callgsubr
        </CharString>
        <CharString name="abreve">
          -55 369 708 rmoveto
          -29 -12 -26 -52 -87 hhcurveto
          291 callgsubr
          -71 -597 -98 callgsubr
        </CharString>
        <CharString name="acircumflex">
          -55 242 626 rmoveto
          137 -87 15 8 10 13 9 13 rlinecurve
          -134 124 -27 7 -15 0 -29 -7 rlinecurve
          -136 -124 9 -16 8 -9 15 -9 rlinecurve
          229 -446 -98 callgsubr
        </CharString>
        <CharString name="acute">
          31 407 654 -82 callsubr
          endchar
        </CharString>
        <CharString name="adieresis">
          -55 329 570 rmoveto
          -24 callsubr
          -180 hmoveto
          35 211 callgsubr
          -35 -35 -29 -29 -34 -35 29 -28 35 hvcurveto
          184 -477 -98 callgsubr
        </CharString>
        <CharString name="ae">
          211 447 312 rmoveto
          84 13 38 49 61 hhcurveto
          54 34 -41 -92 2 hvcurveto
          -316 -217 rmoveto
          -24 -30 -37 -15 -39 hhcurveto
          -54 -29 27 48 52 41 26 60 31 33 -7 -11 24 hvcurveto
          70 vmoveto
          5 -27 -31 4 -33 hhcurveto
          -156 -50 -72 -77 -85 62 -51 93 77 65 35 46 44 hvcurveto
          -55 38 62 -26 75 hhcurveto
          110 77 57 38 12 -7 17 -10 7 hvcurveto
          -34 -42 -42 -20 -58 hhcurveto
          -107 -32 70 101 hvcurveto
          19 308 54 vlineto
          107 2 -48 101 -134 hhcurveto
          -64 -61 -24 -49 -42 hvcurveto
          61 -35 -80 12 -49 hhcurveto
          -103 -69 -46 -61 -43 36 -18 43 4 hvcurveto
          46 1 25 49 67 hhcurveto
          62 33 -43 -84 hvcurveto
          endchar
        </CharString>
        <CharString name="agrave">
          -55 172 715 63 callsubr
          -6 -489 -98 callgsubr
        </CharString>
        <CharString name="amacron">
          -55 383 643 442 callsubr
          -50 -485 -98 callgsubr
        </CharString>
        <CharString name="ampersand">
          168 275 54 rmoveto
          -92 -48 52 68 45 22 48 43 34 hvcurveto
          11 -12 11 -13 12 -13 55 -61 59 -59 58 -47 rrcurveto
          -29 -41 -45 -13 -45 hhcurveto
          -8 566 rmoveto
          30 41 -22 -64 -56 -25 -61 -61 -31 hvcurveto
          -47 62 -21 47 37 vvcurveto
          51 34 37 49 vhcurveto
          352 -342 rmoveto
          41 3 -7 43 1 10 rrcurveto
          -163 hlineto
          -41 4 -45 -10 1 hvcurveto
          63 -6 -12 -45 -17 -37 -21 -31 rlinecurve
          -55 46 -60 59 -55 64 -14 17 rcurveline
          73 27 71 66 94 vvcurveto
          91 -71 51 -88 -113 -65 -71 -90 -48 21 -50 52 -70 vhcurveto
          -96 -53 -31 -74 -63 vvcurveto
          -98 70 -76 144 78 72 23 49 59 vhcurveto
          -43 62 60 -28 52 hhcurveto
          64 26 42 34 15 -5 14 -9 8 hvcurveto
          -17 -12 -32 -11 -23 hhcurveto
          -32 -43 20 33 -48 hvcurveto
          28 42 23 51 16 62 rrcurveto
          endchar
        </CharString>
        <CharString name="aogonek">
          -55 333 93 rmoveto
          -22 -31 -34 -15 -43 hhcurveto
          -52 -29 28 47 52 41 26 58 33 31 -6 -11 26 hvcurveto
          102 -144 rmoveto
          276 vlineto
          146 -95 44 -103 -102 -69 -46 -60 -44 37 -18 42 4 vhcurveto
          53 2 32 42 55 hhcurveto
          66 33 -40 -87 hvcurveto
          -56 vlineto
          5 -28 -31 3 -33 hhcurveto
          -155 -50 -73 -75 -86 62 -51 92 60 50 22 33 39 hvcurveto
          7 -24 17 -19 30 -8 rrcurveto
          -29 -23 -20 -32 -38 vvcurveto
          -45 36 -33 57 35 34 13 446 callgsubr
          10 -3 24 -6 4 rrcurveto
          -9 -11 -20 -13 -23 hhcurveto
          -26 -19 16 32 32 14 23 26 18 hvcurveto
          34 7 13 21 24 vvcurveto
          endchar
        </CharString>
        <CharString name="apostrophemod">
          -339 51 callsubr
          endchar
        </CharString>
        <CharString name="approxequal">
          11 363 274 rmoveto
          -19 -16 6 8 -15 hvcurveto
          -2 10 11 -2 12 hhcurveto
          38 -1 28 12 21 23 -11 -26 -25 -19 -34 1 rrcurveto
          -155 60 rmoveto
          -32 1 -28 -13 -21 -23 rrcurveto
          23 11 23 17 26 hhcurveto
          9 9 -2 -3 9 hvcurveto
          221 78 rmoveto
          325 callgsubr
          34 -12 rcurveline
          -16 -20 -12 -26 -6 -30 36 -13 rcurveline
          327 callsubr
          -32 9 rcurveline
          16 20 10 27 6 32 rrcurveto
          endchar
        </CharString>
        <CharString name="aring">
          -55 245 678 rmoveto
          27 17 -16 -27 -27 -17 -17 -27 -27 -16 17 27 27 16 16 27 hvcurveto
          -2 -132 rmoveto
          56 39 36 55 1 hvcurveto
          52 -36 36 -56 -57 -38 -37 -55 -52 36 -35 55 vhcurveto
          90 -453 -98 callgsubr
        </CharString>
        <CharString name="asciicircum">
          -63 449 204 rmoveto
          -165 449 rlineto
          -52 hlineto
          -175 -449 rlineto
          91 hlineto
          108 283 103 -283 rlineto
          endchar
        </CharString>
        <CharString name="asciitilde">
          11 136 234 rmoveto
          327 callsubr
          -34 10 rcurveline
          325 callgsubr
          rrcurveto
          endchar
        </CharString>
        <CharString name="asterisk">
          -59 264 565 rmoveto
          29 153 -26 9 -54 3 -26 -11 rlinecurve
          32 -155 -138 75 rlineto
          -18 -21 -12 -52 -30 vvcurveto
          157 -14 -114 -105 14 -24 45 -31 28 -7 rlinecurve
          60 139 62 -140 29 7 43 31 15 24 rlinecurve
          -116 106 158 14 rlineto
          28 -13 52 -78 callsubr
          endchar
        </CharString>
        <CharString name="at">
          444 570 166 rmoveto
          -28 -35 -29 -16 -37 hhcurveto
          -74 -23 61 86 13 hvcurveto
          67 10 34 89 85 hhcurveto
          39 31 -18 -17 17 hvcurveto
          12 83 rmoveto
          -1 -6 rlineto
          14 -28 -30 8 -38 hhcurveto
          -139 -78 -101 -136 -16 hvcurveto
          -150 -17 76 -53 88 hhcurveto
          56 41 22 28 36 hvcurveto
          -37 2 26 -9 48 hhcurveto
          180 120 124 185 193 -163 129 -242 -276 -183 -174 -262 -248 180 -165 272 100 80 24 36 67 hvcurveto
          -12 56 rlineto
          -40 -61 -87 -15 -75 hhcurveto
          -237 -158 142 212 224 156 149 234 203 135 -109 -164 -143 -84 -94 -126 2 hvcurveto
          51 365 rlineto
          endchar
        </CharString>
        <CharString name="atilde">
          -55 384 688 rmoveto
          355 callsubr
          -13 -70 33 -13 rcurveline
          25 8 22 20 25 hhcurveto
          45 -2 29 -52 69 -1 64 -1 35 43 12 76 rrcurveto
          -82 -585 -98 callgsubr
        </CharString>
        <CharString name="b">
          5 190 385 rmoveto
          34 38 31 19 44 hhcurveto
          89 38 -78 -110 -96 -26 -98 -100 -49 -42 24 20 -23 hvcurveto
          609 vmoveto
          -177 -21 -1 -13 0 -38 32 -4 rlinecurve
          45 -4 rlineto
          -590 vlineto
          101 -33 rlineto
          0 vlineto
          -13 29 31 -8 43 hhcurveto
          164 83 121 166 -3 hvcurveto
          177 -3 -99 65 -97 hhcurveto
          -65 -46 -26 -33 -37 hvcurveto
          endchar
        </CharString>
        <CharString name="backslash">
          -184 365 -106 rmoveto
          -258 803 rlineto
          -87 hlineto
          258 -803 rlineto
          endchar
        </CharString>
        <CharString name="bar">
          -286 100 -194 rmoveto
          83 918 -83 hlineto
          endchar
        </CharString>
        <CharString name="braceleft">
          -218 245 724 rmoveto
          -84 -60 -52 -80 hvcurveto
          -70 16 -62 -76 vvcurveto
          -30 -8 -24 -15 -17 vhcurveto
          -7 -9 -13 -9 -24 -10 rrcurveto
          -33 vlineto
          23 -10 13 -8 8 -10 rrcurveto
          15 -17 8 -23 -29 -81 -16 -62 -68 vvcurveto
          -80 57 -52 81 34 39 5 8 22 vhcurveto
          -4 48 rlineto
          -1 -8 -11 -1 -11 hhcurveto
          -68 -43 26 52 hvcurveto
          50 17 80 61 vvcurveto
          70 -23 44 -31 10 vhcurveto
          9 vlineto
          31 10 23 44 69 82 -17 59 50 vvcurveto
          52 43 27 68 11 11 -1 -1 8 vhcurveto
          4 47 rlineto
          8 -14 -35 5 -40 hhcurveto
          endchar
        </CharString>
        <CharString name="braceright">
          -218 15 664 rmoveto
          1 8 11 1 11 hhcurveto
          68 43 -27 -52 hvcurveto
          -50 -17 -59 -82 vvcurveto
          -69 23 -44 31 -10 vhcurveto
          -9 vlineto
          -31 -10 -23 -44 -70 -61 17 -80 -50 vvcurveto
          -52 -43 -26 -68 -11 -11 1 1 -8 vhcurveto
          -4 -48 rlineto
          -8 22 39 -5 34 hhcurveto
          81 57 52 80 hvcurveto
          68 -16 62 81 vvcurveto
          29 8 23 15 17 vhcurveto
          8 10 13 8 23 10 rrcurveto
          33 vlineto
          -24 10 -13 9 -7 9 rrcurveto
          -15 17 -8 24 30 76 16 62 70 vvcurveto
          80 -60 52 -84 -40 -35 -5 -8 -14 vhcurveto
          endchar
        </CharString>
        <CharString name="bracketleft">
          -308 157 662 rmoveto
          80 57 -163 -882 163 58 -80 hlineto
          endchar
        </CharString>
        <CharString name="bracketright">
          -311 104 -105 rmoveto
          -80 -58 163 882 -163 -57 80 hlineto
          endchar
        </CharString>
        <CharString name="breve">
          31 287 627 rmoveto
          291 callgsubr
          -35 18 rlineto
          -29 -12 -26 -52 -87 hhcurveto
          endchar
        </CharString>
        <CharString name="brokenbar">
          -286 183 178 rmoveto
          -83 -372 83 hlineto
          -83 546 rmoveto
          83 372 -83 hlineto
          endchar
        </CharString>
        <CharString name="bullet">
          -99 235 243 rmoveto
          62 47 47 62 60 -47 49 -62 -60 -49 -49 -60 -62 49 -47 60 hvcurveto
          endchar
        </CharString>
        <CharString name="c">
          -104 280 514 rmoveto
          333 callgsubr
          hvcurveto
          -150 79 -99 137 101 87 56 39 10 -7 19 -11 7 vhcurveto
          29 callsubr
          vhcurveto
          endchar
        </CharString>
        <CharString name="cacute">
          -104 428 654 -82 callsubr
          55 -31 rmoveto
          333 callgsubr
          hvcurveto
          -150 79 -99 137 101 87 56 39 10 -7 19 -11 7 vhcurveto
          29 callsubr
          vhcurveto
          endchar
        </CharString>
        <CharString name="caron">
          31 269 627 rmoveto
          -138 87 -15 -9 -8 -9 -9 192 callsubr
          -7 16 0 27 7 rlinecurve
          133 124 -8 13 -11 13 -14 8 rlinecurve
          endchar
        </CharString>
        <CharString name="ccaron">
          -104 438 680 -19 callsubr
          -9 -16 rlinecurve
          137 -124 28 -6 15 -1 27 7 rlinecurve
          119 -440 rmoveto
          29 callsubr
          333 callgsubr
          vhcurveto
          -150 79 -99 137 101 87 56 39 10 -7 19 -11 7 vhcurveto
          endchar
        </CharString>
        <CharString name="ccedilla">
          -104 202 -83 rmoveto
          60 callgsubr
          7 30 rlineto
          94 6 78 52 37 vvcurveto
          10 -7 19 -11 7 vhcurveto
          29 callsubr
          333 callgsubr
          vhcurveto
          -138 67 -95 117 -14 vhcurveto
          endchar
        </CharString>
        <CharString name="cedilla">
          31 317 18 rmoveto
          -48 hlineto
          -27 -101 rlineto
          60 callgsubr
          endchar
        </CharString>
        <CharString name="cent">
          -63 322 605 rmoveto
          -19 8 -45 1 -17 -9 7 -94 rcurveline
          -127 -19 -72 -104 1 -161 1 -135 71 -101 127 -7 -8 -96 rcurveline
          17 -9 45 0 19 9 -9 100 rcurveline
          80 13 63 41 36 vvcurveto
          8 -7 19 -12 8 vhcurveto
          -33 -38 -43 -18 -54 hhcurveto
          -113 -32 90 108 105 41 79 81 68 25 -55 -48 1 hvcurveto
          31 -3 44 15 55 vvcurveto
          60 -52 39 -82 6 vhcurveto
          endchar
        </CharString>
        <CharString name="circumflex">
          31 306 697 196 callsubr
        </CharString>
        <CharString name="colon">
          -331 119 -16 rmoveto
          41 31 32 432 callsubr
          -32 40 hvcurveto
          325 vmoveto
          41 31 31 41 41 -31 32 -41 -40 -32 -32 -41 -41 32 -31 40 hvcurveto
          endchar
        </CharString>
        <CharString name="comma">
          -338 115 122 -93 callgsubr
          endchar
        </CharString>
        <CharString name="copyright">
          124 347 608 rmoveto
          -183 -114 -124 -174 -181 118 -115 179 178 118 119 177 182 -122 116 -174 hvcurveto
          -69 vmoveto
          128 91 -86 -143 -139 -86 -88 -133 -134 -86 88 138 137 83 93 137 hvcurveto
          109 -135 rmoveto
          37 -35 25 -56 -89 -54 -62 -103 -81 49 -60 81 60 48 30 24 6 -3 16 -7 5 vhcurveto
          -19 -23 -24 -9 -29 hhcurveto
          -63 -17 48 60 55 24 40 40 37 16 -27 -23 hvcurveto
          18 -2 27 10 30 vvcurveto
          endchar
        </CharString>
        <CharString name="currency">
          26 490 283 rmoveto
          47 -13 40 -22 32 vhcurveto
          93 77 -14 19 -30 31 -17 9 rlinecurve
          -80 -91 rlineto
          19 -29 -38 10 -42 hhcurveto
          -43 -37 -10 -19 -31 hvcurveto
          -79 91 -17 -9 -30 -31 -14 -19 rlinecurve
          93 -77 rlineto
          -23 -32 -13 -40 -47 vvcurveto
          -46 12 -41 23 -30 vhcurveto
          -92 -77 14 -19 30 -31 17 -10 rlinecurve
          80 92 rlineto
          -20 30 37 -10 43 hhcurveto
          42 38 10 20 30 hvcurveto
          79 -92 17 10 30 31 14 19 rlinecurve
          -92 77 rlineto
          22 31 12 40 46 vvcurveto
          -193 -114 rmoveto
          -66 -45 46 68 69 45 46 66 66 45 -46 -69 -68 -45 -46 -66 hvcurveto
          endchar
        </CharString>
        <CharString name="d">
          -5 118 callgsubr
          102 -350 rmoveto
          660 vlineto
          276 callgsubr
          -136 48 callgsubr
          endchar
        </CharString>
        <CharString name="dagger">
          -69 292 530 rmoveto
          253 callsubr
          10 -630 18 -4 26 0 18 4 rlinecurve
          10 631 452 callsubr
          endchar
        </CharString>
        <CharString name="daggerdbl">
          -69 289 331 rmoveto
          2 141 452 callsubr
          -131 -12 253 callsubr
          2 -140 -147 12 -9 -20 9 -42 13 -20 rlinecurve
          135 12 7 -432 18 -4 25 0 19 4 rlinecurve
          7 432 148 -12 9 20 -9 42 -13 20 rlinecurve
          endchar
        </CharString>
        <CharString name="danda">
          -215 294 callgsubr
          endchar
        </CharString>
        <CharString name="dcaron">
          95 118 callgsubr
          102 310 rmoveto
          276 callgsubr
          -136 48 callgsubr
          -65 7 rlineto
          154 686 rmoveto
          -11 26 -71 5 -18 -19 14 -46 2 -93 -22 -52 rrcurveto
          -7 33 -17 8 5 vhcurveto
          43 50 25 73 -3 75 rrcurveto
          endchar
        </CharString>
        <CharString name="dcroat">
          9 118 callgsubr
          181 139 rmoveto
          55 -79 116 vlineto
          276 callgsubr
          -36 -73 -55 73 -45 48 callgsubr
          -65 7 rlineto
          489 vlineto
          endchar
        </CharString>
        <CharString name="degree">
          -204 57 579 rmoveto
          -72 52 -49 74 72 53 50 72 72 -52 48 -73 -72 -54 -48 -73 vhcurveto
          68 1 rmoveto
          34 22 25 36 34 23 -25 -35 -34 -22 -26 -35 -35 -23 26 35 vhcurveto
          endchar
        </CharString>
        <CharString name="dieresis">
          31 165 570 153 callsubr
        </CharString>
        <CharString name="divide">
          -72 50 310 419 callsubr
          -198 -270 rmoveto
          38 31 30 39 39 -31 31 -38 -39 -31 -31 -39 -39 31 -30 39 hvcurveto
          331 vmoveto
          38 31 31 39 39 -31 30 -38 -39 -31 -30 -39 -39 31 -31 39 hvcurveto
          endchar
        </CharString>
        <CharString name="dollar">
          -80 276 713 rmoveto
          -19 9 -45 0 -17 -9 9 -101 rcurveline
          -79 -18 -64 -56 -95 vvcurveto
          -94 84 -39 89 -37 vhcurveto
          65 -27 61 -29 -75 vvcurveto
          -64 -50 -29 -68 -75 -41 33 81 -5 vhcurveto
          -54 -23 -30 -38 -68 81 -36 78 -6 hvcurveto
          -8 -95 17 -9 45 0 19 9 rlinecurve
          -8 97 rlineto
          109 15 68 80 102 vvcurveto
          92 -57 34 -103 46 vhcurveto
          -80 33 -59 25 62 vvcurveto
          48 39 32 59 74 30 -37 -69 vhcurveto
          41 -6 31 26 43 vvcurveto
          82 -90 23 -62 1 vhcurveto
          endchar
        </CharString>
        <CharString name="dotaccent">
          -165 160 578 328 callgsubr
          endchar
        </CharString>
        <CharString name="dotlessi">
          135 callsubr
          endchar
        </CharString>
        <CharString name="dottedcircle">
          91 139 517 rmoveto
          -26 18 -19 26 26 18 19 26 25 -18 19 -26 -26 -18 -19 -25 vhcurveto
          -82 -110 rmoveto
          -25 20 -19 26 24 20 19 25 25 -20 19 -24 -26 -20 -19 -25 vhcurveto
          -13 -126 rmoveto
          -25 19 -18 25 26 18 18 456 callsubr
          52 -116 rmoveto
          -26 18 -18 26 25 19 18 26 25 -19 19 -25 -26 -18 -19 -25 vhcurveto
          101 -75 rmoveto
          -26 19 -20 26 25 19 20 26 24 -19 20 -25 -26 -19 -20 -24 vhcurveto
          127 -16 rmoveto
          -26 18 -18 26 26 19 18 26 26 -19 18 -26 -26 -18 -18 -26 vhcurveto
          121 53 rmoveto
          -26 19 -18 25 25 20 18 26 25 -20 19 -25 -25 -19 -19 -25 vhcurveto
          73 98 rmoveto
          -25 19 -19 26 24 19 19 25 26 -19 19 -24 -26 -19 -19 -26 vhcurveto
          10 134 rmoveto
          -26 18 -18 26 25 19 18 26 26 -19 18 -25 -26 -18 -18 -26 vhcurveto
          -50 118 rmoveto
          -25 19 -19 25 26 18 19 456 callsubr
          -95 68 rmoveto
          -24 19 -20 26 25 18 20 24 26 -18 19 -25 -26 -19 -19 -26 vhcurveto
          -126 15 rmoveto
          -26 18 -18 26 26 18 18 26 26 -18 18 -26 -26 -18 -18 -26 vhcurveto
          endchar
        </CharString>
        <CharString name="doubledanda">
          5 294 callgsubr
          228 hmoveto
          593 vlineto
          24 -55 19 -46 vhcurveto
          -594 vlineto
          -22 58 -21 43 1 vhcurveto
          endchar
        </CharString>
        <CharString name="dvA">
          182 792 -73 callsubr
          -320 -71 callsubr
          vlineto
          endchar
        </CharString>
        <CharString name="dvAA">
          461 1072 -73 callsubr
          -600 -71 callsubr
          180 -508 -106 callsubr
        </CharString>
        <CharString name="dvAI">
          16 194 529 rmoveto
          196 -197 hlineto
          -43 -35 -16 -33 -11 vhcurveto
          7 -26 25 -45 16 -13 rrcurveto
          69 25 52 50 84 vvcurveto
          192 130 vlineto
          -84 callgsubr
          -126 hlineto
          88 -36 -105 188 -150 hhcurveto
          -51 -75 -20 -8 -18 451 callsubr
          72 20 55 hhcurveto
          86 67 -117 -70 32 hvcurveto
          -426 -107 callgsubr
          99 -210 hlineto
          -127 67 -55 52 -32 vhcurveto
          85 -54 137 -81 -32 vvcurveto
          -20 -31 -23 -35 -19 vhcurveto
          14 -25 27 -33 24 -16 rrcurveto
          40 40 34 38 69 vvcurveto
          100 -106 42 -107 67 vhcurveto
          -87 52 -15 23 69 vvcurveto
          endchar
        </CharString>
        <CharString name="dvAU">
          450 1060 -73 callsubr
          -147 hlineto
          118 -34 -88 181 -131 hhcurveto
          51 callgsubr
          28 -45 10 -8 rrcurveto
          15 16 54 34 46 hhcurveto
          48 51 -40 -38 33 hvcurveto
          -359 -71 callsubr
          168 -508 -106 callsubr
        </CharString>
        <CharString name="dvAbbreviationsign">
          -176 187 497 rmoveto
          -76 -45 -56 -75 -100 77 -61 75 66 54 45 83 91 -64 73 -87 hvcurveto
          13 -68 rmoveto
          41 29 -30 -52 -43 -20 -32 -44 -48 -24 38 44 47 27 28 39 hvcurveto
          endchar
        </CharString>
        <CharString name="dvAnusvara">
          -569 -154 693 rmoveto
          17 50 45 11 280 callgsubr
          -18 -14 43 -52 17 hvcurveto
          endchar
        </CharString>
        <CharString name="dvAnusvara.amI">
          -569 -26 902 rmoveto
          -10 -57 -51 -11 -11 51 -56 12 11 56 52 7 12 -53 58 -10 hvcurveto
          endchar
        </CharString>
        <CharString name="dvAvagraha">
          -35 241 486 rmoveto
          38 39 4 48 vhcurveto
          160 hlineto
          -1 33 -15 37 -16 20 rrcurveto
          -169 hlineto
          -78 -62 -34 -71 -71 63 -65 70 -61 hvcurveto
          66 -58 71 -47 -61 vvcurveto
          -39 -32 -22 -58 -126 -62 99 52 -39 vhcurveto
          -19 -3 -31 -21 -9 -12 rrcurveto
          -132 82 120 -77 116 hhcurveto
          81 74 36 88 108 -111 88 -62 49 hvcurveto
          -60 48 -40 38 36 vvcurveto
          endchar
        </CharString>
        <CharString name="dvB">
          -206 224 callgsubr
          412 -67 callsubr
          -61 -431 rmoveto
          -16 -27 -29 -9 -29 hhcurveto
          -52 -42 238 callsubr
          254 -36 rmoveto
          -10 -29 -21 -30 -26 -25 52 callsubr
          -100 -56 -123 -113 84 -88 120 96 76 66 62 34 hvcurveto
          endchar
        </CharString>
        <CharString name="dvBA">
          -1 305 187 rmoveto
          -15 -28 -31 -10 -28 hhcurveto
          -45 -47 175 callgsubr
          217 -103 rmoveto
          -6 -6 -5 -6 -7 -6 -149 154 101 callgsubr
          45 33 -12 -17 28 hvcurveto
          239 176 -80 callsubr
          -619 -107 callgsubr
          380 -110 hlineto
          26 -34 -48 22 -58 hhcurveto
          -90 -103 -56 -121 -104 75 332 callgsubr
          hvcurveto
          -108 -106 callsubr
        </CharString>
        <CharString name="dvBH">
          -80 198 628 rmoveto
          -75 -64 -37 -74 -84 82 -55 76 -24 hvcurveto
          273 callsubr
          1 -71 0 -42 -1 -40 rrcurveto
          -72 -3 -22 -16 -31 vvcurveto
          -60 82 -70 27 -7 vhcurveto
          13 -5 27 369 callgsubr
          60 2 89 -4 65 -6 -5 84 rcurveline
          -40 2 -133 6 -39 349 callgsubr
          vhcurveto
          311 -10 rmoveto
          -79 -107 callgsubr
          79 -67 callsubr
          endchar
        </CharString>
        <CharString name="dvBHA">
          178 789 -73 callsubr
          -327 76 callgsubr
          -235 hlineto
          -54 3 -101 4 -33 349 callgsubr
          -75 -64 -37 -74 -84 82 -55 76 -24 vhcurveto
          273 callsubr
          -153 vlineto
          -72 -3 -22 -16 -31 vvcurveto
          -59 81 -71 28 -7 vhcurveto
          13 -5 27 369 callgsubr
          51 2 73 -3 61 -5 rrcurveto
          -190 -106 callsubr
        </CharString>
        <CharString name="dvBH_LA">
          605 1216 -73 callsubr
          -753 -52 callgsubr
          515 307 callgsubr
          -73 -83 -46 -103 -4 hvcurveto
          3 -53 -61 0 -25 50 callsubr
          54 49 -1 -3 47 hvcurveto
          35 -98 93 -80 69 -49 -60 callsubr
        </CharString>
        <CharString name="dvBH_NA">
          161 772 529 -54 callsubr
          -351 -52 callgsubr
          111 -190 hlineto
          3 -57 -96 1 -32 hhcurveto
          113 vlineto
          126 -79 46 -81 -75 -64 -37 -72 -67 59 -44 73 -23 vhcurveto
          9 7 9 21 4 14 rrcurveto
          -41 23 -17 20 41 vvcurveto
          31 24 20 29 42 14 -38 -53 vhcurveto
          -131 vlineto
          -58 -22 -17 -31 -57 67 -62 24 -9 hvcurveto
          -2 5 8 427 callsubr
          10 2 6 8 hvcurveto
          19 12 12 53 3 35 rrcurveto
          65 61 -1 -5 56 hvcurveto
          -1 vlineto
          -149 -82 -15 -7 -77 -42 -8 -5 rlinecurve
          -29 -20 -21 -21 6 -25 10 -52 76 -54 28 1 19 2 24 19 -2 13 -2 23 -18 48 -7 21 165 103 rcurveline
          -163 -92 callsubr
        </CharString>
        <CharString name="dvBH_R">
          -58 523 618 rmoveto
          -101 hlineto
          -34 19 235 callsubr
          95 -45 callsubr
          -319 10 rmoveto
          -75 -64 -37 -75 -75 59 -43 73 -24 hvcurveto
          97 callsubr
          57 62 0 -3 53 hvcurveto
          -306 -196 166 callsubr
          rlinecurve
          310 224 -3 122 rlineto
          5 -50 -142 2 -38 373 callsubr
          vhcurveto
          endchar
        </CharString>
        <CharString name="dvBH_RA">
          175 786 529 -80 callsubr
          -332 hlineto
          -34 19 -34 18 348 callsubr
          -33 373 callsubr
          -75 -64 -37 -75 -75 59 -43 73 -24 vhcurveto
          97 callsubr
          62 57 -1 -3 53 hvcurveto
          -306 -195 166 callsubr
          rlinecurve
          257 186 rlineto
          -142 vlineto
          -22 56 -26 43 -83 callgsubr
        </CharString>
        <CharString name="dvBH_R_YA">
          488 860 368 callgsubr
          -52 -41 15 27 -29 hvcurveto
          -1 2 -1 -1 -10 10 -8 10 -7 11 rlinecurve
          105 26 -87 callgsubr
          180 hlineto
          245 callsubr
          -650 hlineto
          -34 14 394 callgsubr
          -58 -25 -31 -63 -21 vhcurveto
          2 -34 -41 1 -38 hhcurveto
          -62 112 hlineto
          126 -82 46 -81 -75 -64 -37 -75 -76 63 -43 73 -24 vhcurveto
          9 8 9 19 4 14 rrcurveto
          -41 23 -21 25 39 vvcurveto
          41 24 20 28 43 13 -38 -53 vhcurveto
          -131 vlineto
          -44 -31 -9 -17 -11 hvcurveto
          -5 -6 -1 -12 -12 vvcurveto
          -44 79 -89 42 -1 vhcurveto
          5 6 0 1 6 hvcurveto
          9 9 4 4 6 hvcurveto
          17 14 15 49 40 vvcurveto
          30 2 14 0 26 -1 rrcurveto
          25 24 -1 -2 25 hvcurveto
          8 -21 11 -21 13 -19 -278 -165 rcurveline
          166 callsubr
          272 185 rcurveline
          -29 37 48 -18 61 -97 callgsubr
        </CharString>
        <CharString name="dvBH_VA">
          459 831 -17 callgsubr
          239 178 120 callsubr
          -13 callgsubr
          -88 -99 -53 -113 -6 hvcurveto
          2 -52 -60 0 -24 50 callsubr
          53 47 -1 -3 46 hvcurveto
          -73 26 67 -57 97 hhcurveto
          56 182 callsubr
          hvcurveto
          -108 -106 callsubr
        </CharString>
        <CharString name="dvBH_YA">
          465 837 -35 callsubr
          -650 -11 callsubr
          139 -47 callgsubr
          -67 -33 -32 -88 -21 vhcurveto
          2 -45 -47 0 -24 hhcurveto
          123 303 callsubr
          -76 -64 -37 -75 -69 50 -48 457 callsubr
          -31 18 -22 25 40 vvcurveto
          41 24 20 33 43 13 -38 -53 vhcurveto
          -141 vlineto
          -70 -3 -23 -16 -31 vvcurveto
          -57 80 -71 24 -9 vhcurveto
          311 callsubr
          51 36 -1 -2 37 hvcurveto
          -79 34 70 -69 119 -97 callgsubr
        </CharString>
        <CharString name="dvB_BA">
          345 652 187 331 callsubr
          -47 175 callgsubr
          217 -103 rmoveto
          423 callgsubr
          -150 154 rcurveline
          6 18 20 3 23 hhcurveto
          45 35 -12 -18 27 hvcurveto
          -412 -164 rmoveto
          -15 -27 -29 -10 -28 hhcurveto
          -52 -43 329 callsubr
          801 188 -54 callsubr
          -965 -107 callgsubr
          726 -109 hlineto
          432 callgsubr
          -9 1 -9 1 -9 hvcurveto
          -10 -14 -12 -14 -14 -13 -147 151 rcurveline
          6 33 callgsubr
          74 62 40 46 40 hvcurveto
          -51 34 57 -35 77 hhcurveto
          56 182 callsubr
          hvcurveto
          -108 -106 callsubr
        </CharString>
        <CharString name="dvB_BHA">
          342 314 164 rmoveto
          -14 -26 -30 -8 -32 hhcurveto
          -52 -42 33 68 31 9 26 18 20 hvcurveto
          793 209 -54 callsubr
          -325 -107 callgsubr
          85 -231 hlineto
          -55 3 -95 4 -33 -2 rrcurveto
          166 vlineto
          117 -73 42 -82 -20 -21 -3 -7 -19 vhcurveto
          -353 -52 callgsubr
          254 hlineto
          2 -42 37 -31 25 -12 9 7 12 8 4 9 rrcurveto
          -10 18 -4 13 14 vvcurveto
          32 21 17 30 45 14 -36 -64 vhcurveto
          2 -71 0 -51 -2 -40 rrcurveto
          -71 -3 -22 -17 -31 vvcurveto
          -14 4 -14 7 -14 vhcurveto
          -142 145 rlineto
          7 18 21 3 23 hhcurveto
          41 36 -11 -13 19 hvcurveto
          12 50 121 callgsubr
          65 56 31 39 41 hvcurveto
          15 -13 14 -8 9 -3 13 -4 27 2 11 8 18 11 13 51 4 41 50 1 70 -3 59 -4 rrcurveto
          -194 -106 callsubr
        </CharString>
        <CharString name="dvB_BH_RA">
          384 295 173 rmoveto
          -15 -26 -29 -10 -29 hhcurveto
          -52 -42 33 68 32 9 26 18 19 hvcurveto
          850 203 -54 callsubr
          -333 hlineto
          -34 20 -34 17 348 callsubr
          -32 373 callsubr
          -24 -23 -3 -7 -19 vhcurveto
          -391 -107 callgsubr
          286 -4 hlineto
          -55 51 -32 54 -10 vhcurveto
          9 7 10 20 4 14 rrcurveto
          -29 13 -3 19 15 vvcurveto
          31 25 15 27 43 13 -39 -42 vhcurveto
          -139 vlineto
          -71 -3 -22 -18 -31 vvcurveto
          -7 1 -7 2 -6 vhcurveto
          -11 -22 -17 -22 -19 -19 52 callsubr
          143 callgsubr
          120 95 75 64 62 35 hvcurveto
          19 -18 20 -13 10 -4 rrcurveto
          160 callsubr
          19 12 12 40 3 34 rrcurveto
          61 196 callgsubr
        </CharString>
        <CharString name="dvB_DA">
          328 306 187 rmoveto
          -15 -26 -29 -10 -29 hhcurveto
          -52 -43 238 callsubr
          625 188 rmoveto
          160 -67 callsubr
          -949 -107 callgsubr
          690 -81 hlineto
          2 -16 -16 1 -17 hhcurveto
          -144 -78 -76 -98 -13 hvcurveto
          -11 -20 -16 -19 -17 -17 177 callgsubr
          69 58 34 41 40 hvcurveto
          -80 34 81 -58 111 hhcurveto
          305 callgsubr
          hvcurveto
          349 callsubr
          10 20 -23 38 -43 43 -44 39 rrcurveto
          23 28 12 33 38 vvcurveto
          40 -15 35 -38 -37 -62 443 callsubr
          12 -16 vhcurveto
          -12 -22 -30 -5 -28 279 callgsubr
          117 32 18 -4 -2 17 hvcurveto
          12 -2 31 33 16 vvcurveto
          endchar
        </CharString>
        <CharString name="dvB_DHA">
          407 315 153 rmoveto
          -11 -25 -28 -6 -29 hhcurveto
          -61 -43 33 68 31 10 26 17 20 hvcurveto
          862 215 -90 callsubr
          -312 hlineto
          -34 18 -105 callgsubr
          70 -266 hlineto
          -49 -37 -61 -38 -60 -50 callgsubr
          250 callsubr
          -514 -107 callgsubr
          387 388 callsubr
          -19 -12 -23 -4 -28 -15 -30 -27 -34 -36 -26 -160 164 101 callgsubr
          40 35 -10 -14 18 hvcurveto
          12 51 rlineto
          36 -27 -54 22 -56 hhcurveto
          -93 143 callgsubr
          119 94 82 47 57 48 hvcurveto
          -42 31 56 -26 68 hhcurveto
          58 53 18 27 44 hvcurveto
          -120 -106 callsubr
        </CharString>
        <CharString name="dvB_DH_VA">
          711 1081 -17 callgsubr
          -769 -204 rmoveto
          -10 -24 -27 -7 -27 hhcurveto
          -66 -43 33 68 31 9 26 18 20 hvcurveto
          1168 221 -90 callsubr
          -605 -107 callgsubr
          366 -13 callgsubr
          -91 387 callgsubr
          -17 2 -17 4 -17 hvcurveto
          -35 -38 -52 -28 -51 -50 callgsubr
          250 callsubr
          -532 -107 callgsubr
          405 388 callsubr
          -20 -13 -24 -4 -29 -13 -31 -26 -34 -35 -27 -160 163 rcurveline
          7 18 21 3 23 hhcurveto
          40 35 -10 -14 18 hvcurveto
          12 50 rlineto
          36 -27 -54 23 -56 hhcurveto
          -93 143 callgsubr
          120 95 80 49 58 45 hvcurveto
          -41 32 55 -25 67 hhcurveto
          68 64 24 36 47 hvcurveto
          -41 35 53 -28 68 hhcurveto
          56 182 callsubr
          hvcurveto
          -108 -106 callsubr
        </CharString>
        <CharString name="dvB_JA">
          584 312 189 rmoveto
          -12 -23 -27 -6 -28 hhcurveto
          -63 -45 34 67 31 10 26 17 20 hvcurveto
          1041 180 -90 callsubr
          -1203 -107 callgsubr
          964 -110 -236 -68 callsubr
          -1 -86 -26 -66 -42 -42 -156 159 rcurveline
          7 18 20 3 22 hhcurveto
          43 36 -11 -13 19 hvcurveto
          12 50 121 callgsubr
          105 100 73 104 30 hvcurveto
          -119 53 79 -94 109 hhcurveto
          74 52 45 78 60 -32 447 callsubr
          171 -309 81 callsubr
        </CharString>
        <CharString name="dvB_JHA">
          546 917 297 rmoveto
          -36 -20 -53 -14 -36 -5 rrcurveto
          25 -21 -28 18 -35 171 callgsubr
          44 13 95 hvcurveto
          53 24 -3 14 hhcurveto
          15 29 33 21 hvcurveto
          104 140 vlineto
          -606 -335 rmoveto
          -11 -26 -28 -7 -30 hhcurveto
          -59 -43 33 68 31 9 26 18 20 hvcurveto
          1005 175 -80 callsubr
          -1176 -107 callgsubr
          696 -70 -110 hlineto
          -89 -53 -44 -73 -13 2 -13 3 -12 hvcurveto
          -15 -30 -24 -28 -30 -23 -160 163 rcurveline
          7 18 21 3 23 hhcurveto
          42 35 -11 -14 19 hvcurveto
          12 51 121 callgsubr
          106 86 61 62 42 hvcurveto
          -30 29 37 -18 28 41 90 39 35 hhcurveto
          21 12 334 callgsubr
          -14 -25 2 6 -16 hvcurveto
          27 -14 -32 48 -27 hhcurveto
          -26 -40 277 callsubr
          36 -54 31 -82 21 21 callsubr
          12 -2 14 -4 14 hvcurveto
          8 1 9 0 8 1 24 1 23 4 18 6 rrcurveto
          -180 -106 callsubr
        </CharString>
        <CharString name="dvB_J_YA">
          918 1289 -89 callgsubr
          -974 -347 rmoveto
          -11 -24 -26 -6 -28 hhcurveto
          -64 -44 34 67 31 10 26 17 20 hvcurveto
          1373 186 -90 callsubr
          -1529 -107 callgsubr
          1018 -47 callgsubr
          -30 -7 -23 -15 -18 vhcurveto
          16 -69 -84 17 -75 hhcurveto
          -81 56 callgsubr
          56 -65 -60 vvcurveto
          -47 -30 -18 -36 -104 -69 12 callgsubr
          -1 -87 -25 -66 -42 -41 -156 159 rcurveline
          7 17 20 3 22 hhcurveto
          44 35 -11 -13 19 hvcurveto
          13 50 rlineto
          36 -29 -55 23 -56 hhcurveto
          -94 -101 -57 -122 -114 85 -88 120 104 100 72 104 30 hvcurveto
          -119 53 80 -93 108 hhcurveto
          74 52 45 78 60 -32 447 callsubr
          135 hlineto
          -103 15 73 -121 156 -97 callgsubr
        </CharString>
        <CharString name="dvB_JxA">
          591 723 20 rmoveto
          55 callgsubr
          -415 169 rmoveto
          -12 -25 -28 -6 -29 hhcurveto
          -55 -45 38 63 31 9 25 17 20 hvcurveto
          1050 181 -90 callsubr
          -1208 -52 callgsubr
          969 -110 -243 56 callgsubr
          54 -65 -60 vvcurveto
          -46 -31 -18 -33 -104 -69 158 18 callgsubr
          -1 -86 -28 -67 -45 -42 -155 159 rcurveline
          7 17 20 4 21 hhcurveto
          49 36 -11 -13 19 hvcurveto
          12 50 121 callgsubr
          108 97 78 111 24 hvcurveto
          -125 54 81 -100 111 hhcurveto
          91 36 67 62 58 -33 52 -27 32 hvcurveto
          178 -309 81 callsubr
        </CharString>
        <CharString name="dvB_LA">
          505 306 187 rmoveto
          -15 -27 -29 -10 -29 hhcurveto
          -52 -42 238 callsubr
          962 188 -80 callsubr
          -1125 -107 callgsubr
          885 -84 hlineto
          138 callgsubr
          hvcurveto
          -6 vlineto
          -11 -23 -18 -23 -20 -20 -148 151 rcurveline
          7 33 callgsubr
          80 65 46 51 40 hvcurveto
          42 -83 81 -68 60 -43 328 callsubr
          -1 callgsubr
          57 -19 43 -65 callgsubr
          endchar
        </CharString>
        <CharString name="dvB_L_YA">
          908 1280 -89 callgsubr
          -979 -342 rmoveto
          -15 -26 -29 -10 -29 hhcurveto
          -52 -43 238 callsubr
          1377 188 -80 callsubr
          -1541 -107 callgsubr
          1024 -47 callgsubr
          -52 -20 -30 -49 -21 vhcurveto
          74 -26 -53 26 -53 hhcurveto
          -69 -44 97 callgsubr
          -17 -45 60 358 callsubr
          -48 -108 hvcurveto
          -2 vlineto
          -11 -25 -18 -24 -22 -21 177 callgsubr
          81 66 47 51 40 hvcurveto
          42 -83 81 -69 60 -43 15 150 callgsubr
          23 17 -18 -23 9 hvcurveto
          0 vlineto
          -104 14 71 -125 160 -97 callgsubr
        </CharString>
        <CharString name="dvB_NA">
          -1 120 callgsubr
          243 175 -90 callsubr
          -620 285 callgsubr
          -69 40 -67 72 -32 hvcurveto
          -22 -10 -24 -11 -5 -2 -30 -17 -23 -18 4 -27 341 callgsubr
          20 187 97 rcurveline
          -119 -92 callsubr
        </CharString>
        <CharString name="dvB_R">
          -213 224 callgsubr
          407 -80 callgsubr
          -66 -422 rmoveto
          -11 -24 -26 -7 -27 hhcurveto
          -52 -40 29 62 29 9 25 17 19 hvcurveto
          252 -38 rmoveto
          -11 -27 -22 -27 -27 -23 -142 147 rcurveline
          5 16 18 3 20 hhcurveto
          49 123 callsubr
          -56 hhcurveto
          -94 -100 -56 -123 -81 54 -71 87 -23 hvcurveto
          -127 -72 249 callgsubr
          344 229 rlineto
          endchar
        </CharString>
        <CharString name="dvB_RA">
          -5 120 callgsubr
          240 175 -90 callsubr
          -617 285 callgsubr
          -76 49 -75 88 -26 hvcurveto
          -126 -72 8 -25 29 -36 18 -13 rlinecurve
          264 176 rlineto
          -122 -106 callsubr
        </CharString>
        <CharString name="dvB_SA">
          441 812 341 rmoveto
          -16 -35 -45 -8 -45 -85 callsubr
          204 hlineto
          -508 -342 rmoveto
          -15 -27 -28 -9 -29 hhcurveto
          -52 -42 32 68 32 10 26 17 20 hvcurveto
          899 188 -90 callsubr
          -1062 -107 callgsubr
          519 272 callsubr
          -4 0 -5 1 -4 hvcurveto
          -12 -26 -18 -25 -23 -22 52 callsubr
          -101 -56 -123 -113 86 -88 119 87 72 55 58 39 hvcurveto
          49 -79 84 -100 51 -50 17 6 33 151 callgsubr
        </CharString>
        <CharString name="dvB_SHA">
          509 311 181 rmoveto
          -11 -24 -29 -7 -33 hhcurveto
          -51 -48 329 callsubr
          966 188 -54 callsubr
          -1141 -107 callgsubr
          486 hlineto
          -7 -15 -4 -18 -21 vvcurveto
          -65 53 -54 85 -31 vhcurveto
          7 5 12 19 3 259 callgsubr
          30 27 vvcurveto
          47 30 25 35 50 23 -38 -61 -82 -70 -76 -59 -15 vhcurveto
          23 -25 -27 21 -35 hhcurveto
          -39 -24 -29 -31 -29 hvcurveto
          -8 -9 -8 -8 -9 -8 -156 160 rcurveline
          6 17 20 3 22 hhcurveto
          44 34 -10 -14 20 239 callsubr
          -57 hhcurveto
          -93 143 callgsubr
          120 89 70 52 56 47 hvcurveto
          -18 19 27 -3 17 hhcurveto
          8 8 0 1 6 hvcurveto
          50 -62 63 -90 40 -77 24 11 43 33 9 21 -27 48 -88 86 -57 48 rrcurveto
          86 35 113 148 callgsubr
          34 -22 25 vhcurveto
          127 -508 hlineto
          -57 callsubr
        </CharString>
        <CharString name="dvB_TA">
          344 307 187 rmoveto
          -16 -27 -29 -9 -29 hhcurveto
          -52 -42 238 callsubr
          799 188 -54 callsubr
          -963 -52 callgsubr
          724 300 callsubr
          hvcurveto
          -12 vlineto
          -10 -16 -13 -16 -15 -14 52 callsubr
          -100 193 callgsubr
          119 71 61 36 45 40 hvcurveto
          30 -72 49 -72 37 -48 13 3 30 23 11 14 rrcurveto
          -34 32 callgsubr
        </CharString>
        <CharString name="dvB_VA">
          354 725 274 callgsubr
          -419 -164 rmoveto
          -15 -27 -29 -10 -29 hhcurveto
          -52 -42 238 callsubr
          810 188 -90 callsubr
          -973 -52 callgsubr
          735 -13 callgsubr
          -91 387 callgsubr
          -6 0 -5 1 -6 hvcurveto
          -11 -18 -15 -18 -16 -16 -148 151 rcurveline
          7 33 callgsubr
          77 63 42 49 41 hvcurveto
          -53 33 59 -38 79 hhcurveto
          56 182 callsubr
          hvcurveto
          -108 -106 callsubr
        </CharString>
        <CharString name="dvB_YA">
          381 752 -89 callgsubr
          -446 -342 rmoveto
          -15 -26 -29 -9 -28 hhcurveto
          -54 -43 329 callsubr
          838 188 -90 callsubr
          -1001 -52 callgsubr
          491 139 callsubr
          2 -18 4 -18 6 -18 -11 -20 -15 -18 -18 -17 -148 153 rcurveline
          6 33 callgsubr
          82 70 50 56 42 hvcurveto
          -53 40 62 -40 89 -97 callgsubr
        </CharString>
        <CharString name="dvC">
          -156 353 446 rmoveto
          -346 hlineto
          1 -35 14 -32 17 -22 rrcurveto
          107 162 callgsubr
          67 54 27 46 52 vhcurveto
          -10 129 rlineto
          -72 -28 -75 -46 -70 hhcurveto
          -52 83 callsubr
          71 172 rmoveto
          -466 -107 callgsubr
          466 -80 callgsubr
          endchar
        </CharString>
        <CharString name="dvCA">
          74 685 529 -80 callsubr
          -695 -107 callgsubr
          455 -276 hlineto
          -43 -36 -55 -25 -52 hhcurveto
          -52 83 callsubr
          -346 hlineto
          1 -35 14 -32 17 -22 rrcurveto
          107 162 callgsubr
          50 43 15 27 40 vhcurveto
          -122 -92 callsubr
        </CharString>
        <CharString name="dvCH">
          107 686 618 rmoveto
          -728 -107 callgsubr
          728 -80 callgsubr
          -520 -133 rmoveto
          158 callgsubr
          184 142 123 183 118 -65 88 -103 -79 -49 -53 -72 -47 callsubr
          endchar
        </CharString>
        <CharString name="dvCHA">
          120 542 529 rmoveto
          176 -80 callgsubr
          -728 -107 callgsubr
          466 -41 hlineto
          -66 -9 -40 -50 -65 vvcurveto
          -47 callsubr
          158 callgsubr
          184 142 123 183 91 -39 73 -65 29 vhcurveto
          endchar
        </CharString>
        <CharString name="dvCH_RA">
          107 542 529 rmoveto
          176 -80 callgsubr
          -728 -107 callgsubr
          466 -41 hlineto
          -66 -9 -40 -50 -65 vvcurveto
          -47 callsubr
          158 callgsubr
          vhcurveto
          15 hlineto
          -170 -102 6 -21 37 -47 19 301 callsubr
          131 -107 12 7 30 30 8 15 rlinecurve
          -167 124 rlineto
          143 31 102 112 155 vvcurveto
          91 -39 73 -65 29 vhcurveto
          endchar
        </CharString>
        <CharString name="dvCH_R_YA">
          701 98 callgsubr
          -1333 -107 callgsubr
          464 -43 hlineto
          -58 -13 -42 -48 -63 vvcurveto
          -76 62 -49 64 -27 -33 callsubr
          35 -5 -29 68 -89 hhcurveto
          -81 -52 -56 -68 -59 40 -49 73 -25 hvcurveto
          -26 -25 -14 -31 -36 vvcurveto
          -86 73 -68 126 -5 vhcurveto
          -190 -114 234 callsubr
          31 30 7 16 rlinecurve
          -172 128 rlineto
          170 11 130 120 174 vvcurveto
          22 -2 21 -5 19 vhcurveto
          38 54 70 34 62 380 callsubr
          -69 410 callsubr
          15 69 callgsubr
        </CharString>
        <CharString name="dvCH_YA">
          710 98 callgsubr
          -1335 -107 callgsubr
          466 -43 hlineto
          -58 -13 -42 -48 -63 vvcurveto
          -76 62 -49 64 -27 -33 callsubr
          35 -5 -29 68 -89 hhcurveto
          -81 -52 -56 -68 -59 40 -49 73 -25 hvcurveto
          -26 -25 -14 -31 -36 vvcurveto
          -89 79 -70 135 183 143 123 183 22 -2 21 -5 19 vhcurveto
          38 54 70 34 62 380 callsubr
          -69 410 callsubr
          15 69 callgsubr
        </CharString>
        <CharString name="dvC_CA">
          374 446 357 rmoveto
          -18 -18 -13 -31 -33 vvcurveto
          -13 2 -12 3 -13 vhcurveto
          -33 -35 -47 -19 -46 hhcurveto
          -52 210 callgsubr
          645 172 -90 callsubr
          -995 -107 callgsubr
          756 360 callsubr
          28 64 hvcurveto
          34 hlineto
          35 -15 26 -78 callsubr
          -642 hlineto
          -34 15 -26 18 -23 vhcurveto
          92 162 callgsubr
          61 49 23 39 50 vhcurveto
          -37 34 52 -25 65 hhcurveto
          51 41 15 28 41 hvcurveto
          -123 -106 callsubr
        </CharString>
        <CharString name="dvC_CHA">
          478 914 529 rmoveto
          175 -45 callsubr
          -1121 -107 callgsubr
          859 -41 hlineto
          -66 -9 -40 -50 -65 vvcurveto
          -77 58 -48 68 -29 -33 callsubr
          33 -5 -28 70 -91 hhcurveto
          -80 -52 -54 -67 -58 37 -50 68 -25 hvcurveto
          -63 -59 -58 -35 -81 hhcurveto
          -64 -46 26 50 65 75 29 64 hvcurveto
          30 hlineto
          -1 35 -14 31 -17 23 rrcurveto
          -335 hlineto
          1 -35 14 -31 18 -23 rrcurveto
          106 hlineto
          -18 -17 -13 -31 -33 vvcurveto
          -86 76 -89 136 59 54 14 31 48 vhcurveto
          -67 22 73 -48 112 hhcurveto
          184 142 123 183 91 -39 73 -65 29 hvcurveto
          endchar
        </CharString>
        <CharString name="dvC_CH_VA">
          504 836 -74 rmoveto
          -46 -35 -53 -24 -47 hhcurveto
          -54 -31 32 41 56 54 25 58 7 hvcurveto
          36 4 37 8 35 13 rrcurveto
          120 487 rmoveto
          160 -80 callgsubr
          -1126 -107 callgsubr
          880 -33 -1 hlineto
          -74 -56 -54 -72 -75 60 -50 66 -28 hvcurveto
          10 8 13 18 3 15 rrcurveto
          -36 26 -21 27 42 vvcurveto
          50 30 18 26 30 35 -27 -72 -133 -126 -98 -130 -59 -44 17 47 51 67 26 54 5 vhcurveto
          -10 33 -18 23 -19 20 -24 -5 -30 -9 -31 -16 rrcurveto
          -34 5 -37 28 42 vvcurveto
          33 23 28 43 35 19 -18 -25 16 vhcurveto
          10 2 10 5 8 7 rrcurveto
          32 -5 -27 71 -92 hhcurveto
          -80 -52 -55 -65 -61 43 -46 67 -22 hvcurveto
          -74 -65 -59 -40 -87 hhcurveto
          -64 -45 26 49 66 74 29 64 hvcurveto
          30 hlineto
          34 -15 32 -78 callsubr
          -335 hlineto
          -34 15 -33 -94 callgsubr
          107 hlineto
          -18 -18 -13 -31 -33 vvcurveto
          -86 76 -88 128 74 62 18 42 51 vhcurveto
          15 -26 25 -22 34 -15 rrcurveto
          -33 -22 -22 -30 -45 vvcurveto
          -78 73 -86 117 45 39 12 18 31 vhcurveto
          -85 vlineto
          -21 46 -19 43 vhcurveto
          403 vlineto
          65 46 45 68 94 vvcurveto
          75 -31 63 -48 34 vhcurveto
          endchar
        </CharString>
        <CharString name="dvC_MA">
          413 785 22 callgsubr
          335 callgsubr
          -18 22 vhcurveto
          -1031 -107 callgsubr
          481 370 callsubr
          -5 -6 -2 -12 -13 vvcurveto
          -10 4 -12 7 -13 vhcurveto
          -15 -28 -31 -8 -30 hhcurveto
          -51 83 callsubr
          -345 hlineto
          1 -35 13 -32 18 -22 rrcurveto
          106 162 callgsubr
          49 43 15 25 39 vhcurveto
          -19 21 23 -14 17 hhcurveto
          337 callgsubr
          7 hvcurveto
          17 34 callsubr
        </CharString>
        <CharString name="dvC_NA">
          75 686 529 -80 callsubr
          -697 -107 callgsubr
          457 -276 hlineto
          -43 -36 -54 -25 -53 hhcurveto
          -52 83 callsubr
          -346 hlineto
          1 -35 14 -32 18 -22 rrcurveto
          106 hlineto
          -18 -18 -13 -31 -33 vvcurveto
          -60 38 -63 66 -31 vhcurveto
          -55 -25 -30 -16 -23 -18 4 -28 rlinecurve
          341 callgsubr
          21 199 97 rcurveline
          -117 -92 callsubr
        </CharString>
        <CharString name="dvC_R">
          -164 416 618 rmoveto
          -458 -107 callgsubr
          458 -80 callgsubr
          -66 -165 rmoveto
          -345 362 callsubr
          -70 51 -74 90 -22 vhcurveto
          -120 -69 8 -25 28 -36 18 -12 rlinecurve
          72 45 227 158 8 5 -22 128 rcurveline
          -72 -27 -75 -46 -71 hhcurveto
          -52 -44 225 callsubr
          34 hlineto
          35 -14 31 -18 23 vhcurveto
          endchar
        </CharString>
        <CharString name="dvC_RA">
          73 684 -73 callsubr
          -694 -107 callgsubr
          455 -268 262 callgsubr
          -346 362 callsubr
          -69 50 -73 86 -24 vhcurveto
          -113 -65 249 callgsubr
          253 172 rlineto
          -128 -106 callsubr
        </CharString>
        <CharString name="dvC_YA">
          413 784 -35 callsubr
          -1034 -107 callgsubr
          523 139 callsubr
          4 -27 7 -29 12 -27 rrcurveto
          -38 -35 -52 -23 -50 hhcurveto
          -52 83 callsubr
          -345 hlineto
          1 -35 13 -32 18 -22 rrcurveto
          106 162 callgsubr
          68 55 27 46 50 vhcurveto
          -43 40 57 -31 79 -97 callgsubr
        </CharString>
        <CharString name="dvCandrabindu">
          62 callsubr
        </CharString>
        <CharString name="dvD">
          -28 343 -76 183 callgsubr
          -37 13 9 16 14 7 11 -33 42 -88 92 -79 29 rrcurveto
          80 605 rmoveto
          160 -67 callsubr
          -593 -107 callgsubr
          334 -81 hlineto
          2 -15 -17 1 -17 hhcurveto
          -158 -79 -92 -112 -122 96 330 callsubr
          hvcurveto
          -55 callsubr
        </CharString>
        <CharString name="dvDA">
          -28 423 529 rmoveto
          160 -67 callsubr
          -593 -107 callgsubr
          334 -81 hlineto
          2 -15 -17 1 -17 hhcurveto
          -158 -79 -92 -112 -122 96 330 callsubr
          hvcurveto
          -55 callsubr
        </CharString>
        <CharString name="dvDA_mvR">
          -112 377 529 rmoveto
          121 -45 callsubr
          -509 -107 callgsubr
          292 -50 hlineto
          -14 1 -34 1 -17 -1 rrcurveto
          -79 -1 -85 -17 -84 vvcurveto
          -47 27 -38 41 -37 vhcurveto
          -39 -25 -23 -35 -47 vvcurveto
          -82 69 -64 113 88 61 32 43 51 vhcurveto
          -11 28 -14 22 -18 20 rrcurveto
          -27 -26 -52 -40 -84 hhcurveto
          -60 -29 25 35 64 92 23 131 1 hvcurveto
          -5 26 -12 32 -14 17 rrcurveto
          -62 -56 -8 -14 -45 hvcurveto
          -21 21 -12 23 25 vvcurveto
          26 13 20 92 vhcurveto
          29 39 -2 21 hhcurveto
          13 27 33 22 hvcurveto
          endchar
        </CharString>
        <CharString name="dvDD">
          -46 442 529 rmoveto
          122 -67 callsubr
          -570 -107 callgsubr
          348 -72 -116 hlineto
          -87 -55 352 callgsubr
          52 hvcurveto
          45 92 39 34 hhcurveto
          22 12 -12 -22 -52 -63 -52 -93 -82 244 callgsubr
          rrcurveto
          -101 73 98 -58 105 hhcurveto
          108 84 65 93 56 -47 97 -74 hvcurveto
          -57 -106 -39 -23 hhcurveto
          -13 -14 10 33 57 47 15 99 hvcurveto
          55 15 -3 26 hhcurveto
          15 9 18 23 4 20 rrcurveto
          -125 -501 183 callgsubr
          -36 13 8 16 14 7 12 -33 41 358 callgsubr
        </CharString>
        <CharString name="dvDDA">
          -52 438 529 rmoveto
          122 -80 callgsubr
          -570 -24 callgsubr
          rrcurveto
          -101 73 98 -58 104 165 callgsubr
          -47 97 -75 hvcurveto
          -57 -105 -39 -23 hhcurveto
          -13 89 callsubr
        </CharString>
        <CharString name="dvDDH">
          -29 335 169 rmoveto
          43 23 35 37 25 19 -16 -29 -45 -37 -33 -52 -15 vhcurveto
          302 callsubr
          84 360 rmoveto
          163 -80 callgsubr
          -593 -107 callgsubr
          331 -81 hlineto
          2 -17 -14 119 callsubr
          25 27 -4 -2 22 hvcurveto
          15 6 17 23 4 17 rrcurveto
          -83 -460 105 callgsubr
          -18 9 -50 7 -15 vhcurveto
          3 18 26 2 22 hhcurveto
          24 17 -1 -5 18 hvcurveto
          57 -18 69 329 callgsubr
        </CharString>
        <CharString name="dvDDHA">
          -29 351 109 98 callsubr
          -14 33 -18 65 callgsubr
          26 26 -4 -2 22 hvcurveto
          15 6 18 23 3 17 rrcurveto
          endchar
        </CharString>
        <CharString name="dvDDH_DDHA">
          -51 324 -155 rmoveto
          307 callsubr
          403 vmoveto
          307 callsubr
          77 -91 rmoveto
          43 27 24 39 40 vvcurveto
          64 -63 37 453 callgsubr
          vhcurveto
          431 callsubr
          29 56 131 399 callgsubr
          79 158 -65 callsubr
          -569 -107 callgsubr
          325 -48 hlineto
          1 -12 -12 1 -20 hhcurveto
          -140 -82 -76 -96 -95 77 -93 145 15 15 1 2 14 hvcurveto
          -48 vlineto
          1 -12 -12 1 -20 hhcurveto
          -140 -82 -75 -97 -95 77 -93 145 122 75 70 70 65 -63 36 453 callgsubr
          hvcurveto
          431 callsubr
          32 56 128 399 callgsubr
          endchar
        </CharString>
        <CharString name="dvDDH_R">
          -29 336 169 rmoveto
          43 23 35 37 25 19 -16 -29 -45 -37 -33 -52 -15 vhcurveto
          302 callsubr
          116 -314 rmoveto
          12 7 31 30 7 15 -163 122 rcurveline
          103 16 68 65 81 vvcurveto
          146 callsubr
          121 163 -65 callsubr
          -593 -107 callgsubr
          331 -81 hlineto
          2 -16 -15 1 -19 hhcurveto
          -153 -83 -90 -105 -133 97 -91 141 -7 hvcurveto
          -174 -104 7 -21 37 -47 18 301 callsubr
          rlineto
          53 -113 rmoveto
          6 -16 -32 5 -31 hhcurveto
          -17 -25 44 callsubr
          -36 14 8 15 14 8 11 -34 42 -87 336 callgsubr
        </CharString>
        <CharString name="dvDDH_RA">
          -1 356 455 callsubr
          24 35 37 24 20 -16 -29 vhcurveto
          -1 -45 -37 -33 -52 -15 rrcurveto
          70 420 rmoveto
          163 -80 callgsubr
          -593 -11 callsubr
          330 -81 hlineto
          2 -16 -14 1 -19 hhcurveto
          -153 -83 -90 -105 -131 94 -91 138 -8 hvcurveto
          -174 -105 234 callsubr
          31 30 7 15 rlinecurve
          -162 121 rlineto
          106 15 70 65 83 vvcurveto
          75 -57 44 -69 -75 -46 283 callgsubr
          vhcurveto
          53 callgsubr
          25 26 -4 -2 23 hvcurveto
          14 6 18 23 4 17 rrcurveto
          endchar
        </CharString>
        <CharString name="dvDDH_YA">
          549 920 210 rmoveto
          -29 -26 -43 -24 -65 hhcurveto
          -64 -49 23 43 -28 hvcurveto
          106 27 39 62 52 vvcurveto
          91 -117 23 -137 -36 -40 -2 -4 -41 vhcurveto
          57 501 vlineto
          -497 -274 rmoveto
          26 19 -18 -29 -40 -39 -40 -52 -13 hvcurveto
          -8 16 -6 23 21 vvcurveto
          42 23 38 37 vhcurveto
          736 274 -54 callsubr
          -1169 -107 callgsubr
          329 -71 hlineto
          -21 -5 -21 -5 -19 -6 rrcurveto
          -119 -28 -78 -63 -108 vvcurveto
          -125 106 -93 143 162 64 95 71 78 -54 49 -71 -74 -47 -49 -71 -32 13 -38 21 -27 vhcurveto
          -22 -2 -22 1 -21 5 rrcurveto
          -64 9 -42 44 68 vvcurveto
          56 40 57 118 32 vhcurveto
          17 56 93 14 114 hhcurveto
          105 34 -15 -19 213 callsubr
        </CharString>
        <CharString name="dvDDHxA">
          -24 311 -28 rmoveto
          55 callgsubr
          41 137 98 callsubr
          -15 33 -17 65 callgsubr
          25 27 -4 -2 22 hvcurveto
          15 6 17 23 4 17 rrcurveto
          endchar
        </CharString>
        <CharString name="dvDD_DDA">
          -31 429 529 rmoveto
          151 -80 callgsubr
          -590 -107 callgsubr
          350 -53 -120 hlineto
          -87 -50 -43 -74 -85 87 -64 48 hvcurveto
          44 88 39 34 hhcurveto
          21 14 -13 -18 -38 -57 -43 -93 -78 -52 31 72 -58 hvcurveto
          -15 -8 -17 -15 -11 -14 28 -39 31 -30 31 -22 rrcurveto
          -31 -22 -14 -32 -36 vvcurveto
          -82 87 -66 48 vhcurveto
          46 87 38 33 hhcurveto
          21 14 -11 -19 -35 -55 -47 -93 -78 -54 32 72 -58 hvcurveto
          -15 -8 -19 -12 -9 -18 rrcurveto
          -101 74 87 -46 94 hhcurveto
          108 82 60 75 54 -52 90 -67 -56 -93 -38 -1 -23 hvcurveto
          -12 -18 8 31 41 29 6 102 11 hvcurveto
          92 10 98 41 83 vvcurveto
          49 -46 94 -75 vhcurveto
          -55 -94 -38 -23 hhcurveto
          -13 -1 -16 15 28 vvcurveto
          49 45 11 93 vhcurveto
          54 9 -2 26 hhcurveto
          12 29 30 20 hvcurveto
          endchar
        </CharString>
        <CharString name="dvDD_DDHA">
          -49 367 -198 rmoveto
          -4 12 -5 13 14 vvcurveto
          33 16 28 29 21 12 -14 -19 -27 -29 -27 -40 -13 vhcurveto
          68 727 rmoveto
          128 -80 callgsubr
          -573 -107 callgsubr
          356 -67 -117 hlineto
          -88 -53 -42 -69 -96 86 -58 51 hvcurveto
          42 90 39 33 hhcurveto
          21 13 -11 -22 -41 -58 -40 -89 -79 -53 33 70 -59 hvcurveto
          -15 -7 -18 -14 -9 -17 37 -52 43 -38 46 -24 rrcurveto
          -63 -31 -34 -60 -67 vvcurveto
          -102 1 90 -94 142 hhcurveto
          122 75 65 76 61 -58 43 -60 -64 -28 -42 -45 -35 12 -28 14 -19 hvcurveto
          -19 -19 2 3 -17 hvcurveto
          -63 10 -38 39 58 vvcurveto
          80 75 36 70 19 vhcurveto
          69 15 111 19 100 vvcurveto
          54 -45 89 -76 vhcurveto
          -49 -103 -38 -21 hhcurveto
          -13 -15 13 30 45 35 14 120 hvcurveto
          45 5 -2 24 hhcurveto
          12 28 31 20 hvcurveto
          endchar
        </CharString>
        <CharString name="dvDD_R">
          -52 426 -186 rmoveto
          12 7 31 30 8 16 -161 119 rcurveline
          100 7 77 63 88 211 callsubr
          107 122 248 callgsubr
          -570 -24 callgsubr
          63 -87 81 -55 87 -14 -182 -109 rcurveline
          6 -21 37 -47 19 -11 160 121 rcurveline
          50 -100 105 callgsubr
          -18 10 -50 7 -15 vhcurveto
          176 callsubr
          -1 -5 18 hvcurveto
          57 -18 68 329 callgsubr
        </CharString>
        <CharString name="dvDD_RA">
          -54 438 529 rmoveto
          122 -80 callgsubr
          -570 -24 callgsubr
          64 -89 83 -55 90 -12 -181 -109 rcurveline
          7 -21 37 -47 19 -11 160 121 rcurveline
          130 -108 12 7 31 30 8 16 rlinecurve
          -162 120 rlineto
          97 8 73 63 86 211 callsubr
          endchar
        </CharString>
        <CharString name="dvDD_VA">
          -46 355 -51 rmoveto
          -48 -33 -52 -25 -48 hhcurveto
          -54 -31 33 39 61 67 40 72 3 hvcurveto
          1 3 9 0 3 hhcurveto
          23 1 21 3 20 5 rrcurveto
          71 467 rmoveto
          139 -80 callgsubr
          -575 -107 callgsubr
          347 -59 -120 hlineto
          -91 -46 -42 -73 -85 87 -64 48 hvcurveto
          46 88 39 32 hhcurveto
          21 14 -13 -17 -38 -57 -42 -92 -79 -51 30 70 -59 hvcurveto
          -15 -9 -17 -14 -10 -15 33 -45 36 -34 38 -22 rrcurveto
          -55 -26 -36 -44 -59 vvcurveto
          -82 73 -85 116 46 37 13 19 31 vhcurveto
          -91 vlineto
          -21 47 -19 43 vhcurveto
          408 vlineto
          22 22 13 26 30 vvcurveto
          48 -46 95 -74 -56 -94 -38 -1 -22 vhcurveto
          -14 -1 -16 15 27 vvcurveto
          49 46 9 93 vhcurveto
          54 9 -2 26 hhcurveto
          12 28 30 20 hvcurveto
          endchar
        </CharString>
        <CharString name="dvDD_YA">
          561 933 4 callsubr
          -51 48 -70 hhcurveto
          -109 -98 -101 -112 -58 hvcurveto
          16 -18 -21 10 -24 -57 -105 -39 -24 hhcurveto
          -12 1 callgsubr
          107 511 vlineto
          370 callgsubr
          -1198 -24 callgsubr
          rrcurveto
          -101 73 98 -58 104 hhcurveto
          108 85 65 93 14 -3 15 -5 17 hvcurveto
          91 32 79 136 101 hhcurveto
          28 19 -11 -20 -40 -70 410 callsubr
          15 68 -126 155 hhcurveto
          52 41 16 16 29 hvcurveto
          -81 -31 callgsubr
        </CharString>
        <CharString name="dvDDxA">
          -72 287 -55 rmoveto
          55 callsubr
          147 584 rmoveto
          122 -45 callsubr
          -570 -52 callgsubr
          348 -72 -115 hlineto
          -88 -54 -41 -76 -101 90 -69 52 hvcurveto
          46 92 39 34 hhcurveto
          21 13 -12 -22 -52 -63 -52 -94 -82 -63 45 69 -59 hvcurveto
          -15 -6 -20 -15 -8 -19 rrcurveto
          -101 74 97 42 callsubr
        </CharString>
        <CharString name="dvDH">
          -110 500 -73 callsubr
          -91 hlineto
          2 -34 13 -34 17 -21 rrcurveto
          95 -234 rmoveto
          -57 -30 -77 -62 -76 -50 callgsubr
          218 callsubr
          77 -61 105 82 81 38 52 48 vhcurveto
          endchar
        </CharString>
        <CharString name="dvDHA">
          106 716 529 -54 callsubr
          -313 hlineto
          -34 18 235 callsubr
          69 -266 hlineto
          -50 -37 -60 -37 -60 hhcurveto
          -57 86 callgsubr
          -23 31 -18 17 -35 -7 -34 -11 -30 -43 callsubr
          59 19 33 36 40 vvcurveto
          52 -39 36 -74 218 callsubr
          78 -61 104 58 54 17 27 43 vhcurveto
          -119 -92 callsubr
        </CharString>
        <CharString name="dvDH_MA">
          451 822 300 rmoveto
          2 -36 -45 -5 callsubr
          211 vlineto
          245 callsubr
          -657 -107 callgsubr
          107 363 callsubr
          -9 4 -12 6 -12 vhcurveto
          -21 -32 -37 -13 -40 hhcurveto
          -57 86 callgsubr
          -23 31 -18 17 -35 -7 -34 -11 -30 -43 callsubr
          59 19 33 36 40 vvcurveto
          52 -39 36 -74 218 callsubr
          78 -61 104 57 56 18 29 46 vhcurveto
          -21 21 23 -14 18 hhcurveto
          134 callgsubr
          hvcurveto
          264 callgsubr
          30 hhcurveto
          40 -1 37 -2 35 -4 rrcurveto
          -195 -92 callsubr
        </CharString>
        <CharString name="dvDH_NA">
          105 715 -73 callsubr
          -312 hlineto
          -34 18 -105 callgsubr
          70 -266 hlineto
          -50 -37 -60 -37 -61 -13 callsubr
          464 callgsubr
          54 callgsubr
          -63 36 -48 57 -25 vhcurveto
          -45 -20 -31 -16 -22 -19 4 -27 rlinecurve
          5 204 callgsubr
          -6 20 hvcurveto
          207 101 rlineto
          -117 -106 callsubr
        </CharString>
        <CharString name="dvDH_N_YA">
          450 821 -35 callsubr
          -650 -107 callgsubr
          139 139 callsubr
          3 -25 7 -26 10 -25 rrcurveto
          -45 -37 -56 -32 -57 hhcurveto
          -57 86 callgsubr
          -23 5 callgsubr
          35 32 32 26 446 callsubr
          -14 268 callsubr
          11 37 callsubr
          -74 464 callgsubr
          -61 42 -53 70 -25 vhcurveto
          -23 -25 -13 -31 -37 vvcurveto
          -63 36 -48 56 -24 vhcurveto
          -48 -22 424 callgsubr
          rlinecurve
          -52 5 74 -65 29 hhcurveto
          19 -1 24 17 13 vvcurveto
          1 23 -15 50 -6 21 262 127 rcurveline
          -38 39 54 -26 73 -97 callgsubr
        </CharString>
        <CharString name="dvDH_R">
          -119 459 618 rmoveto
          -90 hlineto
          -34 18 -105 callgsubr
          87 -80 callgsubr
          -123 -199 rmoveto
          -35 -8 -34 -10 -30 -16 rrcurveto
          -38 12 -37 33 55 vvcurveto
          55 324 callgsubr
          446 callsubr
          -14 -14 -26 -14 callgsubr
          464 callgsubr
          -60 40 -55 69 -25 vhcurveto
          -21 -25 -13 -30 -37 vvcurveto
          -71 47 -52 67 -19 vhcurveto
          -138 -70 249 callgsubr
          362 208 -30 136 rlineto
          -69 -29 -79 -62 -76 hhcurveto
          -57 -28 33 35 53 74 33 72 311 callgsubr
          -23 31 -18 17 rrcurveto
          endchar
        </CharString>
        <CharString name="dvDH_RA">
          110 713 529 -80 callsubr
          -312 hlineto
          -34 18 -105 callgsubr
          77 -266 hlineto
          -49 -37 -61 -38 -60 -50 callsubr
          464 callgsubr
          -60 42 -54 69 -25 vhcurveto
          -22 -25 -14 -30 -38 187 callsubr
        </CharString>
        <CharString name="dvDH_VA">
          428 799 0 callsubr
          -17 27 hvcurveto
          242 177 -90 callsubr
          -637 hlineto
          2 -34 13 -34 17 -21 rrcurveto
          395 -109 hlineto
          424 callsubr
          -92 387 callgsubr
          -12 1 -13 2 -12 hvcurveto
          -42 -38 -58 -35 -57 -50 callsubr
          218 callsubr
          77 -61 104 71 70 28 40 48 vhcurveto
          -46 35 55 -31 73 hhcurveto
          284 callgsubr
          hvcurveto
          -108 -92 callsubr
        </CharString>
        <CharString name="dvDH_YA">
          443 814 68 callgsubr
          -27 7 -28 12 -27 rrcurveto
          -39 -38 -54 -31 -55 hhcurveto
          -57 -29 32 35 53 74 34 322 callgsubr
          -23 31 -18 17 -34 -7 -35 -11 -29 -15 rrcurveto
          -41 12 -36 33 54 vvcurveto
          54 324 callgsubr
          13 -16 -21 -26 -14 -13 -27 -19 vhcurveto
          3 -9 10 -17 9 -7 rrcurveto
          59 19 33 36 40 vvcurveto
          52 -39 35 -74 -104 -55 -71 -73 -61 42 -54 69 -24 vhcurveto
          -22 -25 -14 -30 -38 vvcurveto
          -92 78 -61 104 73 74 30 44 48 vhcurveto
          -42 39 57 -29 77 -97 callgsubr
        </CharString>
        <CharString name="dvD_BA">
          -19 234 38 rmoveto
          8 29 33 3 29 hhcurveto
          425 callgsubr
          -6 -42 -18 -38 -25 -28 rrcurveto
          -43 -34 rmoveto
          -10 -18 -20 -5 -20 hhcurveto
          -36 -42 18 49 25 11 19 17 14 hvcurveto
          239 516 rmoveto
          173 -80 callgsubr
          -603 -107 callgsubr
          331 56 callsubr
          -73 62 -68 99 107 78 86 84 16 vhcurveto
          13 -21 14 -28 -68 callgsubr
        </CharString>
        <CharString name="dvD_BHA">
          263 706 529 rmoveto
          168 -80 callgsubr
          -883 -107 callgsubr
          616 -72 145 callsubr
          -158 -84 -82 -120 -86 59 -84 90 -37 hvcurveto
          -48 -19 -42 -17 -14 -6 -47 104 rcurveline
          97 -43 -63 31 -54 hhcurveto
          -68 -70 -46 -77 -81 67 -46 82 -7 hvcurveto
          16 -2 19 0 23 2 5 10 -1 23 -1 15 rrcurveto
          -74 6 -54 35 50 vvcurveto
          31 16 20 32 31 26 -32 -52 24 vhcurveto
          54 -116 -62 -31 -9 -25 12 -26 rlinecurve
          23 -52 87 -34 37 2 15 1 19 6 7 20 6 21 -6 55 -12 33 57 25 113 45 73 27 12 4 12 4 11 5 9 3 rcurveline
          -1 1 2 1 29 -47 21 389 callsubr
          -46 41 rrcurveto
          26 27 15 34 37 vvcurveto
          42 -20 32 -37 -38 -61 -33 -48 -15 5 -22 411 callsubr
          -31 -6 -27 hhcurveto
          -86 -75 33 84 99 81 37 108 hvcurveto
          43 13 -4 16 hhcurveto
          14 3 31 31 23 vvcurveto
          endchar
        </CharString>
        <CharString name="dvD_B_RA">
          -19 234 38 rmoveto
          8 29 33 3 29 hhcurveto
          425 callgsubr
          -6 -42 -18 -38 -25 -28 rrcurveto
          -43 -34 rmoveto
          -10 -18 -20 -5 -20 hhcurveto
          -36 -42 18 49 25 11 19 17 14 hvcurveto
          239 516 rmoveto
          173 -80 callgsubr
          -604 -107 callgsubr
          332 56 callsubr
          -51 30 -49 52 -24 vhcurveto
          -118 -55 7 -24 30 -37 18 -12 rlinecurve
          222 128 12 6 12 6 10 8 rlinecurve
          2 1 rlineto
          0 vlineto
          45 33 31 50 9 49 13 -21 14 -28 -68 callgsubr
        </CharString>
        <CharString name="dvD_DA">
          -44 383 529 rmoveto
          184 -67 callsubr
          -577 -107 callgsubr
          298 -52 hlineto
          2 -20 -34 0 -20 hhcurveto
          -112 -53 -43 -61 -46 28 -39 40 -35 hvcurveto
          -42 -25 -27 -36 -51 vvcurveto
          -97 93 -71 110 48 43 12 19 34 vhcurveto
          36 -53 21 -50 34 -65 24 10 49 38 11 19 -25 42 -53 50 -51 46 rrcurveto
          19 22 11 24 25 vvcurveto
          38 -15 35 -33 -32 -62 -24 -42 -15 6 -19 10 -12 vhcurveto
          -13 -21 -31 -7 -27 hhcurveto
          -74 -35 24 50 81 127 12 104 1 hvcurveto
          -3 27 -12 37 -15 16 rrcurveto
          -55 -60 -7 -16 -51 hvcurveto
          -21 21 -13 21 24 vvcurveto
          30 19 21 88 vhcurveto
          30 45 -4 21 hhcurveto
          14 27 33 22 hvcurveto
          endchar
        </CharString>
        <CharString name="dvD_DHA">
          -19 231 -112 rmoveto
          -36 -42 18 49 76 98 18 74 425 callgsubr
          -88 -13 -63 -69 -74 hhcurveto
          189 641 rmoveto
          173 -80 callgsubr
          -603 -107 callgsubr
          331 56 callsubr
          -73 62 -68 99 107 78 86 84 16 vhcurveto
          13 -21 14 -28 -68 callgsubr
        </CharString>
        <CharString name="dvD_GA">
          -20 420 529 rmoveto
          171 -80 callgsubr
          -601 -107 callgsubr
          331 -74 145 callsubr
          -158 -84 -87 -119 -84 55 -82 84 -40 hvcurveto
          -92 vlineto
          -44 -28 -11 458 callgsubr
          73 -84 48 14 10 4 9 8 vhcurveto
          17 16 12 37 50 vvcurveto
          138 vlineto
          -1 6 5 0 6 hhcurveto
          46 41 10 18 34 hvcurveto
          29 -47 21 -45 30 -57 77 callgsubr
        </CharString>
        <CharString name="dvD_GHA">
          171 414 -112 rmoveto
          -40 -40 19 48 75 94 19 79 26 16 -2 -2 16 hvcurveto
          -88 -14 -61 -69 -76 hhcurveto
          -223 111 rmoveto
          -60 -30 34 42 42 31 38 68 19 20 -3 -9 16 hvcurveto
          18 -25 30 -24 28 -15 rrcurveto
          -43 -26 -54 -37 -60 hhcurveto
          413 530 rmoveto
          178 -80 callgsubr
          -792 -107 callgsubr
          515 -67 hlineto
          2 -15 -16 1 -17 hhcurveto
          -159 -84 -89 -111 -19 3 -18 5 -18 hvcurveto
          5 -15 -17 3 -18 hhcurveto
          -81 -66 -49 -79 -72 53 -79 109 27 26 5 9 22 hvcurveto
          -71 4 61 -64 94 hhcurveto
          112 75 91 82 15 hvcurveto
          13 -21 15 -31 -68 callgsubr
        </CharString>
        <CharString name="dvD_G_RA">
          -21 420 529 rmoveto
          169 -45 callsubr
          -600 -107 callgsubr
          331 -74 145 callsubr
          -158 -84 -87 -119 -65 33 -64 53 -43 hvcurveto
          -108 vlineto
          -44 -1 -32 -10 -10 -15 rrcurveto
          -5 181 callgsubr
          -41 74 -86 43 11 16 4 6 6 vhcurveto
          19 16 13 41 53 vvcurveto
          125 vlineto
          -7 23 25 -4 26 hhcurveto
          13 13 1 2 13 hvcurveto
          -184 vlineto
          -282 -171 8 -24 29 -38 15 -10 rlinecurve
          230 158 rlineto
          -67 vlineto
          -21 45 -19 44 vhcurveto
          390 vlineto
          25 -43 20 -43 28 -52 77 callgsubr
        </CharString>
        <CharString name="dvD_MA">
          -569 endchar
        </CharString>
        <CharString name="dvD_NA">
          -5 433 529 rmoveto
          174 -67 callsubr
          -617 -107 callgsubr
          344 -74 145 callsubr
          -158 -84 -87 -119 -91 64 -88 95 -35 hvcurveto
          -84 -36 378 callsubr
          rlinecurve
          185 callsubr
          -7 20 hvcurveto
          205 99 8 4 2 1 29 -47 20 -45 30 -57 rlinecurve
          102 callsubr
          -19 33 -38 -37 -62 -33 -48 -15 6 -22 11 -16 vhcurveto
          -12 -21 -30 -6 -28 hhcurveto
          -86 -75 35 83 103 81 39 109 hvcurveto
          41 15 -4 16 hhcurveto
          12 3 32 31 23 vvcurveto
          endchar
        </CharString>
        <CharString name="dvD_R">
          -23 426 529 rmoveto
          162 -67 callsubr
          -598 -107 callgsubr
          337 -74 145 callsubr
          -158 -84 -87 -119 -111 96 -108 132 -10 hvcurveto
          -109 -70 9 -24 30 -37 18 -12 rlinecurve
          196 167 28 -46 20 -44 30 -56 rlinecurve
          -49 callsubr
          21 -538 351 callsubr
          -30 hhcurveto
          -18 -24 44 callsubr
          -37 13 9 16 14 8 11 -34 419 callgsubr
        </CharString>
        <CharString name="dvD_RA">
          -23 426 529 rmoveto
          162 -67 callsubr
          -598 -107 callgsubr
          337 -74 145 callsubr
          -158 -84 -87 -119 -111 96 -108 132 -10 hvcurveto
          -109 -70 9 -24 30 -37 18 -12 rlinecurve
          196 167 28 -46 20 -44 30 -56 rlinecurve
          77 callgsubr
        </CharString>
        <CharString name="dvD_VA">
          -23 231 -112 rmoveto
          -36 -42 18 49 76 98 18 74 425 callgsubr
          -88 -13 -63 -69 -74 hhcurveto
          189 641 rmoveto
          168 -80 callgsubr
          -598 -107 callgsubr
          331 56 callsubr
          -73 62 -68 99 107 78 86 84 16 vhcurveto
          13 -21 14 -28 -68 callgsubr
        </CharString>
        <CharString name="dvD_YA">
          68 440 162 rmoveto
          -39 -39 -63 -37 -83 hhcurveto
          -63 -35 22 42 49 75 33 116 8 hvcurveto
          -2 27 -19 40 -15 16 -45 -3 -47 -8 -41 -16 rrcurveto
          -21 20 -10 20 21 vvcurveto
          23 20 17 40 vhcurveto
          99 hlineto
          14 27 32 22 hvcurveto
          78 92 223 callsubr
          -689 -107 callgsubr
          265 -46 -57 hlineto
          -80 -60 -26 -77 -42 29 -36 40 -34 hvcurveto
          -36 -25 -23 -35 -47 vvcurveto
          -90 77 -56 113 79 59 21 27 44 vhcurveto
          -62 vlineto
          -21 56 -20 44 vhcurveto
          569 vlineto
          endchar
        </CharString>
        <CharString name="dvE">
          5 189 529 22 callsubr
        </CharString>
        <CharString name="dvEcandra">
          5 296 696 rmoveto
          103 77 74 69 32 hvcurveto
          -19 20 -40 27 -28 10 rrcurveto
          -75 -33 -44 -41 -67 hhcurveto
          -46 -48 23 79 357 callgsubr
          -107 -167 22 callsubr
        </CharString>
        <CharString name="dvEight">
          -117 425 97 rmoveto
          -10 21 -24 36 -23 16 rrcurveto
          -42 -35 -48 -27 -51 hhcurveto
          -54 -40 37 61 97 95 160 88 118 hvcurveto
          -12 17 -48 32 -19 7 rrcurveto
          -67 -96 -112 -158 -152 vvcurveto
          -124 73 -84 113 79 67 40 41 28 vhcurveto
          endchar
        </CharString>
        <CharString name="dvEyelash">
          -278 301 618 rmoveto
          -343 -107 callgsubr
          343 hlineto
          -1 28 -13 39 -18 22 rrcurveto
          49 -269 rmoveto
          -23 -35 -48 -9 -57 hhcurveto
          -38 -38 6 12 -28 hvcurveto
          -32 -50 rlineto
          -32 41 72 -15 67 hhcurveto
          40 34 4 13 29 hvcurveto
          endchar
        </CharString>
        <CharString name="dvEyelash_HA">
          62 515 359 219 callgsubr
          -679 -107 callgsubr
          468 -79 -94 334 callsubr
          -4 0 -4 1 -4 hvcurveto
          -9 -27 -33 -5 -35 hhcurveto
          -46 -55 12 12 -30 hvcurveto
          -33 -50 rlineto
          -33 42 87 -22 74 hhcurveto
          35 33 5 7 26 hvcurveto
          9 -11 11 -11 12 -11 rrcurveto
          -35 -28 -23 -40 -49 vvcurveto
          -147 188 -80 140 -35 vhcurveto
          9 12 10 29 3 -66 callgsubr
        </CharString>
        <CharString name="dvEyelash_YA">
          156 528 251 rmoveto
          -31 -25 -42 -29 -67 hhcurveto
          -70 -49 35 46 -26 hvcurveto
          101 25 37 64 73 vvcurveto
          36 -13 32 -22 27 vhcurveto
          176 hlineto
          238 12 callsubr
          -787 -107 callgsubr
          279 hlineto
          20 -25 13 -27 -26 vvcurveto
          -76 -59 -29 -76 -14 vhcurveto
          -47 -8 -88 7 -46 19 -33 -50 rcurveline
          -33 41 90 -21 63 hhcurveto
          18 16 2 2 13 hvcurveto
          -80 33 70 -70 118 hhcurveto
          54 41 16 18 -89 callsubr
        </CharString>
        <CharString name="dvFive">
          -20 411 230 rmoveto
          11 20 6 24 27 vvcurveto
          48 -21 23 -21 -33 -48 -32 -39 -13 8 -20 10 -16 vhcurveto
          -11 -20 -25 -6 -27 hhcurveto
          -74 -24 53 54 95 64 88 43 45 hvcurveto
          -15 22 -38 31 -22 8 rrcurveto
          -68 -65 -42 -100 -99 vvcurveto
          -141 80 -82 103 40 42 13 26 32 vhcurveto
          40 -64 44 -90 24 -58 25 10 50 32 12 18 -27 49 -77 98 -52 52 rrcurveto
          endchar
        </CharString>
        <CharString name="dvFour">
          81 327 118 rmoveto
          -45 -19 27 29 36 32 40 37 39 hvcurveto
          38 -40 32 -39 -36 vvcurveto
          -38 -39 -18 -36 vhcurveto
          244 454 rmoveto
          -15 19 -39 24 -27 9 -19 -55 -90 -99 -58 -62 -57 61 -45 52 -109 141 -19 -7 -36 -24 -7 -13 54 -82 42 -58 125 -127 rrcurveto
          -40 -48 -41 -64 -66 vvcurveto
          -82 61 -61 86 74 59 46 85 70 -38 57 -48 54 vhcurveto
          109 108 66 64 12 58 rrcurveto
          endchar
        </CharString>
        <CharString name="dvG">
          -268 342 529 -54 callsubr
          -353 -25 callgsubr
          12 37 54 vvcurveto
          243 vlineto
          endchar
        </CharString>
        <CharString name="dvGA">
          18 628 529 -54 callsubr
          -639 -25 callgsubr
          12 37 54 vvcurveto
          243 170 -508 -106 callsubr
        </CharString>
        <CharString name="dvGH">
          -185 452 305 rmoveto
          -70 -30 -77 -58 -76 70 callgsubr
          11 13 vhcurveto
          282 -80 callgsubr
          -438 -107 callgsubr
          57 hlineto
          286 callsubr
          80 78 34 54 51 vhcurveto
          endchar
        </CharString>
        <CharString name="dvGHA">
          45 417 249 rmoveto
          -43 -38 -55 -29 -54 59 callsubr
          270 346 callgsubr
          -666 -107 callgsubr
          58 137 callsubr
          52 49 15 23 41 vhcurveto
          -113 -31 callgsubr
        </CharString>
        <CharString name="dvGH_MA">
          396 768 22 callgsubr
          -311 hmoveto
          -229 vlineto
          -44 -31 -11 -15 -11 hvcurveto
          -4 -6 -2 -12 -13 vvcurveto
          -10 4 -12 6 -12 vhcurveto
          -20 -33 -37 -12 -35 59 callsubr
          860 12 callsubr
          -1016 -107 callgsubr
          57 137 callsubr
          57 54 18 27 43 vhcurveto
          -20 21 22 -13 17 hhcurveto
          15 16 4 8 8 hvcurveto
          -32 callgsubr
        </CharString>
        <CharString name="dvGH_NA">
          42 413 248 rmoveto
          -42 -38 -55 -29 -53 70 callgsubr
          10 13 vhcurveto
          270 hlineto
          245 callsubr
          -663 -107 callgsubr
          54 hlineto
          -8 -15 -4 -18 -22 vvcurveto
          -56 31 -48 66 -22 vhcurveto
          -25 -25 -16 -33 -41 vvcurveto
          -63 38 -49 58 -24 vhcurveto
          -54 -25 424 callgsubr
          rlinecurve
          -52 5 74 -65 29 hhcurveto
          18 25 17 12 23 -14 51 -6 20 hvcurveto
          201 98 rlineto
          -110 -92 callsubr
        </CharString>
        <CharString name="dvGH_R">
          -190 456 312 rmoveto
          -68 -28 -81 -64 -78 183 callsubr
          273 -67 callsubr
          -428 241 callsubr
          -73 51 -49 68 -17 vhcurveto
          -119 -56 7 -26 20 -36 18 -18 rlinecurve
          347 200 rlineto
          endchar
        </CharString>
        <CharString name="dvGH_RA">
          47 418 254 rmoveto
          -43 -37 -56 -31 -56 183 callsubr
          271 hlineto
          240 12 callsubr
          -666 241 callsubr
          -72 50 -49 67 -19 vhcurveto
          -117 -55 7 -26 20 -36 18 -18 rlinecurve
          282 163 rlineto
          -121 -106 callsubr
        </CharString>
        <CharString name="dvGH_YA">
          424 795 -82 callgsubr
          -270 375 callsubr
          -70 -37 413 callgsubr
          2 -17 4 -18 6 -18 rrcurveto
          -56 -35 -66 -43 -67 59 callsubr
          888 6 callgsubr
          -1045 -107 callgsubr
          57 137 callsubr
          78 81 35 54 52 vhcurveto
          -49 40 60 -36 85 hhcurveto
          53 42 16 17 29 hvcurveto
          -112 -92 callsubr
        </CharString>
        <CharString name="dvG_BA">
          282 589 187 331 callsubr
          -47 175 callgsubr
          217 -103 rmoveto
          423 callgsubr
          -149 154 101 callgsubr
          45 33 -12 -17 28 hvcurveto
          239 176 -80 callsubr
          -902 hlineto
          -34 15 -86 callgsubr
          435 -109 vlineto
          432 callgsubr
          -104 75 -99 128 56 182 callsubr
          hvcurveto
          -108 -106 callsubr
        </CharString>
        <CharString name="dvG_BHA">
          393 1004 529 -80 callsubr
          -327 -52 callgsubr
          88 -235 hlineto
          -54 3 -100 4 -34 349 callgsubr
          461 callgsubr
          -19 vhcurveto
          -390 hlineto
          -34 15 -86 callgsubr
          55 vlineto
          -1 -4 0 -4 -4 vvcurveto
          -84 83 -55 75 -24 323 callgsubr
          4 15 rrcurveto
          -41 22 -42 32 56 vvcurveto
          35 16 20 32 45 14 -39 -74 1 vhcurveto
          2 -71 0 -42 -2 -40 rrcurveto
          -71 -3 -22 -16 -31 vvcurveto
          -60 82 -70 26 -7 vhcurveto
          14 -5 26 369 callgsubr
          51 2 74 -3 60 -5 rrcurveto
          -190 -92 callsubr
        </CharString>
        <CharString name="dvG_BH_YA">
          691 1063 368 callgsubr
          -71 -51 29 45 -26 hvcurveto
          1 vlineto
          105 25 37 67 169 callsubr
          -67 -34 -31 -86 -21 vhcurveto
          1 -19 -19 0 -19 hhcurveto
          -73 123 hlineto
          142 callgsubr
          -391 -107 callgsubr
          129 -164 hlineto
          -44 416 callgsubr
          76 -91 49 14 17 269 callgsubr
          13 38 53 vvcurveto
          236 54 vlineto
          271 callgsubr
          -76 64 -43 73 -24 vhcurveto
          8 8 10 19 3 14 rrcurveto
          -41 23 -20 25 39 263 callsubr
          -142 vlineto
          -45 -31 -10 -17 -11 hvcurveto
          -4 -6 -2 -11 -12 vvcurveto
          -44 79 -89 42 -1 vhcurveto
          7 7 0 1 7 hvcurveto
          8 2 8 2 4 4 rrcurveto
          17 14 15 49 40 vvcurveto
          30 2 26 0 26 -1 rrcurveto
          18 18 0 -1 18 hvcurveto
          -80 33 70 -71 121 310 callgsubr
        </CharString>
        <CharString name="dvG_DA">
          260 712 529 rmoveto
          160 -45 callsubr
          -882 hlineto
          -34 15 -86 callgsubr
          394 -81 vlineto
          2 -15 -16 1 -18 hhcurveto
          -158 -79 -92 -112 -122 96 -101 146 54 callsubr
        </CharString>
        <CharString name="dvG_DHA">
          357 968 529 -80 callsubr
          -312 hlineto
          -34 18 -105 callgsubr
          70 -266 hlineto
          -49 -37 -61 -38 -60 -50 callsubr
          250 callsubr
          -461 hlineto
          -34 15 -86 callgsubr
          106 288 callgsubr
          104 58 54 18 27 44 vhcurveto
          -120 -106 callsubr
        </CharString>
        <CharString name="dvG_DH_VA">
          664 1036 -17 callgsubr
          239 178 -80 callsubr
          -615 -107 callgsubr
          376 -13 callgsubr
          -91 387 callgsubr
          -16 2 -16 3 -15 hvcurveto
          -37 -37 -53 -30 -53 -13 callsubr
          250 callsubr
          -456 -25 callgsubr
          13 37 54 vvcurveto
          243 99 288 callgsubr
          105 67 66 25 37 48 vhcurveto
          -42 35 53 -29 69 309 callsubr
        </CharString>
        <CharString name="dvG_DH_YA">
          686 1057 -82 callgsubr
          240 6 callgsubr
          -638 -11 callsubr
          127 391 callgsubr
          -28 8 -30 13 -29 rrcurveto
          -37 -37 -53 -29 -52 hhcurveto
          -57 86 callgsubr
          -23 31 -18 17 -35 -7 -34 -11 -30 -43 callsubr
          59 19 33 36 40 vvcurveto
          52 -39 36 -74 250 callsubr
          -461 -25 callgsubr
          13 37 54 vvcurveto
          243 104 vlineto
          250 callgsubr
          54 callgsubr
          -92 78 -61 104 72 71 29 42 49 vhcurveto
          -40 39 55 -27 75 hhcurveto
          53 41 16 17 29 hvcurveto
          -112 -92 callsubr
        </CharString>
        <CharString name="dvG_GA">
          301 912 -73 callsubr
          -921 hlineto
          -34 15 -86 callgsubr
          183 -171 vlineto
          -43 -32 -11 -15 -10 hvcurveto
          156 callgsubr
        </CharString>
        <CharString name="dvG_GHA">
          357 728 248 rmoveto
          -42 -38 -54 -29 -54 70 callgsubr
          11 13 vhcurveto
          269 hlineto
          245 callsubr
          -977 hlineto
          -34 15 -86 callgsubr
          141 vlineto
          286 callsubr
          52 48 15 22 41 vhcurveto
          -112 -92 callsubr
        </CharString>
        <CharString name="dvG_JA">
          467 1077 529 -80 callsubr
          -1086 hlineto
          -34 15 -86 callgsubr
          619 -110 -236 vlineto
          -10 -4 -21 -30 -5 178 callsubr
          -15 235 callgsubr
          rrcurveto
          -179 47 94 -178 150 111 callgsubr
          171 -309 -58 callgsubr
        </CharString>
</ttFont>
